AcariSans-Light.ufo
<glyph name="exclam" format="2">
  <advance width="645"/>
  <unicode hex="0021"/>
  <outline>
    <contour>
      <point x="371.712" y="380.928" type="line"/>
      <point x="401.408" y="1469.44" type="line"/>
      <point x="243.712" y="1469.44" type="line"/>
      <point x="272.384" y="380.928" type="line"/>
    </contour>
    <contour>
      <point x="413.696" y="0" type="line"/>
      <point x="413.696" y="181.248" type="line"/>
      <point x="230.4" y="181.248" type="line"/>
      <point x="230.4" y="0" type="line"/>
    </contour>
  </outline>
</glyph>
<glyph name="quotedbl" format="2">
  <advance width="921"/>
  <unicode hex="0022"/>
  <outline>
    <contour>
      <point x="369.664" y="1034.24" type="line"/>
      <point x="369.664" y="1446.91" type="line"/>
      <point x="249.856" y="1446.91" type="line"/>
      <point x="249.856" y="1034.24" type="line"/>
    </contour>
    <contour>
      <point x="670.72" y="1034.24" type="line"/>
      <point x="670.72" y="1446.91" type="line"/>
      <point x="547.84" y="1446.91" type="line"/>
      <point x="547.84" y="1034.24" type="line"/>
    </contour>
  </outline>
</glyph>
<glyph name="numbersign" format="2">
  <advance width="1401"/>
  <unicode hex="0023"/>
  <outline>
    <contour>
      <point x="828.416" y="0" type="line"/>
      <point x="923.648" y="460.8" type="line"/>
      <point x="1200.13" y="460.8" type="line"/>
      <point x="1200.13" y="555.008" type="line"/>
      <point x="944.128" y="555.008" type="line"/>
      <point x="1016.83" y="914.432" type="line"/>
      <point x="1284.1" y="914.432" type="line"/>
      <point x="1284.1" y="1012.74" type="line"/>
      <point x="1037.31" y="1012.74" type="line"/>
      <point x="1130.5" y="1468.42" type="line"/>
      <point x="1025.02" y="1468.42" type="line"/>
      <point x="930.816" y="1019.9" type="line"/>
      <point x="583.68" y="1019.9" type="line"/>
      <point x="681.984" y="1468.42" type="line"/>
      <point x="575.488" y="1468.42" type="line"/>
      <point x="479.232" y="1009.66" type="line"/>
      <point x="201.728" y="1009.66" type="line"/>
      <point x="201.728" y="914.432" type="line"/>
      <point x="457.728" y="914.432" type="line"/>
      <point x="387.072" y="555.008" type="line"/>
      <point x="117.76" y="555.008" type="line"/>
      <point x="117.76" y="454.656" type="line"/>
      <point x="365.568" y="454.656" type="line"/>
      <point x="273.408" y="0" type="line"/>
      <point x="378.88" y="0" type="line"/>
      <point x="471.04" y="447.488" type="line"/>
      <point x="818.176" y="447.488" type="line"/>
      <point x="723.968" y="0" type="line"/>
    </contour>
    <contour>
      <point x="838.656" y="555.008" type="line"/>
      <point x="491.52" y="555.008" type="line"/>
      <point x="565.248" y="914.432" type="line"/>
      <point x="910.336" y="914.432" type="line"/>
    </contour>
  </outline>
</glyph>
<glyph name="dollar" format="2">
  <advance width="1140"/>
  <unicode hex="0024"/>
  <outline>
    <contour>
      <point x="94" y="370" type="line"/>
      <point x="135" y="146"/>
      <point x="300" y="7"/>
      <point x="525" y="-12" type="curve"/>
      <point x="525" y="-253" type="line"/>
      <point x="612" y="-253" type="line"/>
      <point x="612" y="-15" type="line"/>
      <point x="857" y="0"/>
      <point x="1028" y="153"/>
      <point x="1028" y="398" type="curve" smooth="yes"/>
      <point x="1028" y="624"/>
      <point x="850" y="720"/>
      <point x="674" y="802" type="curve" smooth="yes"/>
      <point x="616" y="828" type="line" smooth="yes"/>
      <point x="465" y="898"/>
      <point x="331" y="969"/>
      <point x="331" y="1120" type="curve" smooth="yes"/>
      <point x="331" y="1252"/>
      <point x="446" y="1343"/>
      <point x="573" y="1343" type="curve" smooth="yes"/>
      <point x="700" y="1343"/>
      <point x="799" y="1276"/>
      <point x="860" y="1168" type="curve"/>
      <point x="967" y="1242" type="line"/>
      <point x="889" y="1382"/>
      <point x="772" y="1454"/>
      <point x="612" y="1466" type="curve"/>
      <point x="612" y="1699" type="line"/>
      <point x="525" y="1699" type="line"/>
      <point x="525" y="1464" type="line"/>
      <point x="331" y="1436"/>
      <point x="190" y="1306"/>
      <point x="190" y="1103" type="curve" smooth="yes"/>
      <point x="190" y="918"/>
      <point x="358" y="807"/>
      <point x="560" y="710" type="curve" smooth="yes"/>
      <point x="615" y="683" type="line" smooth="yes"/>
      <point x="771" y="608"/>
      <point x="888" y="540"/>
      <point x="888" y="386" type="curve" smooth="yes"/>
      <point x="888" y="201"/>
      <point x="761" y="117"/>
      <point x="586" y="117" type="curve" smooth="yes"/>
      <point x="400" y="117"/>
      <point x="252" y="219"/>
      <point x="227" y="410" type="curve"/>
    </contour>
  </outline>
  <guideline angle="244.165" x="708.608" y="874.496"/>
  <guideline angle="244.165" x="638.976" y="874.496"/>
</glyph>
<glyph name="percent" format="2">
  <advance width="1610"/>
  <unicode hex="0025"/>
  <outline>
    <contour>
      <point x="358.592" y="6.144" type="line"/>
      <point x="474.304" y="6.144" type="line"/>
      <point x="731.328" y="482.304"/>
      <point x="982.208" y="952.32"/>
      <point x="1237.18" y="1430.53" type="curve"/>
      <point x="1121.47" y="1430.53" type="line"/>
    </contour>
    <contour>
      <point x="384.192" y="830.512" type="curve" smooth="yes"/>
      <point x="525.529" y="830.512"/>
      <point x="623.808" y="960.291"/>
      <point x="623.808" y="1146.93" type="curve" smooth="yes"/>
      <point x="623.808" y="1333.04"/>
      <point x="520.296" y="1468.46"/>
      <point x="378.048" y="1468.46" type="curve" smooth="yes"/>
      <point x="235.446" y="1468.46"/>
      <point x="137.408" y="1337.47"/>
      <point x="137.408" y="1146.93" type="curve" smooth="yes"/>
      <point x="137.408" y="959.553"/>
      <point x="238.052" y="830.512"/>
    </contour>
    <contour>
      <point x="382.144" y="914.48" type="curve" smooth="yes"/>
      <point x="290.099" y="914.48"/>
      <point x="228.544" y="1007.63"/>
      <point x="228.544" y="1146.93" type="curve" smooth="yes"/>
      <point x="228.544" y="1284.27"/>
      <point x="290.487" y="1381.42"/>
      <point x="378.048" y="1381.42" type="curve" smooth="yes"/>
      <point x="463.148" y="1381.42"/>
      <point x="526.528" y="1282.2"/>
      <point x="526.528" y="1148.98" type="curve" smooth="yes"/>
      <point x="526.528" y="1012.96"/>
      <point x="465.891" y="914.48"/>
    </contour>
    <contour>
      <point x="1233.09" y="-20" type="curve" smooth="yes"/>
      <point x="1374.42" y="-20"/>
      <point x="1472.7" y="109.779"/>
      <point x="1472.7" y="296.416" type="curve" smooth="yes"/>
      <point x="1472.7" y="482.524"/>
      <point x="1369.19" y="617.952"/>
      <point x="1226.94" y="617.952" type="curve" smooth="yes"/>
      <point x="1084.34" y="617.952"/>
      <point x="986.304" y="486.956"/>
      <point x="986.304" y="296.416" type="curve" smooth="yes"/>
      <point x="986.304" y="109.041"/>
      <point x="1086.95" y="-20"/>
    </contour>
    <contour>
      <point x="1231.04" y="63.968" type="curve" smooth="yes"/>
      <point x="1139" y="63.968"/>
      <point x="1077.44" y="157.121"/>
      <point x="1077.44" y="296.416" type="curve" smooth="yes"/>
      <point x="1077.44" y="433.755"/>
      <point x="1139.38" y="530.912"/>
      <point x="1226.94" y="530.912" type="curve" smooth="yes"/>
      <point x="1312.04" y="530.912"/>
      <point x="1375.42" y="431.69"/>
      <point x="1375.42" y="298.464" type="curve" smooth="yes"/>
      <point x="1375.42" y="162.45"/>
      <point x="1314.79" y="63.968"/>
    </contour>
  </outline>
</glyph>
<glyph name="ampersand" format="2">
  <advance width="1411"/>
  <unicode hex="0026"/>
  <outline>
    <contour>
      <point x="141.312" y="302.08" type="curve" smooth="yes"/>
      <point x="141.312" y="103.409"/>
      <point x="294.735" y="-19.504"/>
      <point x="542.72" y="-19.504" type="curve" smooth="yes"/>
      <point x="736.97" y="-19.504"/>
      <point x="885.715" y="49.0605"/>
      <point x="1000.45" y="191.488" type="curve"/>
      <point x="1206.27" y="-51.2" type="line"/>
      <point x="1289.22" y="21.504" type="line"/>
      <point x="1063.94" y="286.72" type="line"/>
      <point x="1128.86" y="400.57"/>
      <point x="1168.22" y="536.102"/>
      <point x="1181.7" y="692.224" type="curve"/>
      <point x="1071.1" y="704.512" type="line"/>
      <point x="1056.97" y="573.805"/>
      <point x="1029.71" y="467.42"/>
      <point x="987.136" y="376.832" type="curve"/>
      <point x="661.504" y="760.832" type="line"/>
      <point x="875.513" y="904.018"/>
      <point x="957.44" y="1013.16"/>
      <point x="957.44" y="1155.07" type="curve" smooth="yes"/>
      <point x="957.44" y="1342.37"/>
      <point x="831.209" y="1468.32"/>
      <point x="645.12" y="1468.32" type="curve" smooth="yes"/>
      <point x="444.758" y="1468.32"/>
      <point x="306.176" y="1343.04"/>
      <point x="306.176" y="1160.19" type="curve" smooth="yes"/>
      <point x="306.176" y="1043.81"/>
      <point x="369.767" y="922.858"/>
      <point x="504.832" y="782.336" type="curve"/>
      <point x="241" y="609.005"/>
      <point x="141.312" y="477.304"/>
    </contour>
    <contour>
      <point x="591.872" y="838.656" type="curve"/>
      <point x="480.633" y="952.784"/>
      <point x="414.72" y="1069.75"/>
      <point x="414.72" y="1153.02" type="curve" smooth="yes"/>
      <point x="414.72" y="1280.63"/>
      <point x="502.266" y="1357.73"/>
      <point x="647.168" y="1357.73" type="curve" smooth="yes"/>
      <point x="772.468" y="1357.73"/>
      <point x="857.088" y="1276.04"/>
      <point x="857.088" y="1155.07" type="curve" smooth="yes"/>
      <point x="857.088" y="1047.94"/>
      <point x="775.324" y="950.395"/>
    </contour>
    <contour>
      <point x="250.88" y="306.176" type="curve" smooth="yes"/>
      <point x="250.88" y="442.516"/>
      <point x="341.723" y="554.613"/>
      <point x="570.368" y="700.416" type="curve"/>
      <point x="927.744" y="277.504" type="line"/>
      <point x="838.352" y="157.019"/>
      <point x="710.303" y="96.256"/>
      <point x="545.792" y="96.256" type="curve" smooth="yes"/>
      <point x="365.79" y="96.256"/>
      <point x="250.88" y="178.05"/>
    </contour>
  </outline>
</glyph>
<glyph name="quotesingle" format="2">
  <advance width="620"/>
  <unicode hex="0027"/>
  <outline>
    <contour>
      <point x="370" y="1064" type="line"/>
      <point x="370" y="1477" type="line"/>
      <point x="250" y="1477" type="line"/>
      <point x="250" y="1064" type="line"/>
    </contour>
  </outline>
</glyph>
<glyph name="parenleft" format="2">
  <advance width="472"/>
  <unicode hex="0028"/>
  <outline>
    <contour>
      <point x="120.24" y="723.92" type="curve" smooth="yes"/>
      <point x="120.24" y="457.917"/>
      <point x="222.429" y="139.361"/>
      <point x="362.952" y="-20.312" type="curve"/>
      <point x="471.424" y="-20.312" type="line"/>
      <point x="320.379" y="172.857"/>
      <point x="227.76" y="463.158"/>
      <point x="227.76" y="723.848" type="curve" smooth="yes"/>
      <point x="227.76" y="987.045"/>
      <point x="313.461" y="1252.67"/>
      <point x="471.472" y="1468.15" type="curve"/>
      <point x="362.928" y="1468.15" type="line"/>
      <point x="212.072" y="1277.12"/>
      <point x="120.24" y="989.911"/>
    </contour>
  </outline>
</glyph>
<glyph name="asterisk" format="2">
  <advance width="884"/>
  <unicode hex="002A"/>
  <outline>
    <contour>
      <point x="570" y="876" type="line"/>
      <point x="650" y="936" type="line"/>
      <point x="468" y="1148" type="line"/>
      <point x="730" y="1192" type="line"/>
      <point x="698" y="1292" type="line"/>
      <point x="457" y="1185" type="line"/>
      <point x="488" y="1447" type="line"/>
      <point x="393" y="1447" type="line"/>
      <point x="426" y="1185" type="line"/>
      <point x="183" y="1292" type="line"/>
      <point x="155" y="1192" type="line"/>
      <point x="415" y="1148" type="line"/>
      <point x="233" y="936" type="line"/>
      <point x="311" y="876" type="line"/>
      <point x="440" y="1120" type="line"/>
    </contour>
  </outline>
</glyph>
<glyph name="plus" format="2">
  <advance width="1300"/>
  <unicode hex="002B"/>
  <outline>
    <contour>
      <point x="699.392" y="108.544" type="line"/>
      <point x="699.392" y="591.872" type="line"/>
      <point x="1168.38" y="591.872" type="line"/>
      <point x="1168.38" y="690.176" type="line"/>
      <point x="699.392" y="690.176" type="line"/>
      <point x="699.392" y="1169.41" type="line"/>
      <point x="600.064" y="1169.41" type="line"/>
      <point x="600.064" y="690.176" type="line"/>
      <point x="132.096" y="690.176" type="line"/>
      <point x="132.096" y="591.872" type="line"/>
      <point x="600.064" y="591.872" type="line"/>
      <point x="600.064" y="108.544" type="line"/>
    </contour>
  </outline>
</glyph>
<glyph name="comma" format="2">
  <advance width="614"/>
  <unicode hex="002C"/>
  <outline>
    <contour>
      <point x="231" y="-339" type="line"/>
      <point x="479" y="267" type="line"/>
      <point x="302" y="267" type="line"/>
      <point x="155" y="-339" type="line"/>
    </contour>
  </outline>
</glyph>
<glyph name="hyphen" format="2">
  <advance width="850"/>
  <unicode hex="002D"/>
  <outline>
    <contour>
      <point x="680" y="608" type="line"/>
      <point x="680" y="707" type="line"/>
      <point x="171" y="707" type="line"/>
      <point x="171" y="608" type="line"/>
    </contour>
  </outline>
</glyph>
<glyph name="period" format="2">
  <advance width="614"/>
  <unicode hex="002E"/>
  <outline>
    <contour>
      <point x="436" y="0" type="line"/>
      <point x="436" y="181" type="line"/>
      <point x="246" y="181" type="line"/>
      <point x="246" y="0" type="line"/>
    </contour>
  </outline>
</glyph>
<glyph name="slash" format="2">
  <advance width="949"/>
  <unicode hex="002F"/>
  <outline>
    <contour>
      <point x="162" y="-441" type="line"/>
      <point x="927" y="1552" type="line"/>
      <point x="790" y="1552" type="line"/>
      <point x="23" y="-441" type="line"/>
    </contour>
  </outline>
</glyph>
<glyph name="zero" format="2">
  <advance width="1229"/>
  <unicode hex="0030"/>
  <outline>
    <contour>
      <point x="607" y="-20" type="curve" smooth="yes"/>
      <point x="975" y="-20"/>
      <point x="1127" y="419"/>
      <point x="1127" y="722" type="curve" smooth="yes"/>
      <point x="1127" y="1036"/>
      <point x="987" y="1470"/>
      <point x="607" y="1470" type="curve" smooth="yes"/>
      <point x="223" y="1470"/>
      <point x="100" y="1036"/>
      <point x="100" y="722" type="curve" smooth="yes"/>
      <point x="100" y="398"/>
      <point x="216" y="-20"/>
    </contour>
    <contour>
      <point x="607" y="102" type="curve" smooth="yes"/>
      <point x="301" y="102"/>
      <point x="232" y="480"/>
      <point x="232" y="722" type="curve" smooth="yes"/>
      <point x="232" y="951"/>
      <point x="311" y="1342"/>
      <point x="606" y="1342" type="curve" smooth="yes"/>
      <point x="900" y="1342"/>
      <point x="982" y="952"/>
      <point x="982" y="722" type="curve" smooth="yes"/>
      <point x="982" y="496"/>
      <point x="900" y="102"/>
    </contour>
  </outline>
  <guideline angle="90" x="607" y="0"/>
  <guideline angle="0" x="0" y="722"/>
</glyph>
<glyph name="one" format="2">
  <advance width="1229"/>
  <unicode hex="0031"/>
  <outline>
    <contour>
      <point x="627.712" y="0" type="line"/>
      <point x="766.976" y="0" type="line"/>
      <point x="766.976" y="1446.91" type="line"/>
      <point x="642.048" y="1446.91" type="line"/>
      <point x="642.048" y="1436.67" type="line" smooth="yes"/>
      <point x="642.048" y="1306.62"/>
      <point x="577.536" y="1236.99"/>
      <point x="455.68" y="1236.99" type="curve" smooth="yes"/>
      <point x="238.592" y="1236.99" type="line"/>
      <point x="238.592" y="1126.4" type="line"/>
      <point x="627.712" y="1126.4" type="line"/>
    </contour>
  </outline>
</glyph>
<glyph name="two" format="2">
  <advance width="1229"/>
  <unicode hex="0032"/>
  <outline>
    <contour>
      <point x="114.688" y="0" type="line"/>
      <point x="1093.63" y="0" type="line"/>
      <point x="1093.63" y="114.688" type="line"/>
      <point x="290.816" y="114.688" type="line"/>
      <point x="580.608" y="327.68"/>
      <point x="1022.98" y="666.624"/>
      <point x="1022.98" y="1056.77" type="curve" smooth="yes"/>
      <point x="1022.98" y="1310.72"/>
      <point x="858.112" y="1466.37"/>
      <point x="606.208" y="1466.37" type="curve" smooth="yes"/>
      <point x="331.776" y="1466.37"/>
      <point x="182.272" y="1262.59"/>
      <point x="182.272" y="1000.45" type="curve"/>
      <point x="314.368" y="986.112" type="line"/>
      <point x="314.368" y="1169.41"/>
      <point x="406.528" y="1343.49"/>
      <point x="612.352" y="1343.49" type="curve" smooth="yes"/>
      <point x="785.408" y="1343.49"/>
      <point x="879.616" y="1220.61"/>
      <point x="879.616" y="1054.72" type="curve" smooth="yes"/>
      <point x="879.616" y="713.728"/>
      <point x="423.936" y="329.728"/>
      <point x="157.696" y="158.72" type="curve" smooth="yes"/>
      <point x="114.688" y="131.072" type="line"/>
    </contour>
  </outline>
</glyph>
<glyph name="three" format="2">
  <advance width="1229"/>
  <unicode hex="0033"/>
  <outline>
    <contour>
      <point x="113.664" y="396.288" type="line"/>
      <point x="113.664" y="114.688"/>
      <point x="330.752" y="-20.48"/>
      <point x="590.848" y="-20.48" type="curve" smooth="yes"/>
      <point x="857.088" y="-20.48"/>
      <point x="1067.01" y="123.904"/>
      <point x="1067.01" y="406.528" type="curve" smooth="yes"/>
      <point x="1067.01" y="586.752"/>
      <point x="978.944" y="720.896"/>
      <point x="806.912" y="778.24" type="curve"/>
      <point x="930.816" y="848.896"/>
      <point x="989.184" y="961.536"/>
      <point x="989.184" y="1103.87" type="curve" smooth="yes"/>
      <point x="989.184" y="1330.18"/>
      <point x="800.768" y="1468.42"/>
      <point x="586.752" y="1468.42" type="curve" smooth="yes"/>
      <point x="365.568" y="1468.42"/>
      <point x="182.272" y="1334.27"/>
      <point x="182.272" y="1100.8" type="curve"/>
      <point x="306.176" y="1084.42" type="line"/>
      <point x="306.176" y="1244.16"/>
      <point x="435.2" y="1346.56"/>
      <point x="587.776" y="1346.56" type="curve" smooth="yes"/>
      <point x="741.376" y="1346.56"/>
      <point x="861.184" y="1236.99"/>
      <point x="861.184" y="1081.34" type="curve" smooth="yes"/>
      <point x="861.184" y="929.792"/>
      <point x="763.904" y="828.416"/>
      <point x="615.424" y="828.416" type="curve" smooth="yes"/>
      <point x="522.24" y="828.416" type="line"/>
      <point x="522.24" y="706.56" type="line"/>
      <point x="588.8" y="706.56" type="line" smooth="yes"/>
      <point x="779.264" y="706.56"/>
      <point x="941.056" y="623.616"/>
      <point x="941.056" y="404.48" type="curve" smooth="yes"/>
      <point x="941.056" y="211.968"/>
      <point x="772.096" y="97.28"/>
      <point x="591.872" y="97.28" type="curve" smooth="yes"/>
      <point x="406.528" y="97.28"/>
      <point x="238.592" y="208.896"/>
      <point x="238.592" y="409.6" type="curve"/>
    </contour>
  </outline>
</glyph>
<glyph name="four" format="2">
  <advance width="1229"/>
  <unicode hex="0034"/>
  <outline>
    <contour>
      <point x="81" y="401" type="line"/>
      <point x="748" y="401" type="line"/>
      <point x="748" y="0" type="line"/>
      <point x="883" y="0" type="line"/>
      <point x="883" y="401" type="line"/>
      <point x="1111" y="401" type="line"/>
      <point x="1111" y="516" type="line"/>
      <point x="883" y="516" type="line"/>
      <point x="883" y="1447" type="line"/>
      <point x="755" y="1447" type="line"/>
      <point x="81" y="479" type="line"/>
    </contour>
    <contour>
      <point x="237" y="516" type="line"/>
      <point x="748" y="1238" type="line"/>
      <point x="748" y="516" type="line"/>
    </contour>
  </outline>
</glyph>
<glyph name="five" format="2">
  <advance width="1229"/>
  <unicode hex="0035"/>
  <outline>
    <contour>
      <point x="149.504" y="370.688" type="line"/>
      <point x="204.485" y="129.202"/>
      <point x="381.204" y="-20.48"/>
      <point x="611.328" y="-20.48" type="curve" smooth="yes"/>
      <point x="876.221" y="-20.48"/>
      <point x="1085.44" y="195.065"/>
      <point x="1085.44" y="467.968" type="curve" smooth="yes"/>
      <point x="1085.44" y="732.716"/>
      <point x="896.206" y="933.888"/>
      <point x="647.168" y="933.888" type="curve" smooth="yes"/>
      <point x="515.584" y="933.888"/>
      <point x="420.279" y="895.766"/>
      <point x="345.088" y="813.056" type="curve"/>
      <point x="430.08" y="1328.13" type="line"/>
      <point x="1019.9" y="1328.13" type="line"/>
      <point x="1019.9" y="1446.91" type="line"/>
      <point x="324.608" y="1446.91" type="line"/>
      <point x="200.704" y="724.992" type="line"/>
      <point x="318.464" y="659.456" type="line"/>
      <point x="384.155" y="762.823"/>
      <point x="493.657" y="819.2"/>
      <point x="628.736" y="819.2" type="curve" smooth="yes"/>
      <point x="816.644" y="819.2"/>
      <point x="946.176" y="675.88"/>
      <point x="946.176" y="467.968" type="curve" smooth="yes"/>
      <point x="946.176" y="251.164"/>
      <point x="806.443" y="98.304"/>
      <point x="608.256" y="98.304" type="curve" smooth="yes"/>
      <point x="430.014" y="98.304"/>
      <point x="312.087" y="209.4"/>
      <point x="272.384" y="414.72" type="curve"/>
    </contour>
  </outline>
</glyph>
<glyph name="six" format="2">
  <advance width="1229"/>
  <unicode hex="0036"/>
  <outline>
    <contour>
      <point x="606" y="-20" type="curve" smooth="yes"/>
      <point x="881" y="-20"/>
      <point x="1080" y="195"/>
      <point x="1080" y="466" type="curve" smooth="yes"/>
      <point x="1080" y="732"/>
      <point x="873" y="912"/>
      <point x="617" y="912" type="curve" smooth="yes"/>
      <point x="566" y="912"/>
      <point x="514" y="906"/>
      <point x="462" y="895" type="curve"/>
      <point x="780" y="1447" type="line"/>
      <point x="634" y="1447" type="line"/>
      <point x="212" y="705" type="line" smooth="yes"/>
      <point x="166" y="623"/>
      <point x="145" y="545"/>
      <point x="145" y="451" type="curve" smooth="yes"/>
      <point x="145" y="197"/>
      <point x="349" y="-20"/>
    </contour>
    <contour>
      <point x="617" y="102" type="curve" smooth="yes"/>
      <point x="428" y="102"/>
      <point x="279" y="264"/>
      <point x="279" y="451" type="curve" smooth="yes"/>
      <point x="279" y="647"/>
      <point x="412" y="799"/>
      <point x="612" y="799" type="curve" smooth="yes"/>
      <point x="803" y="799"/>
      <point x="949" y="651"/>
      <point x="949" y="461" type="curve" smooth="yes"/>
      <point x="949" y="277"/>
      <point x="810" y="102"/>
    </contour>
  </outline>
</glyph>
<glyph name="seven" format="2">
  <advance width="1229"/>
  <unicode hex="0037"/>
  <outline>
    <contour>
      <point x="306.176" y="0" type="line"/>
      <point x="459.776" y="0" type="line"/>
      <point x="1081.34" y="1379.33" type="line"/>
      <point x="1081.34" y="1446.91" type="line"/>
      <point x="137.216" y="1446.91" type="line"/>
      <point x="137.216" y="1327.1" type="line"/>
      <point x="923.648" y="1327.1" type="line"/>
    </contour>
  </outline>
</glyph>
<glyph name="eight" format="2">
  <advance width="1229"/>
  <unicode hex="0038"/>
  <outline>
    <contour>
      <point x="614" y="-20" type="curve" smooth="yes"/>
      <point x="900" y="-20"/>
      <point x="1089" y="142"/>
      <point x="1089" y="389" type="curve" smooth="yes"/>
      <point x="1089" y="576"/>
      <point x="1000" y="707"/>
      <point x="826" y="780" type="curve"/>
      <point x="949" y="846"/>
      <point x="1016" y="959"/>
      <point x="1016" y="1101" type="curve" smooth="yes"/>
      <point x="1016" y="1316"/>
      <point x="850" y="1468"/>
      <point x="616" y="1468" type="curve" smooth="yes"/>
      <point x="379" y="1468"/>
      <point x="211" y="1318"/>
      <point x="211" y="1106" type="curve" smooth="yes"/>
      <point x="211" y="961"/>
      <point x="277" y="849"/>
      <point x="404" y="780" type="curve"/>
      <point x="226" y="703"/>
      <point x="138" y="576"/>
      <point x="138" y="394" type="curve" smooth="yes"/>
      <point x="138" y="143"/>
      <point x="326" y="-20"/>
    </contour>
    <contour>
      <point x="621" y="819" type="curve" smooth="yes"/>
      <point x="455" y="819"/>
      <point x="348" y="928"/>
      <point x="348" y="1097" type="curve" smooth="yes"/>
      <point x="348" y="1242"/>
      <point x="464" y="1352"/>
      <point x="618" y="1352" type="curve" smooth="yes"/>
      <point x="775" y="1352"/>
      <point x="888" y="1239"/>
      <point x="888" y="1082" type="curve" smooth="yes"/>
      <point x="888" y="929"/>
      <point x="776" y="819"/>
    </contour>
    <contour>
      <point x="614" y="91" type="curve" smooth="yes"/>
      <point x="409" y="91"/>
      <point x="271" y="219"/>
      <point x="271" y="407" type="curve" smooth="yes"/>
      <point x="271" y="591"/>
      <point x="413" y="721"/>
      <point x="614" y="721" type="curve" smooth="yes"/>
      <point x="809" y="721"/>
      <point x="950" y="590"/>
      <point x="950" y="407" type="curve" smooth="yes"/>
      <point x="950" y="222"/>
      <point x="811" y="91"/>
    </contour>
  </outline>
</glyph>
<glyph name="nine" format="2">
  <advance width="1229"/>
  <unicode hex="0039"/>
  <outline>
    <contour>
      <point x="442" y="0" type="line"/>
      <point x="587" y="0" type="line"/>
      <point x="1010" y="742" type="line" smooth="yes"/>
      <point x="1056" y="824"/>
      <point x="1075" y="902"/>
      <point x="1075" y="996" type="curve" smooth="yes"/>
      <point x="1075" y="1252"/>
      <point x="868" y="1468"/>
      <point x="610" y="1468" type="curve" smooth="yes"/>
      <point x="336" y="1468"/>
      <point x="140" y="1249"/>
      <point x="140" y="981" type="curve" smooth="yes"/>
      <point x="140" y="716"/>
      <point x="343" y="535"/>
      <point x="608" y="535" type="curve" smooth="yes"/>
      <point x="659" y="535"/>
      <point x="710" y="541"/>
      <point x="759" y="553" type="curve"/>
    </contour>
    <contour>
      <point x="608" y="648" type="curve" smooth="yes"/>
      <point x="418" y="648"/>
      <point x="271" y="795"/>
      <point x="271" y="985" type="curve" smooth="yes"/>
      <point x="271" y="1170"/>
      <point x="409" y="1345"/>
      <point x="603" y="1345" type="curve" smooth="yes"/>
      <point x="792" y="1345"/>
      <point x="942" y="1182"/>
      <point x="942" y="996" type="curve" smooth="yes"/>
      <point x="942" y="802"/>
      <point x="808" y="648"/>
    </contour>
  </outline>
</glyph>
<glyph name="colon" format="2">
  <advance width="614"/>
  <unicode hex="003A"/>
  <outline>
    <contour>
      <point x="435.2" y="794.624" type="line"/>
      <point x="435.2" y="975.872" type="line"/>
      <point x="251.904" y="975.872" type="line"/>
      <point x="251.904" y="794.624" type="line"/>
    </contour>
    <contour>
      <point x="435.2" y="0" type="line"/>
      <point x="435.2" y="181.248" type="line"/>
      <point x="251.904" y="181.248" type="line"/>
      <point x="251.904" y="0" type="line"/>
    </contour>
  </outline>
</glyph>
<glyph name="semicolon" format="2">
  <advance width="614"/>
  <unicode hex="003B"/>
  <outline>
    <contour>
      <point x="449.536" y="794.624" type="line"/>
      <point x="449.536" y="975.872" type="line"/>
      <point x="266.24" y="975.872" type="line"/>
      <point x="266.24" y="794.624" type="line"/>
    </contour>
    <contour>
      <point x="212.992" y="-338.944" type="line"/>
      <point x="460.8" y="267.264" type="line"/>
      <point x="283.648" y="267.264" type="line"/>
      <point x="136.192" y="-338.944" type="line"/>
    </contour>
  </outline>
</glyph>
<glyph name="less" format="2">
  <advance width="1237"/>
  <unicode hex="003C"/>
  <outline>
    <contour>
      <point x="1020" y="178" type="line"/>
      <point x="1081" y="283" type="line"/>
      <point x="340" y="690" type="line"/>
      <point x="1081" y="1096" type="line"/>
      <point x="1020" y="1201" type="line"/>
      <point x="120" y="690" type="line"/>
    </contour>
  </outline>
</glyph>
<glyph name="equal" format="2">
  <advance width="1294"/>
  <unicode hex="003D"/>
  <outline>
    <contour>
      <point x="1027" y="799" type="line"/>
      <point x="1027" y="922" type="line"/>
      <point x="266" y="922" type="line"/>
      <point x="266" y="799" type="line"/>
    </contour>
    <contour>
      <point x="1027" y="454" type="line"/>
      <point x="1027" y="575" type="line"/>
      <point x="266" y="575" type="line"/>
      <point x="266" y="454" type="line"/>
    </contour>
  </outline>
</glyph>
<glyph name="greater" format="2">
  <advance width="1237"/>
  <unicode hex="003E"/>
  <outline>
    <contour>
      <point x="216.064" y="178.176" type="line"/>
      <point x="1116.16" y="690.176" type="line"/>
      <point x="216.064" y="1201.15" type="line"/>
      <point x="155.648" y="1095.68" type="line"/>
      <point x="897.024" y="690.176" type="line"/>
      <point x="155.648" y="282.624" type="line"/>
    </contour>
  </outline>
</glyph>
<glyph name="question" format="2">
  <advance width="1052"/>
  <unicode hex="003F"/>
  <outline>
    <contour>
      <point x="578.56" y="376.832" type="line"/>
      <point x="578.56" y="624.64" type="line" smooth="yes"/>
      <point x="578.56" y="712.704"/>
      <point x="638.976" y="750.592"/>
      <point x="708.608" y="789.504" type="curve" smooth="yes"/>
      <point x="807.936" y="844.8"/>
      <point x="927.744" y="929.792"/>
      <point x="927.744" y="1102.85" type="curve" smooth="yes"/>
      <point x="927.744" y="1342.46"/>
      <point x="732.16" y="1468.42"/>
      <point x="509.952" y="1468.42" type="curve" smooth="yes"/>
      <point x="303.104" y="1468.42"/>
      <point x="105.472" y="1324.03"/>
      <point x="105.472" y="1103.87" type="curve"/>
      <point x="235.52" y="1103.87" type="line"/>
      <point x="235.52" y="1256.45"/>
      <point x="374.784" y="1349.63"/>
      <point x="518.144" y="1349.63" type="curve" smooth="yes"/>
      <point x="670.72" y="1349.63"/>
      <point x="799.744" y="1271.81"/>
      <point x="799.744" y="1105.92" type="curve" smooth="yes"/>
      <point x="799.744" y="969.728"/>
      <point x="724.992" y="917.504"/>
      <point x="645.12" y="871.424" type="curve" smooth="yes"/>
      <point x="553.984" y="819.2"/>
      <point x="456.704" y="756.736"/>
      <point x="456.704" y="626.688" type="curve" smooth="yes"/>
      <point x="456.704" y="376.832" type="line"/>
    </contour>
    <contour>
      <point x="612.352" y="0" type="line"/>
      <point x="612.352" y="181.248" type="line"/>
      <point x="429.056" y="181.248" type="line"/>
      <point x="429.056" y="0" type="line"/>
    </contour>
  </outline>
</glyph>
<glyph name="at" format="2">
  <advance width="2131"/>
  <unicode hex="0040"/>
  <outline>
    <contour>
      <point x="165.888" y="525.312" type="curve" smooth="yes"/>
      <point x="165.888" y="6.144"/>
      <point x="533.504" y="-357.376"/>
      <point x="1057.79" y="-357.376" type="curve" smooth="yes"/>
      <point x="1167.36" y="-357.376"/>
      <point x="1269.76" y="-339.968"/>
      <point x="1364.99" y="-305.152" type="curve"/>
      <point x="1314.82" y="-177.152" type="line"/>
      <point x="1238.02" y="-203.776"/>
      <point x="1150.98" y="-217.088"/>
      <point x="1059.84" y="-217.088" type="curve" smooth="yes"/>
      <point x="607.232" y="-217.088"/>
      <point x="299.008" y="86.016"/>
      <point x="299.008" y="529.408" type="curve" smooth="yes"/>
      <point x="299.008" y="1002.5"/>
      <point x="621.568" y="1336.32"/>
      <point x="1079.3" y="1336.32" type="curve" smooth="yes"/>
      <point x="1518.59" y="1336.32"/>
      <point x="1836.03" y="1014.78"/>
      <point x="1836.03" y="568.32" type="curve" smooth="yes"/>
      <point x="1836.03" y="272.384"/>
      <point x="1707.01" y="77.824"/>
      <point x="1512.45" y="77.824" type="curve" smooth="yes"/>
      <point x="1424.38" y="77.824"/>
      <point x="1369.09" y="143.36"/>
      <point x="1369.09" y="248.832" type="curve" smooth="yes"/>
      <point x="1369.09" y="328.704"/>
      <point x="1380.35" y="412.672"/>
      <point x="1404.93" y="522.24" type="curve" smooth="yes"/>
      <point x="1448.96" y="716.8" type="line" smooth="yes"/>
      <point x="1478.66" y="846.848"/>
      <point x="1500.16" y="937.984"/>
      <point x="1518.59" y="1006.59" type="curve"/>
      <point x="1378.3" y="1006.59" type="line"/>
      <point x="1357.82" y="902.144" type="line"/>
      <point x="1314.82" y="1002.5"/>
      <point x="1213.44" y="1056.77"/>
      <point x="1067.01" y="1056.77" type="curve" smooth="yes"/>
      <point x="800.768" y="1056.77"/>
      <point x="575.488" y="776.192"/>
      <point x="575.488" y="444.416" type="curve" smooth="yes"/>
      <point x="575.488" y="218.112"/>
      <point x="701.44" y="72.704"/>
      <point x="897.024" y="72.704" type="curve" smooth="yes"/>
      <point x="1040.38" y="72.704"/>
      <point x="1162.24" y="132.096"/>
      <point x="1249.28" y="243.712" type="curve"/>
      <point x="1222.66" y="77.824"/>
      <point x="1338.37" y="-49.152"/>
      <point x="1516.54" y="-49.152" type="curve" smooth="yes"/>
      <point x="1785.86" y="-49.152"/>
      <point x="1970.18" y="204.8"/>
      <point x="1970.18" y="575.488" type="curve" smooth="yes"/>
      <point x="1970.18" y="1091.58"/>
      <point x="1595.39" y="1466.37"/>
      <point x="1079.3" y="1466.37" type="curve" smooth="yes"/>
      <point x="550.912" y="1466.37"/>
      <point x="165.888" y="1070.08"/>
    </contour>
    <contour>
      <point x="933.888" y="211.968" type="curve" smooth="yes"/>
      <point x="796.672" y="211.968"/>
      <point x="728.064" y="293.888"/>
      <point x="728.064" y="455.68" type="curve" smooth="yes"/>
      <point x="728.064" y="719.872"/>
      <point x="894.976" y="942.08"/>
      <point x="1094.66" y="942.08" type="curve" smooth="yes"/>
      <point x="1226.75" y="942.08"/>
      <point x="1298.43" y="857.088"/>
      <point x="1298.43" y="699.392" type="curve" smooth="yes"/>
      <point x="1298.43" y="434.176"/>
      <point x="1132.54" y="211.968"/>
    </contour>
  </outline>
</glyph>
<glyph name="A" format="2">
  <advance width="1331"/>
  <unicode hex="0041"/>
  <anchor x="670" y="1620" name="top"/>
  <anchor x="1254" y="0" name="ogonek"/>
  <anchor x="670" y="1549" name="center"/>
  <anchor x="670" y="-150" name="bottom"/>
  <outline>
    <contour>
      <point x="77" y="0" type="line" name=".av02"/>
      <point x="229" y="0" type="line"/>
      <point x="690" y="1272" type="line"/>
      <point x="650" y="1272" type="line"/>
      <point x="1105" y="0" type="line"/>
      <point x="1254" y="0" type="line" name=".av01"/>
      <point x="722" y="1448" type="line"/>
      <point x="613" y="1448" type="line"/>
    </contour>
    <contour>
      <point x="309" y="375" type="line" name=".dv01"/>
      <point x="1025" y="375" type="line"/>
      <point x="978" y="495" type="line" name=".av03"/>
      <point x="355" y="495" type="line" name=".dv02"/>
    </contour>
  </outline>
</glyph>
<glyph name="B" format="2">
  <advance width="1269"/>
  <unicode hex="0042"/>
  <outline>
    <contour>
      <point x="225.28" y="0" type="line"/>
      <point x="681.984" y="0" type="line" smooth="yes"/>
      <point x="970.752" y="0"/>
      <point x="1138.69" y="139.264"/>
      <point x="1138.69" y="378.88" type="curve" smooth="yes"/>
      <point x="1138.69" y="592.896"/>
      <point x="1040.38" y="723.968"/>
      <point x="839.68" y="777.216" type="curve"/>
      <point x="841.728" y="747.52" type="line"/>
      <point x="995.328" y="807.936"/>
      <point x="1067.01" y="919.552"/>
      <point x="1067.01" y="1095.68" type="curve" smooth="yes"/>
      <point x="1067.01" y="1311.74"/>
      <point x="888.832" y="1447.94"/>
      <point x="604.16" y="1447.94" type="curve" smooth="yes"/>
      <point x="225.28" y="1447.94" type="line"/>
    </contour>
    <contour>
      <point x="360.448" y="797.696" type="line"/>
      <point x="360.448" y="1323.01" type="line"/>
      <point x="606.208" y="1323.01" type="line" smooth="yes"/>
      <point x="814.08" y="1323.01"/>
      <point x="915.456" y="1240.06"/>
      <point x="915.456" y="1073.15" type="curve" smooth="yes"/>
      <point x="915.456" y="900.096"/>
      <point x="797.696" y="797.696"/>
      <point x="599.04" y="797.696" type="curve" smooth="yes"/>
    </contour>
    <contour>
      <point x="360.448" y="128" type="line"/>
      <point x="360.448" y="670.72" type="line"/>
      <point x="691.2" y="670.72" type="line" smooth="yes"/>
      <point x="894.976" y="670.72"/>
      <point x="1000.45" y="573.44"/>
      <point x="1000.45" y="384" type="curve" smooth="yes"/>
      <point x="1000.45" y="214.016"/>
      <point x="893.952" y="128"/>
      <point x="686.08" y="128" type="curve" smooth="yes"/>
    </contour>
  </outline>
</glyph>
<glyph name="C" format="2">
  <advance width="1453"/>
  <unicode hex="0043"/>
  <anchor x="776.192" y="1617.92" name="top"/>
  <outline>
    <contour>
      <point x="777.216" y="-20.48" type="curve" smooth="yes"/>
      <point x="1042.43" y="-20.48"/>
      <point x="1248.26" y="117.76"/>
      <point x="1354.75" y="358.4" type="curve"/>
      <point x="1226.75" y="415.744" type="line"/>
      <point x="1158.14" y="206.848"/>
      <point x="990.208" y="110.592"/>
      <point x="777.216" y="110.592" type="curve" smooth="yes"/>
      <point x="412.672" y="110.592"/>
      <point x="280.576" y="413.696"/>
      <point x="280.576" y="734.208" type="curve" smooth="yes"/>
      <point x="280.576" y="1048.58"/>
      <point x="419.84" y="1337.34"/>
      <point x="773.12" y="1337.34" type="curve" smooth="yes"/>
      <point x="980.992" y="1337.34"/>
      <point x="1163.26" y="1246.21"/>
      <point x="1225.73" y="1036.29" type="curve"/>
      <point x="1352.7" y="1092.61" type="line"/>
      <point x="1243.14" y="1338.37"/>
      <point x="1044.48" y="1468.46"/>
      <point x="775.168" y="1468.46" type="curve" smooth="yes"/>
      <point x="336.896" y="1468.46"/>
      <point x="137.216" y="1124.35"/>
      <point x="137.216" y="723.968" type="curve" smooth="yes"/>
      <point x="137.216" y="319.488"/>
      <point x="335.872" y="-20.48"/>
    </contour>
  </outline>
  <guideline angle="90" name="vertical" x="776.192" y="0"/>
</glyph>
<glyph name="D" format="2">
  <advance width="1442"/>
  <unicode hex="0044"/>
  <outline>
    <contour>
      <point x="225.28" y="0" type="line"/>
      <point x="580.608" y="0" type="line" smooth="yes"/>
      <point x="1038.34" y="0"/>
      <point x="1307.65" y="249.856"/>
      <point x="1307.65" y="712.704" type="curve" smooth="yes"/>
      <point x="1307.65" y="1178.62"/>
      <point x="1052.67" y="1447.94"/>
      <point x="582.656" y="1447.94" type="curve" smooth="yes"/>
      <point x="225.28" y="1447.94" type="line"/>
    </contour>
    <contour>
      <point x="365.568" y="126.976" type="line"/>
      <point x="365.568" y="1324.03" type="line"/>
      <point x="578.56" y="1324.03" type="line" smooth="yes"/>
      <point x="963.584" y="1324.03"/>
      <point x="1167.36" y="1104.9"/>
      <point x="1167.36" y="723.968" type="curve" smooth="yes"/>
      <point x="1167.36" y="347.136"/>
      <point x="928.768" y="126.976"/>
      <point x="556.032" y="126.976" type="curve" smooth="yes"/>
    </contour>
  </outline>
</glyph>
<glyph name="E" format="2">
  <advance width="1270"/>
  <unicode hex="0045"/>
  <anchor x="690" y="1617.92" name="top"/>
  <anchor x="1156" y="0" name="ogonek"/>
  <outline>
    <contour>
      <point x="1156.1" y="0" type="line"/>
      <point x="1156.1" y="125.952" type="line"/>
      <point x="365.568" y="125.952" type="line"/>
      <point x="365.568" y="668.672" type="line"/>
      <point x="1043.46" y="668.672" type="line"/>
      <point x="1043.46" y="781.312" type="line"/>
      <point x="365.568" y="781.312" type="line"/>
      <point x="365.568" y="1330.18" type="line"/>
      <point x="1156.1" y="1330.18" type="line"/>
      <point x="1156.1" y="1447.94" type="line"/>
      <point x="225.28" y="1447.94" type="line"/>
      <point x="225.28" y="0" type="line"/>
    </contour>
  </outline>
  <guideline angle="90" name="vertical" x="690" y="0"/>
</glyph>
<glyph name="F" format="2">
  <advance width="1219"/>
  <unicode hex="0046"/>
  <outline>
    <contour>
      <point x="365.568" y="0" type="line"/>
      <point x="365.568" y="668.672" type="line"/>
      <point x="1042.43" y="668.672" type="line"/>
      <point x="1042.43" y="781.312" type="line"/>
      <point x="365.568" y="781.312" type="line"/>
      <point x="365.568" y="1330.18" type="line"/>
      <point x="1132.54" y="1330.18" type="line"/>
      <point x="1132.54" y="1447.94" type="line"/>
      <point x="225.28" y="1447.94" type="line"/>
      <point x="225.28" y="0" type="line"/>
    </contour>
  </outline>
</glyph>
<glyph name="G" format="2">
  <advance width="1543"/>
  <unicode hex="0047"/>
  <anchor x="787" y="1617.92" name="top"/>
  <outline>
    <contour>
      <point x="777" y="-20" type="curve" smooth="yes"/>
      <point x="1004" y="-20"/>
      <point x="1194" y="99"/>
      <point x="1262" y="285" type="curve"/>
      <point x="1260" y="0" type="line"/>
      <point x="1376" y="0" type="line"/>
      <point x="1376" y="720" type="line"/>
      <point x="914" y="720" type="line"/>
      <point x="914" y="612" type="line"/>
      <point x="1247" y="612" type="line"/>
      <point x="1247" y="314"/>
      <point x="1056" y="111"/>
      <point x="777" y="111" type="curve" smooth="yes"/>
      <point x="457" y="111"/>
      <point x="279" y="328"/>
      <point x="279" y="724" type="curve" smooth="yes"/>
      <point x="279" y="1113"/>
      <point x="460" y="1337"/>
      <point x="773" y="1337" type="curve" smooth="yes"/>
      <point x="971" y="1337"/>
      <point x="1136" y="1227"/>
      <point x="1224" y="1037" type="curve"/>
      <point x="1353" y="1095" type="line"/>
      <point x="1242" y="1341"/>
      <point x="1044" y="1468"/>
      <point x="775" y="1468" type="curve" smooth="yes"/>
      <point x="371" y="1468"/>
      <point x="137" y="1195"/>
      <point x="137" y="724" type="curve" smooth="yes"/>
      <point x="137" y="249"/>
      <point x="369" y="-20"/>
    </contour>
  </outline>
  <guideline angle="90" name="vertical" x="787" y="0"/>
</glyph>
<glyph name="H" format="2">
  <advance width="1485"/>
  <unicode hex="0048"/>
  <anchor x="742.4" y="1617.92" name="top"/>
  <outline>
    <contour>
      <point x="1260.54" y="0" type="line"/>
      <point x="1260.54" y="1447.94" type="line"/>
      <point x="1120.26" y="1447.94" type="line"/>
      <point x="1120.26" y="780.288" type="line"/>
      <point x="364.544" y="780.288" type="line"/>
      <point x="364.544" y="1447.94" type="line"/>
      <point x="225.28" y="1447.94" type="line"/>
      <point x="225.28" y="0" type="line"/>
      <point x="364.544" y="0" type="line"/>
      <point x="364.544" y="667.648" type="line"/>
      <point x="1120.26" y="667.648" type="line"/>
      <point x="1120.26" y="0" type="line"/>
    </contour>
  </outline>
  <guideline angle="90" name="vertical" x="742.4" y="0"/>
</glyph>
<glyph name="I" format="2">
  <advance width="590"/>
  <unicode hex="0049"/>
  <anchor x="295" y="1618" name="top"/>
  <anchor x="365" y="0" name="ogonek"/>
  <outline>
    <contour>
      <point x="365" y="0" type="line"/>
      <point x="365" y="1448" type="line"/>
      <point x="225" y="1448" type="line"/>
      <point x="225" y="0" type="line"/>
    </contour>
  </outline>
</glyph>
<glyph name="J" format="2">
  <advance width="1144"/>
  <unicode hex="004A"/>
  <anchor x="872" y="1617.92" name="top"/>
  <outline>
    <contour>
      <point x="83" y="394" type="line" name=".sh01"/>
      <point x="99" y="137"/>
      <point x="267" y="-20"/>
      <point x="524" y="-20" type="curve" smooth="yes" name=".sv01"/>
      <point x="841" y="-20"/>
      <point x="942" y="237"/>
      <point x="942" y="512" type="curve" smooth="yes"/>
      <point x="942" y="1448" type="line" name=".sh02"/>
      <point x="802" y="1448" type="line" name=".ah01"/>
      <point x="802" y="485" type="line" smooth="yes"/>
      <point x="802" y="278"/>
      <point x="751" y="99"/>
      <point x="508" y="99" type="curve" smooth="yes" name=".av01"/>
      <point x="328" y="99"/>
      <point x="227" y="246"/>
      <point x="219" y="413" type="curve" name=".sh03"/>
    </contour>
  </outline>
</glyph>
<glyph name="K" format="2">
  <advance width="1482"/>
  <unicode hex="004B"/>
  <outline>
    <contour>
      <point x="1400" y="0" type="line"/>
      <point x="825" y="882" type="line"/>
      <point x="1365" y="1448" type="line"/>
      <point x="1184" y="1448" type="line"/>
      <point x="366" y="580" type="line"/>
      <point x="366" y="1448" type="line"/>
      <point x="225" y="1448" type="line"/>
      <point x="225" y="0" type="line"/>
      <point x="366" y="0" type="line"/>
      <point x="366" y="403" type="line"/>
      <point x="729" y="779" type="line"/>
      <point x="1233" y="0" type="line"/>
    </contour>
  </outline>
</glyph>
<glyph name="L" format="2">
  <advance width="1058"/>
  <unicode hex="004C"/>
  <anchor x="294.912" y="1617.92" name="top"/>
  <anchor x="824" y="774" name="center"/>
  <outline>
    <contour>
      <point x="985.088" y="0" type="line"/>
      <point x="985.088" y="125.952" type="line"/>
      <point x="365.568" y="125.952" type="line"/>
      <point x="365.568" y="1447.91" type="line"/>
      <point x="225.28" y="1447.91" type="line"/>
      <point x="225.28" y="0" type="line"/>
    </contour>
  </outline>
  <guideline angle="90" name="vertical" x="294.912" y="0"/>
  <guideline angle="90" x="985" y="0"/>
</glyph>
<glyph name="M" format="2">
  <advance width="1800"/>
  <unicode hex="004D"/>
  <outline>
    <contour>
      <point x="1575.94" y="0" type="line"/>
      <point x="1575.94" y="1447.91" type="line"/>
      <point x="1340.42" y="1447.91" type="line"/>
      <point x="896" y="251.904" type="line"/>
      <point x="459.776" y="1447.91" type="line"/>
      <point x="225.28" y="1447.91" type="line"/>
      <point x="225.28" y="0" type="line"/>
      <point x="366.592" y="0" type="line"/>
      <point x="366.592" y="1337.32" type="line"/>
      <point x="820.224" y="125.952" type="line"/>
      <point x="979.968" y="125.952" type="line"/>
      <point x="1435.65" y="1337.32" type="line"/>
      <point x="1435.65" y="0" type="line"/>
    </contour>
  </outline>
</glyph>
<glyph name="N" format="2">
  <advance width="1447"/>
  <unicode hex="004E"/>
  <anchor x="742" y="1617.92" name="top"/>
  <outline>
    <contour>
      <point x="1223" y="0" type="line"/>
      <point x="1223" y="1448" type="line"/>
      <point x="1082" y="1448" type="line"/>
      <point x="1082" y="104" type="line"/>
      <point x="1095" y="107" type="line"/>
      <point x="442" y="1448" type="line"/>
      <point x="225" y="1448" type="line"/>
      <point x="225" y="0" type="line"/>
      <point x="367" y="0" type="line"/>
      <point x="367" y="1345" type="line"/>
      <point x="354" y="1342" type="line"/>
      <point x="1001" y="0" type="line"/>
    </contour>
  </outline>
</glyph>
<glyph name="O" format="2">
  <advance width="1574"/>
  <unicode hex="004F"/>
  <anchor x="787" y="1617.92" name="top"/>
  <anchor x="908.288" y="0" name="ogonek"/>
  <anchor x="1546" y="1448" name="horn"/>
  <outline>
    <contour>
      <point x="787.192" y="-20.48" type="curve" smooth="yes" name=".dv01"/>
      <point x="1181.93" y="-20.48"/>
      <point x="1436.19" y="263.595"/>
      <point x="1436.19" y="723.968" type="curve" smooth="yes" name=".dh04"/>
      <point x="1436.19" y="1184.29"/>
      <point x="1181.89" y="1468.42"/>
      <point x="787.216" y="1468.42" type="curve" smooth="yes" name=".dv04"/>
      <point x="392.497" y="1468.42"/>
      <point x="137.216" y="1183.6"/>
      <point x="137.216" y="723.968" type="curve" smooth="yes" name=".dh01"/>
      <point x="137.216" y="264.288"/>
      <point x="392.45" y="-20.48"/>
    </contour>
    <contour>
      <point x="787.192" y="110.592" type="curve" smooth="yes" name=".dv02"/>
      <point x="476.41" y="110.592"/>
      <point x="279.552" y="340.441"/>
      <point x="279.552" y="724.088" type="curve" smooth="yes" name=".dh02"/>
      <point x="279.552" y="1107.35"/>
      <point x="476.554" y="1337.3"/>
      <point x="787.144" y="1337.3" type="curve" smooth="yes" name=".dv03"/>
      <point x="1097.29" y="1337.3"/>
      <point x="1293.88" y="1107.47"/>
      <point x="1293.88" y="724.088" type="curve" smooth="yes" name=".dh03"/>
      <point x="1293.88" y="340.342"/>
      <point x="1097.46" y="110.592"/>
    </contour>
  </outline>
  <guideline angle="90" name="vertical" x="787" y="0"/>
  <guideline angle="0" x="0" y="723.968"/>
</glyph>
<glyph name="P" format="2">
  <advance width="1174"/>
  <unicode hex="0050"/>
  <outline>
    <contour>
      <point x="225" y="0" type="line"/>
      <point x="365" y="0" type="line"/>
      <point x="365" y="665" type="line"/>
      <point x="542" y="665" type="line" smooth="yes"/>
      <point x="806" y="665"/>
      <point x="1073" y="721"/>
      <point x="1073" y="1054" type="curve" smooth="yes"/>
      <point x="1073" y="1319"/>
      <point x="866" y="1448"/>
      <point x="621" y="1448" type="curve" smooth="yes"/>
      <point x="225" y="1448" type="line"/>
    </contour>
    <contour>
      <point x="365" y="786" type="line"/>
      <point x="365" y="1326" type="line"/>
      <point x="621" y="1326" type="line" smooth="yes"/>
      <point x="794" y="1326"/>
      <point x="935" y="1242"/>
      <point x="935" y="1054" type="curve" smooth="yes"/>
      <point x="935" y="858"/>
      <point x="799" y="786"/>
      <point x="621" y="786" type="curve" smooth="yes"/>
    </contour>
  </outline>
</glyph>
<glyph name="Q" format="2">
  <advance width="1580"/>
  <unicode hex="0051"/>
  <outline>
    <component base="O"/>
    <contour>
      <point x="1096.09" y="182.227" type="line"/>
      <point x="1180.11" y="272.395" type="line"/>
      <point x="953.344" y="504.832" type="line"/>
      <point x="871.424" y="413.696" type="line"/>
    </contour>
    <contour>
      <point x="1150.64" y="130.16" type="line"/>
      <point x="1368.06" y="-95.232" type="line"/>
      <point x="1454.08" y="-6.144" type="line"/>
      <point x="1235.52" y="218.112" type="line"/>
    </contour>
  </outline>
</glyph>
<glyph name="R" format="2">
  <advance width="1241"/>
  <unicode hex="0052"/>
  <outline>
    <contour>
      <point x="225" y="0" type="line"/>
      <point x="366" y="0" type="line"/>
      <point x="366" y="656" type="line"/>
      <point x="618" y="656" type="line"/>
      <point x="982" y="0" type="line"/>
      <point x="1148" y="0" type="line"/>
      <point x="757" y="677" type="line"/>
      <point x="946" y="710"/>
      <point x="1071" y="857"/>
      <point x="1071" y="1050" type="curve" smooth="yes"/>
      <point x="1071" y="1305"/>
      <point x="867" y="1448"/>
      <point x="627" y="1448" type="curve" smooth="yes"/>
      <point x="225" y="1448" type="line"/>
    </contour>
    <contour>
      <point x="368" y="791" type="line"/>
      <point x="368" y="1325" type="line"/>
      <point x="629" y="1325" type="line" smooth="yes"/>
      <point x="796" y="1325"/>
      <point x="935" y="1230"/>
      <point x="935" y="1052" type="curve" smooth="yes"/>
      <point x="935" y="892"/>
      <point x="808" y="791"/>
      <point x="654" y="791" type="curve" smooth="yes"/>
    </contour>
  </outline>
</glyph>
<glyph name="S" format="2">
  <advance width="1134"/>
  <unicode hex="0053"/>
  <anchor x="560.128" y="1617.92" name="top"/>
  <outline>
    <contour>
      <point x="94.208" y="360.448" type="line"/>
      <point x="135.168" y="113.664"/>
      <point x="344.064" y="-16.384"/>
      <point x="582.656" y="-16.384" type="curve" smooth="yes"/>
      <point x="827.392" y="-16.384"/>
      <point x="1022.98" y="139.264"/>
      <point x="1022.98" y="394.24" type="curve" smooth="yes"/>
      <point x="1022.98" y="635.904"/>
      <point x="823.296" y="729.088"/>
      <point x="637.952" y="816.128" type="curve" smooth="yes"/>
      <point x="476.16" y="891.904"/>
      <point x="324.608" y="962.56"/>
      <point x="324.608" y="1123.33" type="curve" smooth="yes"/>
      <point x="324.608" y="1260.54"/>
      <point x="438.272" y="1349.63"/>
      <point x="569.344" y="1349.63" type="curve" smooth="yes"/>
      <point x="695.296" y="1349.63"/>
      <point x="800.768" y="1291.26"/>
      <point x="862.208" y="1180.67" type="curve"/>
      <point x="962.56" y="1250.3" type="line"/>
      <point x="873.472" y="1396.74"/>
      <point x="741.376" y="1468.42"/>
      <point x="570.368" y="1468.42" type="curve" smooth="yes"/>
      <point x="362.496" y="1468.42"/>
      <point x="190.464" y="1323.01"/>
      <point x="190.464" y="1108.99" type="curve" smooth="yes"/>
      <point x="190.464" y="887.808"/>
      <point x="378.88" y="798.72"/>
      <point x="560.128" y="713.728" type="curve" smooth="yes"/>
      <point x="727.04" y="634.88"/>
      <point x="887.808" y="559.104"/>
      <point x="887.808" y="384" type="curve" smooth="yes"/>
      <point x="887.808" y="192.512"/>
      <point x="762.88" y="107.52"/>
      <point x="582.656" y="107.52" type="curve" smooth="yes"/>
      <point x="401.408" y="107.52"/>
      <point x="243.712" y="210.944"/>
      <point x="222.208" y="400.384" type="curve"/>
    </contour>
  </outline>
  <guideline angle="90" name="vertical" x="560.128" y="0"/>
</glyph>
<glyph name="T" format="2">
  <advance width="1277"/>
  <unicode hex="0054"/>
  <anchor x="623" y="0" name="cedilla"/>
  <outline>
    <contour>
      <point x="567" y="0" type="line"/>
      <point x="710" y="0" type="line"/>
      <point x="710" y="1337" type="line"/>
      <point x="1206" y="1337" type="line"/>
      <point x="1206" y="1448" type="line"/>
      <point x="71" y="1448" type="line"/>
      <point x="71" y="1337" type="line"/>
      <point x="567" y="1337" type="line"/>
    </contour>
  </outline>
</glyph>
<glyph name="U" format="2">
  <advance width="1382"/>
  <unicode hex="0055"/>
  <anchor x="692" y="1618" name="top"/>
  <anchor x="825" y="0" name="ogonek"/>
  <anchor x="1414" y="1448" name="horn"/>
  <outline>
    <contour>
      <point x="690" y="-20" type="curve" smooth="yes" name=".dv01"/>
      <point x="1022" y="-20"/>
      <point x="1186" y="224"/>
      <point x="1186" y="534" type="curve" smooth="yes"/>
      <point x="1186" y="1448" type="line" name=".av01"/>
      <point x="1047" y="1448" type="line" name=".ah01"/>
      <point x="1047" y="572" type="line" smooth="yes"/>
      <point x="1047" y="330"/>
      <point x="973" y="110"/>
      <point x="690" y="110" type="curve" smooth="yes" name=".dv02"/>
      <point x="408" y="110"/>
      <point x="338" y="331"/>
      <point x="338" y="572" type="curve" smooth="yes"/>
      <point x="338" y="1448" type="line" name=".av02"/>
      <point x="198" y="1448" type="line" name=".sh01"/>
      <point x="198" y="523" type="line" smooth="yes"/>
      <point x="198" y="212"/>
      <point x="360" y="-20"/>
    </contour>
  </outline>
</glyph>
<glyph name="V" format="2">
  <advance width="1354"/>
  <unicode hex="0056"/>
  <outline>
    <contour>
      <point x="742.4" y="0" type="line"/>
      <point x="1276.93" y="1447.91" type="line"/>
      <point x="1132.54" y="1447.91" type="line"/>
      <point x="678.912" y="172.032" type="line"/>
      <point x="225.28" y="1447.91" type="line"/>
      <point x="76.8" y="1447.91" type="line"/>
      <point x="615.424" y="0" type="line"/>
    </contour>
  </outline>
</glyph>
<glyph name="W" format="2">
  <advance width="2018"/>
  <unicode hex="0057"/>
  <anchor x="1011" y="1618" name="top"/>
  <outline>
    <contour>
      <point x="1529" y="0" type="line"/>
      <point x="1931" y="1448" type="line"/>
      <point x="1788" y="1448" type="line"/>
      <point x="1438" y="160" type="line"/>
      <point x="1066" y="1448" type="line"/>
      <point x="952" y="1448" type="line"/>
      <point x="583" y="160" type="line"/>
      <point x="229" y="1448" type="line"/>
      <point x="88" y="1448" type="line"/>
      <point x="488" y="0" type="line"/>
      <point x="655" y="0" type="line"/>
      <point x="1011" y="1218" type="line"/>
      <point x="1363" y="0" type="line"/>
    </contour>
  </outline>
</glyph>
<glyph name="X" format="2">
  <advance width="1275"/>
  <unicode hex="0058"/>
  <outline>
    <contour>
      <point x="1188" y="0" type="line"/>
      <point x="714" y="724" type="line"/>
      <point x="1186" y="1448" type="line"/>
      <point x="1025" y="1448" type="line"/>
      <point x="639" y="836" type="line"/>
      <point x="254" y="1448" type="line"/>
      <point x="88" y="1448" type="line"/>
      <point x="565" y="724" type="line"/>
      <point x="86" y="0" type="line"/>
      <point x="252" y="0" type="line"/>
      <point x="636" y="600" type="line"/>
      <point x="1027" y="0" type="line"/>
    </contour>
  </outline>
</glyph>
<glyph name="Y" format="2">
  <advance width="1349"/>
  <unicode hex="0059"/>
  <anchor x="674" y="1618" name="top"/>
  <outline>
    <contour>
      <point x="742" y="0" type="line"/>
      <point x="742" y="566" type="line"/>
      <point x="1282" y="1448" type="line"/>
      <point x="1121" y="1448" type="line"/>
      <point x="674" y="711" type="line"/>
      <point x="228" y="1448" type="line"/>
      <point x="67" y="1448" type="line"/>
      <point x="608" y="566" type="line"/>
      <point x="608" y="0" type="line"/>
    </contour>
  </outline>
</glyph>
<glyph name="Z" format="2">
  <advance width="1307"/>
  <unicode hex="005A"/>
  <anchor x="670.72" y="1617.92" name="top"/>
  <outline>
    <contour>
      <point x="1199.1" y="0" type="line"/>
      <point x="1199.1" y="126.976" type="line"/>
      <point x="261.12" y="126.976" type="line"/>
      <point x="1199.1" y="1327.08" type="line"/>
      <point x="1199.1" y="1447.91" type="line"/>
      <point x="142.336" y="1447.91" type="line"/>
      <point x="142.336" y="1330.15" type="line"/>
      <point x="1038.34" y="1330.15" type="line"/>
      <point x="96.256" y="113.664" type="line"/>
      <point x="96.256" y="0" type="line"/>
    </contour>
  </outline>
  <guideline angle="90" name="vertical" x="670.72" y="0"/>
</glyph>
<glyph name="bracketleft" format="2">
  <advance width="648"/>
  <unicode hex="005B"/>
  <outline>
    <contour>
      <point x="570.368" y="-80.896" type="line"/>
      <point x="570.368" y="-3.072" type="line"/>
      <point x="327.68" y="-3.072" type="line"/>
      <point x="327.68" y="1449.98" type="line"/>
      <point x="570.368" y="1449.98" type="line"/>
      <point x="570.368" y="1525.76" type="line"/>
      <point x="216.064" y="1525.76" type="line"/>
      <point x="216.064" y="-80.896" type="line"/>
    </contour>
  </outline>
</glyph>
<glyph name="backslash" format="2">
  <advance width="949"/>
  <unicode hex="005C"/>
  <outline>
    <contour>
      <point x="926.72" y="-441.344" type="line"/>
      <point x="161.792" y="1552.38" type="line"/>
      <point x="22.528" y="1552.38" type="line"/>
      <point x="789.504" y="-441.344" type="line"/>
    </contour>
  </outline>
</glyph>
<glyph name="bracketright" format="2">
  <advance width="647"/>
  <unicode hex="005D"/>
  <outline>
    <contour>
      <point x="430.08" y="-80.896" type="line"/>
      <point x="430.08" y="1525.76" type="line"/>
      <point x="76.8" y="1525.76" type="line"/>
      <point x="76.8" y="1449.98" type="line"/>
      <point x="318.464" y="1449.98" type="line"/>
      <point x="318.464" y="-3.072" type="line"/>
      <point x="76.8" y="-3.072" type="line"/>
      <point x="76.8" y="-80.896" type="line"/>
    </contour>
  </outline>
</glyph>
<glyph name="asciicircum" format="2">
  <advance width="998"/>
  <unicode hex="005E"/>
  <outline>
    <contour>
      <point x="858" y="868" type="line"/>
      <point x="498" y="1446" type="line"/>
      <point x="142" y="868" type="line"/>
      <point x="284" y="868" type="line"/>
      <point x="498" y="1219" type="line"/>
      <point x="717" y="868" type="line"/>
    </contour>
  </outline>
</glyph>
<glyph name="underscore" format="2">
  <advance width="1266"/>
  <unicode hex="005F"/>
  <outline>
    <contour>
      <point x="1023" y="-102" type="line"/>
      <point x="1023" y="-3" type="line"/>
      <point x="242" y="-3" type="line"/>
      <point x="242" y="-102" type="line"/>
    </contour>
  </outline>
</glyph>
<glyph name="grave" format="2">
  <advance width="550"/>
  <unicode hex="0060"/>
  <outline>
    <contour>
      <point x="466" y="1192" type="line"/>
      <point x="247" y="1487" type="line"/>
      <point x="68" y="1487" type="line"/>
      <point x="332" y="1192" type="line"/>
    </contour>
  </outline>
</glyph>
<glyph name="a" format="2">
  <advance width="1066"/>
  <unicode hex="0061"/>
  <anchor x="513" y="1191.94" name="top"/>
  <anchor x="916" y="0" name="ogonek"/>
  <anchor x="513" y="1372" name="center"/>
  <anchor x="513" y="-150" name="bottom"/>
  <outline>
    <contour>
      <point x="421.888" y="-20.48" type="curve" smooth="yes" name=".dv01"/>
      <point x="596.992" y="-20.48"/>
      <point x="730.112" y="62.464"/>
      <point x="804.864" y="221.184" type="curve" name=".sh01"/>
      <point x="804.864" y="0" type="line"/>
      <point x="916.48" y="0" type="line"/>
      <point x="916.48" y="654.336" type="line" smooth="yes" name=".dh03"/>
      <point x="916.48" y="911.36"/>
      <point x="777.216" y="1084.42"/>
      <point x="513.024" y="1084.42" type="curve" smooth="yes" name=".dv06"/>
      <point x="352.256" y="1084.42"/>
      <point x="220.16" y="1020.93"/>
      <point x="125.952" y="888.832" type="curve"/>
      <point x="219.136" y="811.008" type="line"/>
      <point x="289.792" y="916.48"/>
      <point x="397.312" y="971.776"/>
      <point x="524.288" y="971.776" type="curve" smooth="yes" name=".dv05"/>
      <point x="747.52" y="971.776"/>
      <point x="799.744" y="788.48"/>
      <point x="799.744" y="600.064" type="curve" name=".av01"/>
      <point x="561.152" y="600.064" type="line" smooth="yes" name=".dv04"/>
      <point x="349.184" y="600.064"/>
      <point x="87.04" y="553.984"/>
      <point x="87.04" y="287.744" type="curve" smooth="yes" name=".dh01"/>
      <point x="87.04" y="88.064"/>
      <point x="231.424" y="-20.48"/>
    </contour>
    <contour>
      <point x="434.176" y="88.064" type="curve" smooth="yes" name=".dv02"/>
      <point x="308.224" y="88.064"/>
      <point x="222.208" y="153.6"/>
      <point x="222.208" y="284.672" type="curve" smooth="yes" name=".dh02"/>
      <point x="222.208" y="489.472"/>
      <point x="439.296" y="499.712"/>
      <point x="591.872" y="499.712" type="curve" smooth="yes" name=".dv03"/>
      <point x="799.744" y="499.712" type="line" name=".sh02"/>
      <point x="799.744" y="294.912"/>
      <point x="651.264" y="88.064"/>
    </contour>
  </outline>
  <guideline angle="90" name="vertical" x="513" y="0"/>
</glyph>
<glyph name="b" format="2">
  <advance width="1171"/>
  <unicode hex="0062"/>
  <outline>
    <contour>
      <point x="653" y="-20" type="curve" smooth="yes"/>
      <point x="953" y="-20"/>
      <point x="1072" y="274"/>
      <point x="1072" y="531" type="curve" smooth="yes"/>
      <point x="1072" y="787"/>
      <point x="952" y="1084"/>
      <point x="653" y="1084" type="curve" smooth="yes"/>
      <point x="509" y="1084"/>
      <point x="397" y="1025"/>
      <point x="316" y="907" type="curve"/>
      <point x="316" y="1448" type="line"/>
      <point x="188" y="1448" type="line"/>
      <point x="188" y="0" type="line"/>
      <point x="316" y="0" type="line"/>
      <point x="316" y="154" type="line"/>
      <point x="397" y="32"/>
      <point x="510" y="-20"/>
    </contour>
    <contour>
      <point x="620" y="91" type="curve" smooth="yes"/>
      <point x="382" y="91"/>
      <point x="305" y="333"/>
      <point x="305" y="531" type="curve" smooth="yes"/>
      <point x="305" y="725"/>
      <point x="381" y="971"/>
      <point x="615" y="971" type="curve" smooth="yes"/>
      <point x="856" y="971"/>
      <point x="943" y="736"/>
      <point x="943" y="531" type="curve" smooth="yes"/>
      <point x="943" y="330"/>
      <point x="857" y="91"/>
    </contour>
  </outline>
</glyph>
<glyph name="c" format="2">
  <advance width="1020"/>
  <unicode hex="0063"/>
  <anchor x="550.912" y="1191.94" name="top"/>
  <outline>
    <contour>
      <point x="556.032" y="-20.48" type="curve" smooth="yes"/>
      <point x="743.424" y="-20.48"/>
      <point x="877.568" y="74.752"/>
      <point x="943.104" y="249.856" type="curve"/>
      <point x="827.392" y="303.104" type="line"/>
      <point x="789.504" y="181.248"/>
      <point x="679.936" y="95.232"/>
      <point x="550.912" y="95.232" type="curve" smooth="yes"/>
      <point x="311.296" y="95.232"/>
      <point x="240.64" y="330.752"/>
      <point x="240.64" y="530.432" type="curve" smooth="yes"/>
      <point x="240.64" y="727.04"/>
      <point x="316.416" y="966.584"/>
      <point x="550.912" y="966.584" type="curve" smooth="yes"/>
      <point x="676.864" y="966.584"/>
      <point x="794.624" y="879.544"/>
      <point x="827.392" y="759.736" type="curve"/>
      <point x="955.392" y="817.08" type="line"/>
      <point x="881.664" y="981.944"/>
      <point x="736.256" y="1084.34"/>
      <point x="553.984" y="1084.34" type="curve" smooth="yes"/>
      <point x="248.832" y="1084.34"/>
      <point x="106.496" y="800.768"/>
      <point x="106.496" y="529.408" type="curve" smooth="yes"/>
      <point x="106.496" y="251.904"/>
      <point x="245.76" y="-20.48"/>
    </contour>
  </outline>
  <guideline angle="90" name="vertical" x="550.912" y="0"/>
</glyph>
<glyph name="d" format="2">
  <advance width="1174"/>
  <unicode hex="0064"/>
  <outline>
    <contour>
      <point x="522.24" y="-20.48" type="curve" smooth="yes"/>
      <point x="673.792" y="-20.48"/>
      <point x="780.288" y="28.672"/>
      <point x="866.304" y="154.624" type="curve"/>
      <point x="867.328" y="0" type="line"/>
      <point x="996.352" y="0" type="line"/>
      <point x="996.352" y="1447.91" type="line"/>
      <point x="866.304" y="1447.91" type="line"/>
      <point x="866.304" y="910.336" type="line"/>
      <point x="785.408" y="1030.14"/>
      <point x="670.72" y="1084.44"/>
      <point x="528.384" y="1084.44" type="curve" smooth="yes"/>
      <point x="229.376" y="1084.44"/>
      <point x="110.592" y="787.456"/>
      <point x="110.592" y="531.456" type="curve" smooth="yes"/>
      <point x="110.592" y="280.576"/>
      <point x="228.352" y="-20.48"/>
    </contour>
    <contour>
      <point x="561.152" y="97.28" type="curve" smooth="yes"/>
      <point x="320.512" y="97.28"/>
      <point x="243.712" y="330.752"/>
      <point x="243.712" y="532.48" type="curve" smooth="yes"/>
      <point x="243.712" y="732.16"/>
      <point x="325.632" y="963.608"/>
      <point x="561.152" y="963.608" type="curve" smooth="yes"/>
      <point x="799.744" y="963.608"/>
      <point x="877.568" y="733.184"/>
      <point x="877.568" y="532.48" type="curve" smooth="yes"/>
      <point x="877.568" y="331.776"/>
      <point x="800.768" y="97.28"/>
    </contour>
  </outline>
</glyph>
<glyph name="e" format="2">
  <advance width="1081"/>
  <unicode hex="0065"/>
  <anchor x="549.888" y="1191.94" name="top"/>
  <anchor x="659" y="0" name="ogonek"/>
  <outline>
    <contour>
      <point x="563.2" y="-12.288" type="curve" smooth="yes"/>
      <point x="731.136" y="-12.288"/>
      <point x="864.256" y="38.912"/>
      <point x="962.56" y="141.312" type="curve"/>
      <point x="874.496" y="215.04" type="line"/>
      <point x="791.552" y="128"/>
      <point x="683.008" y="102.4"/>
      <point x="565.248" y="102.4" type="curve" smooth="yes"/>
      <point x="370.688" y="102.4"/>
      <point x="244.736" y="253.952"/>
      <point x="244.736" y="488.448" type="curve"/>
      <point x="983.04" y="488.448" type="line"/>
      <point x="986.112" y="501.76"/>
      <point x="987.136" y="516.096"/>
      <point x="987.136" y="531.456" type="curve" smooth="yes"/>
      <point x="987.136" y="906.072"/>
      <point x="843.776" y="1084.25"/>
      <point x="549.888" y="1084.25" type="curve" smooth="yes"/>
      <point x="290.816" y="1084.25"/>
      <point x="106.496" y="854.872"/>
      <point x="106.496" y="525.312" type="curve" smooth="yes"/>
      <point x="106.496" y="203.776"/>
      <point x="289.792" y="-12.288"/>
    </contour>
    <contour>
      <point x="244.736" y="601.088" type="line"/>
      <point x="254.976" y="827.224"/>
      <point x="372.736" y="965.464"/>
      <point x="549.888" y="965.464" type="curve" smooth="yes"/>
      <point x="742.4" y="965.464"/>
      <point x="866.304" y="826.2"/>
      <point x="866.304" y="601.088" type="curve"/>
    </contour>
  </outline>
  <guideline angle="90" name="vertical" x="549.888" y="0"/>
</glyph>
<glyph name="f" format="2">
  <advance width="713"/>
  <unicode hex="0066"/>
  <outline>
    <contour>
      <point x="231.996" y="0" type="line"/>
      <point x="371.996" y="0" type="line"/>
      <point x="371.996" y="958.464" type="line"/>
      <point x="678.912" y="958.464" type="line"/>
      <point x="678.912" y="1063.94" type="line"/>
      <point x="371.996" y="1063.94" type="line"/>
      <point x="371.996" y="1217.54" type="line" smooth="yes"/>
      <point x="371.996" y="1315.84"/>
      <point x="420.208" y="1355.78"/>
      <point x="513.229" y="1355.78" type="curve" smooth="yes"/>
      <point x="558.206" y="1355.78"/>
      <point x="596.446" y="1346.69"/>
      <point x="630.411" y="1327.1" type="curve"/>
      <point x="673.792" y="1430.53" type="line"/>
      <point x="620.489" y="1454.08"/>
      <point x="564.112" y="1468.42"/>
      <point x="505.684" y="1468.42" type="curve" smooth="yes"/>
      <point x="355.002" y="1468.42"/>
      <point x="231.996" y="1388.54"/>
      <point x="231.996" y="1227.78" type="curve" smooth="yes"/>
      <point x="231.996" y="1063.89" type="line"/>
      <point x="37.888" y="1063.89" type="line"/>
      <point x="37.888" y="958.464" type="line"/>
      <point x="231.996" y="958.464" type="line"/>
    </contour>
  </outline>
  <guideline angle="0" x="0" y="1431"/>
  <guideline angle="0" x="0" y="1226"/>
  <guideline angle="66.9745" x="586.55" y="1226"/>
  <guideline angle="0" x="0" y="1327"/>
</glyph>
<glyph name="g" format="2">
  <advance width="1124"/>
  <unicode hex="0067"/>
  <anchor x="563" y="-435" name="m.uni0326"/>
  <anchor x="0" y="11" name="m.uni0328_1"/>
  <anchor x="557" y="1072" name="m.uni0308_2"/>
  <anchor x="0" y="11" name="m.uni031B_3_2"/>
  <outline>
    <contour>
      <point x="581" y="-482" type="curve"/>
      <point x="787" y="-482"/>
      <point x="1040" y="-384"/>
      <point x="1040" y="-140" type="curve" smooth="yes"/>
      <point x="1040" y="62"/>
      <point x="895" y="152"/>
      <point x="709" y="152" type="curve" smooth="yes"/>
      <point x="470" y="152" type="line" smooth="yes"/>
      <point x="310" y="152"/>
      <point x="247" y="196"/>
      <point x="247" y="297" type="curve" smooth="yes"/>
      <point x="247" y="347"/>
      <point x="270" y="384"/>
      <point x="306" y="411" type="curve"/>
      <point x="377" y="363"/>
      <point x="460" y="337"/>
      <point x="556" y="337" type="curve" smooth="yes"/>
      <point x="777" y="337"/>
      <point x="959" y="479"/>
      <point x="959" y="708" type="curve" smooth="yes"/>
      <point x="959" y="785"/>
      <point x="940" y="854"/>
      <point x="900" y="916" type="curve"/>
      <point x="1054" y="1051" type="line"/>
      <point x="990" y="1134" type="line"/>
      <point x="832" y="993" type="line"/>
      <point x="761" y="1053"/>
      <point x="666" y="1084"/>
      <point x="556" y="1084" type="curve" smooth="yes"/>
      <point x="331" y="1084"/>
      <point x="150" y="940"/>
      <point x="151" y="711" type="curve" smooth="yes"/>
      <point x="151" y="622"/>
      <point x="177" y="544"/>
      <point x="232" y="477" type="curve"/>
      <point x="165" y="426"/>
      <point x="121" y="363"/>
      <point x="121" y="284" type="curve" smooth="yes"/>
      <point x="121" y="178"/>
      <point x="186" y="105"/>
      <point x="271" y="67" type="curve"/>
      <point x="102" y="-53" type="line"/>
      <point x="97" y="-73"/>
      <point x="93" y="-95"/>
      <point x="93" y="-122" type="curve" smooth="yes"/>
      <point x="93" y="-376"/>
      <point x="364" y="-478"/>
    </contour>
    <contour>
      <point x="558" y="451" type="curve" smooth="yes"/>
      <point x="388" y="451"/>
      <point x="285" y="554"/>
      <point x="285" y="709" type="curve" smooth="yes"/>
      <point x="285" y="869"/>
      <point x="391" y="974"/>
      <point x="558" y="974" type="curve" smooth="yes"/>
      <point x="725" y="974"/>
      <point x="827" y="869"/>
      <point x="827" y="709" type="curve" smooth="yes"/>
      <point x="827" y="554"/>
      <point x="725" y="451"/>
    </contour>
    <contour>
      <point x="583" y="-368" type="curve" smooth="yes"/>
      <point x="440" y="-368"/>
      <point x="191" y="-292"/>
      <point x="225" y="-94" type="curve"/>
      <point x="354" y="38" type="line"/>
      <point x="660" y="38" type="line" smooth="yes"/>
      <point x="840" y="38"/>
      <point x="906" y="-29"/>
      <point x="906" y="-149" type="curve" smooth="yes"/>
      <point x="906" y="-320"/>
      <point x="719" y="-368"/>
    </contour>
  </outline>
</glyph>
<glyph name="h" format="2">
  <advance width="1165"/>
  <unicode hex="0068"/>
  <anchor x="251.904" y="1617.92" name="top"/>
  <outline>
    <contour>
      <point x="188.416" y="0" type="line"/>
      <point x="315.392" y="0" type="line"/>
      <point x="315.392" y="592.824" type="line" smooth="yes"/>
      <point x="315.392" y="794.087"/>
      <point x="468.356" y="961.464"/>
      <point x="652.288" y="961.464" type="curve" smooth="yes"/>
      <point x="798.287" y="961.464"/>
      <point x="885.76" y="841.764"/>
      <point x="885.76" y="641.976" type="curve" smooth="yes"/>
      <point x="885.76" y="0" type="line"/>
      <point x="1016.83" y="0" type="line"/>
      <point x="1016.83" y="663.48" type="line" smooth="yes"/>
      <point x="1016.83" y="922.538"/>
      <point x="883.372" y="1084.34"/>
      <point x="669.696" y="1084.34" type="curve" smooth="yes"/>
      <point x="526.14" y="1084.34"/>
      <point x="390.084" y="1006.09"/>
      <point x="315.392" y="880.568" type="curve"/>
      <point x="315.392" y="1447.91" type="line"/>
      <point x="188.416" y="1447.91" type="line"/>
    </contour>
  </outline>
  <guideline angle="90" name="vertical" x="251.904" y="0"/>
</glyph>
<glyph name="i" format="2">
  <advance width="492"/>
  <unicode hex="0069"/>
  <outline>
    <contour>
      <point x="186.368" y="0" type="line"/>
      <point x="319.488" y="0" type="line"/>
      <point x="319.488" y="1021.95" type="line"/>
      <point x="186.368" y="1021.95" type="line"/>
    </contour>
    <contour>
      <point x="176.128" y="1259.52" type="line"/>
      <point x="332.8" y="1259.52" type="line"/>
      <point x="332.8" y="1446.91" type="line"/>
      <point x="176.128" y="1446.91" type="line"/>
    </contour>
  </outline>
</glyph>
<glyph name="j" format="2">
  <advance width="507"/>
  <unicode hex="006A"/>
  <outline>
    <component base="uni0237"/>
    <contour>
      <point x="178.575" y="1259.74" type="line"/>
      <point x="336.305" y="1259.74" type="line"/>
      <point x="336.305" y="1448.06" type="line"/>
      <point x="178.575" y="1448.06" type="line"/>
    </contour>
  </outline>
  <guideline angle="90" name="vertical" x="258" y="0"/>
</glyph>
<glyph name="k" format="2">
  <advance width="1089"/>
  <unicode hex="006B"/>
  <outline>
    <contour>
      <point x="186.392" y="0" type="line"/>
      <point x="316.464" y="0" type="line"/>
      <point x="316.464" y="310.272" type="line"/>
      <point x="554.032" y="569.344" type="line"/>
      <point x="884.784" y="0" type="line"/>
      <point x="1046.58" y="0" type="line"/>
      <point x="640.048" y="672.768" type="line"/>
      <point x="976.944" y="1063.94" type="line"/>
      <point x="810.032" y="1063.94" type="line"/>
      <point x="316.464" y="488.448" type="line"/>
      <point x="316.464" y="1447.91" type="line"/>
      <point x="186.368" y="1447.91" type="line"/>
    </contour>
  </outline>
</glyph>
<glyph name="l" format="2">
  <advance width="525"/>
  <unicode hex="006C"/>
  <anchor x="248.832" y="1617.92" name="top"/>
  <outline>
    <contour>
      <point x="342.016" y="-20.48" type="curve" smooth="yes"/>
      <point x="386.048" y="-20.48"/>
      <point x="429.056" y="-13.312"/>
      <point x="471.04" y="-1.024" type="curve"/>
      <point x="471.04" y="104.448" type="line"/>
      <point x="438.272" y="98.304"/>
      <point x="402.432" y="93.184"/>
      <point x="365.568" y="93.184" type="curve" smooth="yes"/>
      <point x="333.824" y="93.184"/>
      <point x="314.368" y="114.688"/>
      <point x="314.368" y="147.456" type="curve" smooth="yes"/>
      <point x="314.368" y="1446.91" type="line"/>
      <point x="185.344" y="1446.91" type="line"/>
      <point x="185.344" y="158.72" type="line" smooth="yes"/>
      <point x="185.344" y="35.84"/>
      <point x="234.496" y="-20.48"/>
    </contour>
  </outline>
  <guideline angle="90" name="vertical" x="248.832" y="0"/>
</glyph>
<glyph name="m" format="2">
  <advance width="1776"/>
  <unicode hex="006D"/>
  <outline>
    <contour>
      <point x="186.368" y="0" type="line"/>
      <point x="318.464" y="0" type="line"/>
      <point x="318.464" y="615.4" type="line" smooth="yes"/>
      <point x="318.464" y="787.432"/>
      <point x="407.552" y="976.872"/>
      <point x="602.112" y="976.872" type="curve" smooth="yes"/>
      <point x="789.504" y="976.872"/>
      <point x="839.68" y="799.72"/>
      <point x="839.68" y="644.072" type="curve" smooth="yes"/>
      <point x="839.68" y="0" type="line"/>
      <point x="971.776" y="0" type="line"/>
      <point x="971.776" y="615.4" type="line" smooth="yes"/>
      <point x="971.776" y="783.336"/>
      <point x="1060.86" y="976.872"/>
      <point x="1253.38" y="976.872" type="curve" smooth="yes"/>
      <point x="1442.82" y="976.872"/>
      <point x="1494.02" y="798.696"/>
      <point x="1494.02" y="639.976" type="curve" smooth="yes"/>
      <point x="1494.02" y="0" type="line"/>
      <point x="1626.11" y="0" type="line"/>
      <point x="1626.11" y="649.192" type="line" smooth="yes"/>
      <point x="1626.11" y="882.664"/>
      <point x="1523.71" y="1082.34"/>
      <point x="1264.64" y="1082.34" type="curve" smooth="yes"/>
      <point x="1105.92" y="1082.34"/>
      <point x="1003.52" y="996.352"/>
      <point x="941.056" y="856.064" type="curve"/>
      <point x="888.832" y="1011.71"/>
      <point x="773.12" y="1084.39"/>
      <point x="612.352" y="1084.39" type="curve" smooth="yes"/>
      <point x="464.896" y="1084.39"/>
      <point x="362.496" y="994.304"/>
      <point x="318.464" y="858.112" type="curve"/>
      <point x="318.464" y="1063.94" type="line"/>
      <point x="186.368" y="1063.94" type="line"/>
    </contour>
  </outline>
</glyph>
<glyph name="n" format="2">
  <advance width="1161"/>
  <unicode hex="006E"/>
  <anchor x="589" y="1191.94" name="top"/>
  <outline>
    <contour>
      <point x="186" y="0" type="line"/>
      <point x="315" y="0" type="line" name=".av02"/>
      <point x="315" y="622" type="line" smooth="yes"/>
      <point x="315" y="802"/>
      <point x="469" y="959"/>
      <point x="644" y="959" type="curve" smooth="yes"/>
      <point x="799" y="959"/>
      <point x="883" y="848"/>
      <point x="883" y="642" type="curve" smooth="yes"/>
      <point x="883" y="0" type="line"/>
      <point x="1013" y="0" type="line" name=".av03"/>
      <point x="1013" y="651" type="line" smooth="yes"/>
      <point x="1013" y="926"/>
      <point x="882" y="1084"/>
      <point x="655" y="1084" type="curve" smooth="yes"/>
      <point x="516" y="1084"/>
      <point x="387" y="1011"/>
      <point x="315" y="889" type="curve"/>
      <point x="315" y="1064" type="line"/>
      <point x="186" y="1064" type="line"/>
    </contour>
  </outline>
</glyph>
<glyph name="o" format="2">
  <advance width="1162"/>
  <unicode hex="006F"/>
  <anchor x="579.8" y="1191.94" name="top"/>
  <anchor x="684.248" y="0" name="ogonek"/>
  <outline>
    <contour>
      <point x="579.8" y="-20.48" type="curve" smooth="yes" name=".dv01"/>
      <point x="889.048" y="-20.48"/>
      <point x="1071.32" y="190.368"/>
      <point x="1071.32" y="531.872" type="curve" smooth="yes" name=".sh01"/>
      <point x="1071.32" y="869.28"/>
      <point x="880.856" y="1084.42"/>
      <point x="579.8" y="1084.42" type="curve" smooth="yes" name=".dv04"/>
      <point x="278.744" y="1084.42"/>
      <point x="90.328" y="870.304"/>
      <point x="90.328" y="531.872" type="curve" smooth="yes" name=".sh02"/>
      <point x="90.328" y="193.44"/>
      <point x="280.792" y="-20.48"/>
    </contour>
    <contour>
      <point x="579.8" y="99.328" type="curve" smooth="yes" name=".dv02"/>
      <point x="378.072" y="99.328"/>
      <point x="233.688" y="278.432"/>
      <point x="233.688" y="531.872" type="curve" smooth="yes" name=".sh03"/>
      <point x="233.688" y="788.384"/>
      <point x="372.952" y="964.584"/>
      <point x="579.8" y="964.584" type="curve" smooth="yes" name=".dv03"/>
      <point x="790.744" y="964.584"/>
      <point x="926.936" y="792.48"/>
      <point x="926.936" y="531.872" type="curve" smooth="yes" name=".ah01"/>
      <point x="926.936" y="270.24"/>
      <point x="794.84" y="99.328"/>
    </contour>
  </outline>
  <guideline angle="90" name="vertical" x="579.8" y="0"/>
  <guideline angle="0" x="0" y="532"/>
</glyph>
<glyph name="p" format="2">
  <advance width="1174"/>
  <unicode hex="0070"/>
  <outline>
    <contour>
      <point x="188.416" y="-449.536" type="line"/>
      <point x="318.464" y="-449.536" type="line"/>
      <point x="318.464" y="153.6" type="line"/>
      <point x="397.322" y="36.8107"/>
      <point x="508.196" y="-20.48"/>
      <point x="655.36" y="-20.48" type="curve" smooth="yes"/>
      <point x="902.381" y="-20.48"/>
      <point x="1074.18" y="205.92"/>
      <point x="1074.18" y="531.456" type="curve" smooth="yes"/>
      <point x="1074.18" y="856.178"/>
      <point x="901.296" y="1084.44"/>
      <point x="655.36" y="1084.44" type="curve" smooth="yes"/>
      <point x="505.423" y="1084.44"/>
      <point x="396.471" y="1027.8"/>
      <point x="318.464" y="909.312" type="curve"/>
      <point x="318.464" y="1063.94" type="line"/>
      <point x="188.416" y="1063.94" type="line"/>
    </contour>
    <contour>
      <point x="619.52" y="91.136" type="curve" smooth="yes"/>
      <point x="431.738" y="91.136"/>
      <point x="305.152" y="268.852"/>
      <point x="305.152" y="532.48" type="curve" smooth="yes"/>
      <point x="305.152" y="791.422"/>
      <point x="433.358" y="969.752"/>
      <point x="619.52" y="969.752" type="curve" smooth="yes"/>
      <point x="816.749" y="969.752"/>
      <point x="944.128" y="798.162"/>
      <point x="944.128" y="532.48" type="curve" smooth="yes"/>
      <point x="944.128" y="263.89"/>
      <point x="817.068" y="91.136"/>
    </contour>
  </outline>
</glyph>
<glyph name="q" format="2">
  <advance width="1176"/>
  <unicode hex="0071"/>
  <outline>
    <contour>
      <point x="998.4" y="-449.536" type="line"/>
      <point x="998.4" y="1063.94" type="line"/>
      <point x="866.304" y="1063.94" type="line"/>
      <point x="866.304" y="910.336" type="line"/>
      <point x="786.692" y="1026.69"/>
      <point x="675.288" y="1084.44"/>
      <point x="530.432" y="1084.44" type="curve" smooth="yes"/>
      <point x="281.045" y="1084.44"/>
      <point x="110.592" y="859.931"/>
      <point x="110.592" y="531.456" type="curve" smooth="yes"/>
      <point x="110.592" y="210.168"/>
      <point x="283.043" y="-20.48"/>
      <point x="523.264" y="-20.48" type="curve" smooth="yes"/>
      <point x="677.602" y="-20.48"/>
      <point x="782.36" y="32.6809"/>
      <point x="866.304" y="153.6" type="curve"/>
      <point x="866.304" y="-449.536" type="line"/>
    </contour>
    <contour>
      <point x="561.152" y="91.136" type="curve" smooth="yes"/>
      <point x="370.045" y="91.136"/>
      <point x="243.712" y="266.78"/>
      <point x="243.712" y="532.48" type="curve" smooth="yes"/>
      <point x="243.712" y="796.65"/>
      <point x="369.377" y="969.752"/>
      <point x="561.152" y="969.752" type="curve" smooth="yes"/>
      <point x="752.182" y="969.752"/>
      <point x="877.568" y="796.474"/>
      <point x="877.568" y="532.48" type="curve" smooth="yes"/>
      <point x="877.568" y="263.077"/>
      <point x="754.297" y="91.136"/>
    </contour>
  </outline>
</glyph>
<glyph name="r" format="2">
  <advance width="830"/>
  <unicode hex="0072"/>
  <outline>
    <contour>
      <point x="186" y="0" type="line"/>
      <point x="319" y="0" type="line"/>
      <point x="319" y="452" type="line" smooth="yes"/>
      <point x="319" y="637"/>
      <point x="377" y="973"/>
      <point x="620" y="973" type="curve" smooth="yes"/>
      <point x="672" y="973"/>
      <point x="723" y="956"/>
      <point x="764" y="923" type="curve"/>
      <point x="805" y="1042" type="line"/>
      <point x="753" y="1070"/>
      <point x="694" y="1084"/>
      <point x="636" y="1084" type="curve" smooth="yes"/>
      <point x="492" y="1084"/>
      <point x="355" y="991"/>
      <point x="322" y="847" type="curve"/>
      <point x="322" y="1064" type="line"/>
      <point x="186" y="1064" type="line"/>
    </contour>
  </outline>
</glyph>
<glyph name="s" format="2">
  <advance width="911"/>
  <unicode hex="0073"/>
  <anchor x="488" y="0" name="m.uni0326"/>
  <anchor x="0" y="0" name="m.uni0328_1"/>
  <anchor x="455" y="1062" name="m.uni0308_2"/>
  <anchor x="0" y="0" name="m.uni031B_3_2"/>
  <outline>
    <contour>
      <point x="472" y="-21" type="curve" smooth="yes"/>
      <point x="665" y="-21"/>
      <point x="827" y="95"/>
      <point x="824" y="296" type="curve"/>
      <point x="824" y="505"/>
      <point x="659" y="567"/>
      <point x="493" y="619" type="curve" smooth="yes"/>
      <point x="393" y="650"/>
      <point x="253" y="684"/>
      <point x="253" y="814" type="curve" smooth="yes"/>
      <point x="253" y="925"/>
      <point x="342" y="967"/>
      <point x="442" y="965" type="curve"/>
      <point x="554" y="965"/>
      <point x="637" y="911"/>
      <point x="685" y="810" type="curve"/>
      <point x="781" y="876" type="line"/>
      <point x="718" y="1004"/>
      <point x="599" y="1084"/>
      <point x="446" y="1084" type="curve" smooth="yes"/>
      <point x="269" y="1084"/>
      <point x="127" y="981"/>
      <point x="124" y="799" type="curve"/>
      <point x="124" y="614"/>
      <point x="279" y="559"/>
      <point x="424" y="510" type="curve" smooth="yes"/>
      <point x="547" y="468"/>
      <point x="689" y="433"/>
      <point x="686" y="274" type="curve"/>
      <point x="686" y="144"/>
      <point x="598" y="99"/>
      <point x="479" y="97" type="curve"/>
      <point x="340" y="97"/>
      <point x="245" y="179"/>
      <point x="205" y="306" type="curve"/>
      <point x="89" y="243" type="line"/>
      <point x="146" y="83"/>
      <point x="307" y="-21"/>
    </contour>
  </outline>
</glyph>
<glyph name="t" format="2">
  <advance width="689"/>
  <unicode hex="0074"/>
  <anchor x="415" y="0" name="cedilla"/>
  <outline>
    <contour>
      <point x="459.776" y="-20.48" type="curve" smooth="yes"/>
      <point x="503.808" y="-20.48"/>
      <point x="548.864" y="-18.432"/>
      <point x="590.848" y="-3.072" type="curve"/>
      <point x="590.848" y="106.496" type="line"/>
      <point x="559.104" y="91.136"/>
      <point x="527.36" y="82.944"/>
      <point x="493.568" y="82.944" type="curve" smooth="yes"/>
      <point x="387.072" y="82.944"/>
      <point x="352.256" y="174.08"/>
      <point x="352.256" y="266.24" type="curve" smooth="yes"/>
      <point x="352.256" y="958.464" type="line"/>
      <point x="623.616" y="958.464" type="line"/>
      <point x="623.616" y="1063.94" type="line"/>
      <point x="352.256" y="1063.94" type="line"/>
      <point x="352.256" y="1382.4" type="line"/>
      <point x="219.136" y="1264.64" type="line"/>
      <point x="219.136" y="1063.94" type="line"/>
      <point x="52.224" y="1063.94" type="line"/>
      <point x="52.224" y="958.464" type="line"/>
      <point x="219.136" y="958.464" type="line"/>
      <point x="219.136" y="280.576" type="line" smooth="yes"/>
      <point x="219.136" y="113.664"/>
      <point x="268.288" y="-20.48"/>
    </contour>
  </outline>
</glyph>
<glyph name="u" format="2">
  <advance width="1157"/>
  <unicode hex="0075"/>
  <anchor x="573" y="1191.94" name="top"/>
  <anchor x="984" y="0" name="ogonek"/>
  <anchor x="1209" y="1064" name="horn"/>
  <outline>
    <contour>
      <point x="517" y="-19" type="curve" smooth="yes" name=".dv01"/>
      <point x="659" y="-19"/>
      <point x="803" y="68"/>
      <point x="857" y="201" type="curve"/>
      <point x="857" y="0" type="line" name=".ah01"/>
      <point x="984" y="0" type="line" name=".sh01"/>
      <point x="984" y="1064" type="line" name=".av01"/>
      <point x="857" y="1064" type="line" name=".sh02"/>
      <point x="857" y="452" type="line" smooth="yes"/>
      <point x="857" y="275"/>
      <point x="711" y="88"/>
      <point x="526" y="88" type="curve" smooth="yes" name=".dv02"/>
      <point x="335" y="88"/>
      <point x="289" y="265"/>
      <point x="289" y="423" type="curve" smooth="yes"/>
      <point x="289" y="1064" type="line" name=".av02"/>
      <point x="160" y="1064" type="line" name=".sh03"/>
      <point x="160" y="436" type="line" smooth="yes"/>
      <point x="160" y="204"/>
      <point x="251" y="-19"/>
    </contour>
  </outline>
</glyph>
<glyph name="v" format="2">
  <advance width="997"/>
  <unicode hex="0076"/>
  <outline>
    <contour>
      <point x="564" y="0" type="line"/>
      <point x="952" y="1064" type="line"/>
      <point x="808" y="1064" type="line"/>
      <point x="502" y="174" type="line"/>
      <point x="199" y="1064" type="line"/>
      <point x="50" y="1064" type="line"/>
      <point x="440" y="0" type="line"/>
    </contour>
  </outline>
</glyph>
<glyph name="w" format="2">
  <advance width="1500"/>
  <unicode hex="0077"/>
  <anchor x="756" y="1191.94" name="top"/>
  <outline>
    <contour>
      <point x="491.52" y="-1.024" type="line"/>
      <point x="755.712" y="882.688" type="line"/>
      <point x="1012.74" y="0" type="line"/>
      <point x="1149.95" y="0" type="line"/>
      <point x="1442.82" y="1063.94" type="line"/>
      <point x="1297.41" y="1063.94" type="line"/>
      <point x="1072.13" y="188.416" type="line"/>
      <point x="818.176" y="1063.94" type="line"/>
      <point x="690.176" y="1063.94" type="line"/>
      <point x="434.176" y="186.368" type="line"/>
      <point x="206.848" y="1063.94" type="line"/>
      <point x="62.464" y="1063.94" type="line"/>
      <point x="355.328" y="-1.02393" type="line"/>
    </contour>
  </outline>
  <guideline angle="90" name="vertical" x="756" y="0"/>
</glyph>
<glyph name="x" format="2">
  <advance width="954"/>
  <unicode hex="0078"/>
  <outline>
    <contour>
      <point x="748" y="0" type="line"/>
      <point x="909" y="0" type="line"/>
      <point x="555" y="542" type="line"/>
      <point x="498" y="629" type="line"/>
      <point x="226" y="1064" type="line"/>
      <point x="59" y="1064" type="line"/>
      <point x="416" y="537" type="line"/>
      <point x="480" y="433" type="line"/>
    </contour>
    <contour>
      <point x="59" y="0" type="line"/>
      <point x="226" y="0" type="line"/>
      <point x="504" y="447" type="line"/>
      <point x="433" y="562" type="line"/>
    </contour>
    <contour>
      <point x="470" y="622" type="line"/>
      <point x="543" y="509" type="line"/>
      <point x="913" y="1064" type="line"/>
      <point x="749" y="1064" type="line"/>
    </contour>
  </outline>
</glyph>
<glyph name="y" format="2">
  <advance width="1025"/>
  <unicode hex="0079"/>
  <anchor x="521.216" y="1191.94" name="top"/>
  <outline>
    <contour>
      <point x="419.84" y="-441.344" type="line"/>
      <point x="983.04" y="1063.94" type="line"/>
      <point x="831.488" y="1063.94" type="line"/>
      <point x="521.216" y="175.104" type="line"/>
      <point x="200.704" y="1063.94" type="line"/>
      <point x="48.128" y="1063.94" type="line"/>
      <point x="456.704" y="11.264" type="line"/>
      <point x="277.504" y="-441.344" type="line"/>
    </contour>
  </outline>
  <guideline angle="90" name="vertical" x="521.216" y="0"/>
</glyph>
<glyph name="z" format="2">
  <advance width="970"/>
  <unicode hex="007A"/>
  <anchor x="490" y="1192" name="top"/>
  <outline>
    <contour>
      <point x="890" y="0" type="line"/>
      <point x="890" y="113" type="line"/>
      <point x="236" y="113" type="line"/>
      <point x="890" y="945" type="line"/>
      <point x="890" y="1064" type="line"/>
      <point x="105" y="1064" type="line"/>
      <point x="105" y="953" type="line"/>
      <point x="738" y="953" type="line"/>
      <point x="75" y="108" type="line"/>
      <point x="75" y="0" type="line"/>
    </contour>
  </outline>
</glyph>
<glyph name="braceleft" format="2">
  <advance width="610"/>
  <unicode hex="007B"/>
  <outline>
    <contour>
      <point x="228" y="97" type="line" smooth="yes"/>
      <point x="228" y="-48"/>
      <point x="300" y="-120"/>
      <point x="444" y="-120" type="curve" smooth="yes"/>
      <point x="529" y="-120" type="line"/>
      <point x="529" y="-48" type="line"/>
      <point x="496" y="-48" type="line" smooth="yes"/>
      <point x="400" y="-48"/>
      <point x="351" y="4"/>
      <point x="351" y="112" type="curve" smooth="yes"/>
      <point x="351" y="487" type="line" smooth="yes"/>
      <point x="351" y="571"/>
      <point x="307" y="616"/>
      <point x="190" y="659" type="curve"/>
      <point x="307" y="691"/>
      <point x="351" y="769"/>
      <point x="351" y="858" type="curve" smooth="yes"/>
      <point x="351" y="1354" type="line" smooth="yes"/>
      <point x="351" y="1424"/>
      <point x="391" y="1456"/>
      <point x="478" y="1456" type="curve" smooth="yes"/>
      <point x="529" y="1456" type="line"/>
      <point x="529" y="1528" type="line"/>
      <point x="444" y="1528" type="line" smooth="yes"/>
      <point x="298" y="1528"/>
      <point x="228" y="1460"/>
      <point x="228" y="1316" type="curve" smooth="yes"/>
      <point x="228" y="877" type="line" smooth="yes"/>
      <point x="228" y="790"/>
      <point x="183" y="736"/>
      <point x="94" y="716" type="curve"/>
      <point x="94" y="609" type="line"/>
      <point x="181" y="578"/>
      <point x="228" y="530"/>
      <point x="228" y="474" type="curve" smooth="yes"/>
    </contour>
  </outline>
</glyph>
<glyph name="bar" format="2">
  <advance width="637"/>
  <unicode hex="007C"/>
  <outline>
    <contour>
      <point x="364.544" y="-525.312" type="line"/>
      <point x="364.544" y="1570.82" type="line"/>
      <point x="270.336" y="1570.82" type="line"/>
      <point x="270.336" y="-525.312" type="line"/>
    </contour>
  </outline>
</glyph>
<glyph name="asciitilde" format="2">
  <advance width="1191"/>
  <unicode hex="007E"/>
  <outline>
    <contour>
      <point x="224.256" y="416.768" type="curve"/>
      <point x="308.224" y="416.768" type="line"/>
      <point x="308.224" y="490.496"/>
      <point x="325.632" y="580.608"/>
      <point x="416.768" y="580.608" type="curve" smooth="yes"/>
      <point x="537.6" y="580.608"/>
      <point x="596.992" y="389.12"/>
      <point x="757.76" y="389.12" type="curve" smooth="yes"/>
      <point x="916.48" y="389.12"/>
      <point x="968.704" y="520.192"/>
      <point x="968.704" y="658.432" type="curve"/>
      <point x="876.544" y="658.432" type="line"/>
      <point x="876.544" y="581.632"/>
      <point x="863.232" y="477.184"/>
      <point x="763.904" y="477.184" type="curve" smooth="yes"/>
      <point x="645.12" y="477.184"/>
      <point x="600.064" y="664.576"/>
      <point x="413.696" y="664.576" type="curve" smooth="yes"/>
      <point x="275.456" y="664.576"/>
      <point x="224.256" y="535.552"/>
    </contour>
  </outline>
</glyph>
<glyph name="exclamdown" format="2">
  <advance width="643"/>
  <unicode hex="00A1"/>
  <outline>
    <contour>
      <point x="411.648" y="841.728" type="line"/>
      <point x="411.648" y="1021.95" type="line"/>
      <point x="228.352" y="1021.95" type="line"/>
      <point x="228.352" y="841.728" type="line"/>
    </contour>
    <contour>
      <point x="399.36" y="-447.488" type="line"/>
      <point x="369.664" y="642.048" type="line"/>
      <point x="270.336" y="642.048" type="line"/>
      <point x="241.664" y="-447.488" type="line"/>
    </contour>
  </outline>
</glyph>
<glyph name="cent" format="2">
  <advance width="1167"/>
  <unicode hex="00A2"/>
  <outline>
    <contour>
      <point x="665.6" y="-210.944" type="line"/>
      <point x="665.6" y="-17.408" type="line"/>
      <point x="827.481" y="-0.314997"/>
      <point x="936.85" y="85.161"/>
      <point x="998.4" y="242.688" type="curve"/>
      <point x="875.52" y="294.912" type="line"/>
      <point x="839.7" y="183.358"/>
      <point x="737.345" y="108.544"/>
      <point x="620.544" y="108.544" type="curve" smooth="yes"/>
      <point x="439.808" y="108.544"/>
      <point x="324.608" y="264.403"/>
      <point x="324.608" y="508.928" type="curve" smooth="yes"/>
      <point x="324.608" y="750.351"/>
      <point x="442.101" y="909.312"/>
      <point x="620.544" y="909.312" type="curve" smooth="yes"/>
      <point x="737.857" y="909.312"/>
      <point x="843.469" y="832.117"/>
      <point x="875.52" y="722.944" type="curve"/>
      <point x="1009.66" y="779.264" type="line"/>
      <point x="944.826" y="925.149"/>
      <point x="826.048" y="1013.53"/>
      <point x="665.6" y="1035.26" type="curve"/>
      <point x="665.6" y="1227.78" type="line"/>
      <point x="570.368" y="1227.78" type="line"/>
      <point x="570.368" y="1035.26" type="line"/>
      <point x="334.224" y="1006.53"/>
      <point x="181.248" y="799.612"/>
      <point x="181.248" y="508.928" type="curve" smooth="yes"/>
      <point x="181.248" y="215.525"/>
      <point x="336.916" y="5.78282"/>
      <point x="570.368" y="-15.36" type="curve"/>
      <point x="570.368" y="-210.944" type="line"/>
    </contour>
  </outline>
</glyph>
<glyph name="sterling" format="2">
  <advance width="1282"/>
  <unicode hex="00A3"/>
  <outline>
    <contour>
      <point x="174" y="0" type="line"/>
      <point x="1209" y="0" type="line"/>
      <point x="1209" y="119" type="line"/>
      <point x="360" y="119" type="line"/>
      <point x="489" y="232"/>
      <point x="542" y="334"/>
      <point x="542" y="477" type="curve" smooth="yes"/>
      <point x="542" y="538"/>
      <point x="534" y="601"/>
      <point x="518" y="660" type="curve"/>
      <point x="970" y="660" type="line"/>
      <point x="970" y="778" type="line"/>
      <point x="486" y="778" type="line"/>
      <point x="459" y="837"/>
      <point x="434" y="972"/>
      <point x="434" y="1037" type="curve" smooth="yes"/>
      <point x="434" y="1209"/>
      <point x="531" y="1347"/>
      <point x="713" y="1347" type="curve" smooth="yes"/>
      <point x="842" y="1347"/>
      <point x="930" y="1252"/>
      <point x="973" y="1138" type="curve"/>
      <point x="1084" y="1180" type="line"/>
      <point x="1025" y="1343"/>
      <point x="886" y="1464"/>
      <point x="708" y="1464" type="curve" smooth="yes"/>
      <point x="462" y="1464"/>
      <point x="315" y="1268"/>
      <point x="315" y="1035" type="curve" smooth="yes"/>
      <point x="315" y="979"/>
      <point x="340" y="827"/>
      <point x="368" y="778" type="curve"/>
      <point x="177" y="778" type="line"/>
      <point x="177" y="660" type="line"/>
      <point x="397" y="660" type="line"/>
      <point x="412" y="598"/>
      <point x="425" y="536"/>
      <point x="425" y="470" type="curve" smooth="yes"/>
      <point x="425" y="359"/>
      <point x="314" y="195"/>
      <point x="174" y="97" type="curve"/>
    </contour>
  </outline>
</glyph>
<glyph name="currency" format="2">
  <advance width="1416"/>
  <unicode hex="00A4"/>
  <outline>
    <contour>
      <point x="253.952" y="648.192" type="curve" smooth="yes"/>
      <point x="253.952" y="546.816"/>
      <point x="285.696" y="455.68"/>
      <point x="348.16" y="374.784" type="curve"/>
      <point x="241.664" y="269.312" type="line"/>
      <point x="326.656" y="179.2" type="line"/>
      <point x="431.104" y="286.72" type="line"/>
      <point x="512" y="224.256"/>
      <point x="604.16" y="192.512"/>
      <point x="706.56" y="192.512" type="curve" smooth="yes"/>
      <point x="808.96" y="192.512"/>
      <point x="898.048" y="225.28"/>
      <point x="979.968" y="286.72" type="curve"/>
      <point x="1087.49" y="179.2" type="line"/>
      <point x="1171.46" y="269.312" type="line"/>
      <point x="1068.03" y="372.736" type="line"/>
      <point x="1130.5" y="451.584"/>
      <point x="1161.22" y="542.72"/>
      <point x="1161.22" y="646.144" type="curve" smooth="yes"/>
      <point x="1161.22" y="747.52"/>
      <point x="1130.5" y="837.632"/>
      <point x="1068.03" y="918.528" type="curve"/>
      <point x="1171.46" y="1022.98" type="line"/>
      <point x="1085.44" y="1108.99" type="line"/>
      <point x="979.968" y="1004.54" type="line"/>
      <point x="901.12" y="1065.98"/>
      <point x="812.032" y="1098.75"/>
      <point x="710.656" y="1098.75" type="curve" smooth="yes"/>
      <point x="607.232" y="1098.75"/>
      <point x="515.072" y="1067.01"/>
      <point x="433.152" y="1002.5" type="curve"/>
      <point x="328.704" y="1111.04" type="line"/>
      <point x="243.712" y="1018.88" type="line"/>
      <point x="348.16" y="916.48" type="line"/>
      <point x="285.696" y="837.632"/>
      <point x="253.952" y="748.544"/>
    </contour>
    <contour>
      <point x="373.76" y="642.048" type="curve" smooth="yes"/>
      <point x="373.76" y="824.32"/>
      <point x="525.312" y="975.872"/>
      <point x="707.584" y="975.872" type="curve" smooth="yes"/>
      <point x="886.784" y="975.872"/>
      <point x="1038.34" y="824.32"/>
      <point x="1038.34" y="645.12" type="curve" smooth="yes"/>
      <point x="1038.34" y="462.848"/>
      <point x="888.832" y="312.32"/>
      <point x="705.536" y="312.32" type="curve" smooth="yes"/>
      <point x="522.24" y="312.32"/>
      <point x="373.76" y="459.776"/>
    </contour>
  </outline>
</glyph>
<glyph name="yen" format="2">
  <advance width="1337"/>
  <unicode hex="00A5"/>
  <outline>
    <contour>
      <point x="734.208" y="0" type="line"/>
      <point x="734.208" y="325.632" type="line"/>
      <point x="1042.43" y="325.632" type="line"/>
      <point x="1042.43" y="428.032" type="line"/>
      <point x="734.208" y="428.032" type="line"/>
      <point x="734.208" y="552.96" type="line"/>
      <point x="1042.43" y="552.96" type="line"/>
      <point x="1042.43" y="656.384" type="line"/>
      <point x="782.336" y="656.384" type="line"/>
      <point x="1269.76" y="1446.91" type="line"/>
      <point x="1120.26" y="1446.91" type="line"/>
      <point x="669.696" y="719.872" type="line"/>
      <point x="219.136" y="1446.91" type="line"/>
      <point x="66.56" y="1446.91" type="line"/>
      <point x="555.008" y="654.336" type="line"/>
      <point x="296.96" y="654.336" type="line"/>
      <point x="296.96" y="552.96" type="line"/>
      <point x="603.136" y="552.96" type="line"/>
      <point x="603.136" y="428.032" type="line"/>
      <point x="296.96" y="428.032" type="line"/>
      <point x="296.96" y="325.632" type="line"/>
      <point x="603.136" y="325.632" type="line"/>
      <point x="603.136" y="0" type="line"/>
    </contour>
  </outline>
</glyph>
<glyph name="brokenbar" format="2">
  <advance width="629"/>
  <unicode hex="00A6"/>
  <outline>
    <contour>
      <point x="358.4" y="749.568" type="line"/>
      <point x="358.4" y="1510.4" type="line"/>
      <point x="270.336" y="1510.4" type="line"/>
      <point x="270.336" y="749.568" type="line"/>
    </contour>
    <contour>
      <point x="358.4" y="-315.392" type="line"/>
      <point x="358.4" y="428.032" type="line"/>
      <point x="270.336" y="428.032" type="line"/>
      <point x="270.336" y="-315.392" type="line"/>
    </contour>
  </outline>
</glyph>
<glyph name="section" format="2">
  <advance width="1157"/>
  <unicode hex="00A7"/>
  <outline>
    <contour>
      <point x="224.256" y="228.352" type="line"/>
      <point x="280.576" y="71.68"/>
      <point x="424.96" y="-18.432"/>
      <point x="611.328" y="-18.432" type="curve" smooth="yes"/>
      <point x="821.248" y="-18.432"/>
      <point x="956.416" y="98.304"/>
      <point x="956.416" y="278.528" type="curve" smooth="yes"/>
      <point x="956.416" y="376.832"/>
      <point x="912.384" y="451.584"/>
      <point x="826.368" y="502.784" type="curve"/>
      <point x="826.368" y="464.896" type="line"/>
      <point x="912.384" y="521.216"/>
      <point x="956.416" y="603.136"/>
      <point x="956.416" y="704.512" type="curve" smooth="yes"/>
      <point x="956.416" y="862.208"/>
      <point x="865.28" y="944.128"/>
      <point x="629.76" y="995.328" type="curve" smooth="yes"/>
      <point x="596.992" y="1002.5" type="line" smooth="yes"/>
      <point x="462.848" y="1030.14"/>
      <point x="343.04" y="1054.72"/>
      <point x="343.04" y="1166.34" type="curve" smooth="yes"/>
      <point x="343.04" y="1273.86"/>
      <point x="457.728" y="1356.8"/>
      <point x="589.824" y="1356.8" type="curve" smooth="yes"/>
      <point x="717.824" y="1356.8"/>
      <point x="826.368" y="1303.55"/>
      <point x="875.52" y="1215.49" type="curve"/>
      <point x="957.44" y="1282.05" type="line"/>
      <point x="891.904" y="1399.81"/>
      <point x="758.784" y="1468.42"/>
      <point x="591.872" y="1468.42" type="curve" smooth="yes"/>
      <point x="394.24" y="1468.42"/>
      <point x="224.256" y="1340.42"/>
      <point x="224.256" y="1170.43" type="curve" smooth="yes"/>
      <point x="224.256" y="1073.15"/>
      <point x="270.336" y="999.424"/>
      <point x="361.472" y="951.296" type="curve"/>
      <point x="357.376" y="988.16" type="line"/>
      <point x="270.336" y="927.744"/>
      <point x="222.208" y="841.728"/>
      <point x="222.208" y="744.448" type="curve" smooth="yes"/>
      <point x="222.208" y="586.752"/>
      <point x="316.416" y="509.952"/>
      <point x="582.656" y="451.584" type="curve" smooth="yes"/>
      <point x="615.424" y="444.416" type="line" smooth="yes"/>
      <point x="773.12" y="409.6"/>
      <point x="836.608" y="355.328"/>
      <point x="836.608" y="254.976" type="curve" smooth="yes"/>
      <point x="836.608" y="152.576"/>
      <point x="755.712" y="94.208"/>
      <point x="611.328" y="94.208" type="curve" smooth="yes"/>
      <point x="474.112" y="94.208"/>
      <point x="371.712" y="160.768"/>
      <point x="328.704" y="283.648" type="curve"/>
    </contour>
    <contour>
      <point x="745.472" y="520.192" type="line"/>
      <point x="726.016" y="531.456"/>
      <point x="681.984" y="541.696"/>
      <point x="654.336" y="547.84" type="curve" smooth="yes"/>
      <point x="620.544" y="555.008" type="line" smooth="yes"/>
      <point x="431.104" y="594.944"/>
      <point x="343.04" y="655.36"/>
      <point x="343.04" y="746.496" type="curve" smooth="yes"/>
      <point x="343.04" y="839.68"/>
      <point x="401.408" y="910.336"/>
      <point x="501.76" y="937.984" type="curve"/>
      <point x="445.44" y="935.936" type="line"/>
      <point x="472.064" y="924.672"/>
      <point x="503.808" y="916.48"/>
      <point x="561.152" y="906.24" type="curve" smooth="yes"/>
      <point x="594.944" y="900.096" type="line" smooth="yes"/>
      <point x="761.856" y="869.376"/>
      <point x="836.608" y="811.008"/>
      <point x="836.608" y="711.68" type="curve" smooth="yes"/>
      <point x="836.608" y="614.4"/>
      <point x="784.384" y="551.936"/>
      <point x="679.936" y="524.288" type="curve"/>
    </contour>
  </outline>
  <guideline angle="249.578" x="805.888" y="955.392"/>
  <guideline angle="249.578" x="770.048" y="955.392"/>
  <guideline angle="0" x="0" y="232.448"/>
  <guideline angle="27.8973" x="328.704" y="283.648"/>
  <guideline angle="0" x="0" y="1257.47"/>
  <guideline angle="90" x="875.52" y="0"/>
</glyph>
<glyph name="dieresis" format="2">
  <advance width="627"/>
  <unicode hex="00A8"/>
  <outline>
    <contour>
      <point x="61.44" y="1240.06" type="line"/>
      <point x="224.256" y="1240.06" type="line"/>
      <point x="224.256" y="1427.46" type="line"/>
      <point x="61.44" y="1427.46" type="line"/>
    </contour>
    <contour>
      <point x="403.456" y="1240.06" type="line"/>
      <point x="565.248" y="1240.06" type="line"/>
      <point x="565.248" y="1427.46" type="line"/>
      <point x="403.456" y="1427.46" type="line"/>
    </contour>
  </outline>
</glyph>
<glyph name="copyright" format="2">
  <advance width="1798"/>
  <unicode hex="00A9"/>
  <outline>
    <contour>
      <point x="899.072" y="-52.224" type="curve" smooth="yes"/>
      <point x="1325.06" y="-52.224"/>
      <point x="1661.95" y="302.08"/>
      <point x="1661.95" y="723.968" type="curve" smooth="yes"/>
      <point x="1661.95" y="1144.83"/>
      <point x="1323.01" y="1499.14"/>
      <point x="899.072" y="1499.14" type="curve" smooth="yes"/>
      <point x="475.136" y="1499.14"/>
      <point x="136.192" y="1144.83"/>
      <point x="136.192" y="723.968" type="curve" smooth="yes"/>
      <point x="136.192" y="299.008"/>
      <point x="471.04" y="-52.224"/>
    </contour>
    <contour>
      <point x="899.072" y="52.224" type="curve" smooth="yes"/>
      <point x="538.624" y="52.224"/>
      <point x="238.592" y="366.592"/>
      <point x="238.592" y="723.968" type="curve" smooth="yes"/>
      <point x="238.592" y="1079.3"/>
      <point x="541.696" y="1393.66"/>
      <point x="899.072" y="1393.66" type="curve" smooth="yes"/>
      <point x="1257.47" y="1393.66"/>
      <point x="1557.5" y="1079.3"/>
      <point x="1557.5" y="723.968" type="curve" smooth="yes"/>
      <point x="1557.5" y="366.592"/>
      <point x="1260.54" y="52.224"/>
    </contour>
    <contour>
      <point x="916.48" y="315.392" type="curve" smooth="yes"/>
      <point x="1050.62" y="315.392"/>
      <point x="1160.19" y="376.832"/>
      <point x="1218.56" y="498.688" type="curve"/>
      <point x="1122.3" y="539.648" type="line"/>
      <point x="1081.34" y="461.824"/>
      <point x="1000.45" y="420.864"/>
      <point x="914.432" y="420.864" type="curve" smooth="yes"/>
      <point x="738.304" y="420.864"/>
      <point x="663.552" y="562.176"/>
      <point x="663.552" y="721.92" type="curve" smooth="yes"/>
      <point x="663.552" y="879.616"/>
      <point x="741.376" y="1022.98"/>
      <point x="916.48" y="1022.98" type="curve" smooth="yes"/>
      <point x="1003.52" y="1022.98"/>
      <point x="1080.32" y="984.064"/>
      <point x="1124.35" y="906.24" type="curve"/>
      <point x="1218.56" y="946.176" type="line"/>
      <point x="1164.29" y="1060.86"/>
      <point x="1041.41" y="1127.42"/>
      <point x="916.48" y="1127.42" type="curve" smooth="yes"/>
      <point x="677.888" y="1127.42"/>
      <point x="563.2" y="943.104"/>
      <point x="563.2" y="721.92" type="curve" smooth="yes"/>
      <point x="563.2" y="500.736"/>
      <point x="676.864" y="315.392"/>
    </contour>
  </outline>
</glyph>
<glyph name="ordfeminine" format="2">
  <advance width="720"/>
  <unicode hex="00AA"/>
  <anchor x="626" y="742" name="ogonek"/>
  <anchor x="348" y="1540" name="top"/>
  <anchor x="348" y="1669" name="center"/>
  <anchor x="348" y="641" name="bottom"/>
  <outline>
    <contour>
      <point x="285" y="729" type="curve" smooth="yes" name=".dv01"/>
      <point x="397" y="729"/>
      <point x="482" y="778"/>
      <point x="533" y="877" type="curve" name=".sh01"/>
      <point x="539" y="742" type="line"/>
      <point x="633" y="742" type="line"/>
      <point x="627" y="796"/>
      <point x="626" y="850"/>
      <point x="626" y="903" type="curve" smooth="yes"/>
      <point x="626" y="1179" type="line" smooth="yes" name=".dh03"/>
      <point x="626" y="1350"/>
      <point x="529" y="1468"/>
      <point x="348" y="1468" type="curve" smooth="yes" name=".dv06"/>
      <point x="235" y="1468"/>
      <point x="145" y="1425"/>
      <point x="80" y="1334" type="curve"/>
      <point x="159" y="1269" type="line"/>
      <point x="202" y="1337"/>
      <point x="270" y="1376"/>
      <point x="354" y="1376" type="curve" smooth="yes" name=".dv05"/>
      <point x="490" y="1376"/>
      <point x="528" y="1267"/>
      <point x="528" y="1149" type="curve" name=".av01"/>
      <point x="362" y="1149" type="line" smooth="yes" name=".dv04"/>
      <point x="220" y="1149"/>
      <point x="52" y="1117"/>
      <point x="52" y="942" type="curve" smooth="yes" name=".dh01"/>
      <point x="52" y="803"/>
      <point x="155" y="729"/>
    </contour>
    <contour>
      <point x="297" y="818" type="curve" smooth="yes" name=".dv02"/>
      <point x="220" y="818"/>
      <point x="162" y="857"/>
      <point x="162" y="938" type="curve" smooth="yes" name=".dh02"/>
      <point x="162" y="1058"/>
      <point x="289" y="1069"/>
      <point x="379" y="1069" type="curve" smooth="yes" name=".dv03"/>
      <point x="528" y="1069" type="line" name=".sh02"/>
      <point x="527" y="941"/>
      <point x="431" y="818"/>
    </contour>
  </outline>
</glyph>
<glyph name="guillemotleft" format="2">
  <advance width="989"/>
  <unicode hex="00AB"/>
  <outline>
    <contour>
      <point x="439" y="199" type="line"/>
      <point x="439" y="349" type="line"/>
      <point x="238" y="523" type="line"/>
      <point x="439" y="695" type="line"/>
      <point x="439" y="847" type="line"/>
      <point x="77" y="523" type="line"/>
    </contour>
    <contour>
      <point x="814" y="199" type="line"/>
      <point x="814" y="349" type="line"/>
      <point x="609" y="523" type="line"/>
      <point x="814" y="695" type="line"/>
      <point x="814" y="847" type="line"/>
      <point x="449" y="523" type="line"/>
    </contour>
  </outline>
</glyph>
<glyph name="logicalnot" format="2">
  <advance width="1314"/>
  <unicode hex="00AC"/>
  <outline>
    <contour>
      <point x="1045.5" y="297.984" type="line"/>
      <point x="1045.5" y="814.08" type="line"/>
      <point x="162.816" y="814.08" type="line"/>
      <point x="162.816" y="697.344" type="line"/>
      <point x="923.648" y="697.344" type="line"/>
      <point x="923.648" y="297.984" type="line"/>
    </contour>
  </outline>
</glyph>
<glyph name="softhyphen" format="2">
  <advance width="998"/>
  <unicode hex="00AD"/>
  <outline>
    <contour>
      <point x="827" y="608" type="line"/>
      <point x="827" y="707" type="line"/>
      <point x="171" y="707" type="line"/>
      <point x="171" y="608" type="line"/>
    </contour>
  </outline>
</glyph>
<glyph name="uni00AD" format="2">
  <advance width="999"/>
  <unicode hex="00AD"/>
  <outline>
    <contour>
      <point x="827.392" y="608.256" type="line"/>
      <point x="827.392" y="706.56" type="line"/>
      <point x="171.008" y="706.56" type="line"/>
      <point x="171.008" y="608.256" type="line"/>
    </contour>
  </outline>
</glyph>
<glyph name="registered" format="2">
  <advance width="1798"/>
  <unicode hex="00AE"/>
  <outline>
    <contour>
      <point x="899" y="-50" type="curve" smooth="yes"/>
      <point x="1325" y="-50"/>
      <point x="1662" y="304"/>
      <point x="1662" y="726" type="curve" smooth="yes"/>
      <point x="1662" y="1147"/>
      <point x="1323" y="1501"/>
      <point x="899" y="1501" type="curve" smooth="yes"/>
      <point x="475" y="1501"/>
      <point x="136" y="1147"/>
      <point x="136" y="726" type="curve" smooth="yes"/>
      <point x="136" y="301"/>
      <point x="471" y="-50"/>
    </contour>
    <contour>
      <point x="899" y="46" type="curve" smooth="yes"/>
      <point x="531" y="46"/>
      <point x="230" y="361"/>
      <point x="230" y="726" type="curve" smooth="yes"/>
      <point x="230" y="1090"/>
      <point x="532" y="1405"/>
      <point x="899" y="1405" type="curve" smooth="yes"/>
      <point x="1266" y="1405"/>
      <point x="1566" y="1090"/>
      <point x="1566" y="726" type="curve" smooth="yes"/>
      <point x="1566" y="361"/>
      <point x="1267" y="46"/>
    </contour>
    <contour>
      <point x="650" y="314" type="line"/>
      <point x="759" y="314" type="line"/>
      <point x="759" y="660" type="line"/>
      <point x="937" y="660" type="line"/>
      <point x="1120" y="314" type="line"/>
      <point x="1247" y="314" type="line"/>
      <point x="1039" y="669" type="line"/>
      <point x="1159" y="689"/>
      <point x="1215" y="769"/>
      <point x="1215" y="889" type="curve" smooth="yes"/>
      <point x="1215" y="1058"/>
      <point x="1113" y="1122"/>
      <point x="954" y="1122" type="curve" smooth="yes"/>
      <point x="650" y="1122" type="line"/>
    </contour>
    <contour>
      <point x="954" y="757" type="curve" smooth="yes"/>
      <point x="749" y="757" type="line"/>
      <point x="749" y="1023" type="line"/>
      <point x="954" y="1023" type="line" smooth="yes"/>
      <point x="1048" y="1023"/>
      <point x="1117" y="994"/>
      <point x="1117" y="888" type="curve" smooth="yes"/>
      <point x="1117" y="787"/>
      <point x="1043" y="757"/>
    </contour>
  </outline>
</glyph>
<glyph name="macron" format="2">
  <advance width="668"/>
  <unicode hex="00AF"/>
  <outline>
    <contour>
      <point x="60" y="1268" type="line"/>
      <point x="608" y="1268" type="line"/>
      <point x="608" y="1390" type="line"/>
      <point x="60" y="1390" type="line"/>
    </contour>
  </outline>
</glyph>
<glyph name="degree" format="2">
  <advance width="990"/>
  <unicode hex="00B0"/>
  <outline>
    <contour>
      <point x="495.616" y="869.4" type="curve" smooth="yes"/>
      <point x="660.48" y="869.4"/>
      <point x="795.576" y="1005.57"/>
      <point x="795.576" y="1169.41" type="curve" smooth="yes"/>
      <point x="795.576" y="1330.18"/>
      <point x="657.408" y="1468.42"/>
      <point x="495.616" y="1468.42" type="curve" smooth="yes"/>
      <point x="331.776" y="1468.42"/>
      <point x="196.632" y="1333.25"/>
      <point x="196.632" y="1169.41" type="curve" smooth="yes"/>
      <point x="196.632" y="1003.52"/>
      <point x="328.704" y="869.4"/>
    </contour>
    <contour>
      <point x="495.616" y="947.224" type="curve" smooth="yes"/>
      <point x="374.784" y="947.224"/>
      <point x="274.432" y="1048.58"/>
      <point x="274.432" y="1169.41" type="curve" smooth="yes"/>
      <point x="274.432" y="1289.22"/>
      <point x="376.832" y="1390.57"/>
      <point x="495.616" y="1390.57" type="curve" smooth="yes"/>
      <point x="613.376" y="1390.57"/>
      <point x="717.752" y="1287.17"/>
      <point x="717.752" y="1169.41" type="curve" smooth="yes"/>
      <point x="717.752" y="1050.62"/>
      <point x="615.424" y="947.224"/>
    </contour>
  </outline>
  <guideline angle="90" x="496" y="0"/>
  <guideline angle="0" x="0" y="1169"/>
</glyph>
<glyph name="plusminus" format="2">
  <advance width="1352"/>
  <unicode hex="00B1"/>
  <outline>
    <contour>
      <point x="726.016" y="108.544" type="line"/>
      <point x="726.016" y="591.872" type="line"/>
      <point x="1193.98" y="591.872" type="line"/>
      <point x="1193.98" y="690.176" type="line"/>
      <point x="726.016" y="690.176" type="line"/>
      <point x="726.016" y="1169.41" type="line"/>
      <point x="626.688" y="1169.41" type="line"/>
      <point x="626.688" y="690.176" type="line"/>
      <point x="157.696" y="690.176" type="line"/>
      <point x="157.696" y="591.872" type="line"/>
      <point x="626.688" y="591.872" type="line"/>
      <point x="626.688" y="108.544" type="line"/>
    </contour>
    <contour>
      <point x="1193.98" y="-102.4" type="line"/>
      <point x="1193.98" y="-3.072" type="line"/>
      <point x="157.696" y="-3.072" type="line"/>
      <point x="157.696" y="-102.4" type="line"/>
    </contour>
  </outline>
</glyph>
<glyph name="twosuperior" format="2">
  <advance width="879"/>
  <unicode hex="00B2"/>
  <outline>
    <contour>
      <point x="96.256" y="931.99" type="line"/>
      <point x="765.952" y="931.99" type="line" name=".dv01"/>
      <point x="765.952" y="1015.96" type="line" name=".dv02"/>
      <point x="224.256" y="1015.96" type="line" name=".sh03"/>
      <point x="548.864" y="1220.76"/>
      <point x="717.824" y="1420.77"/>
      <point x="717.824" y="1627.62" type="curve" smooth="yes" name=".sh04"/>
      <point x="717.824" y="1793.51"/>
      <point x="606.208" y="1900.01"/>
      <point x="432.128" y="1900.01" type="curve" smooth="yes" name=".dv04"/>
      <point x="258.048" y="1900.01"/>
      <point x="141.312" y="1773.03"/>
      <point x="141.312" y="1583.59" type="curve" name=".sh01"/>
      <point x="238.592" y="1574.37" type="line" name=".sh02"/>
      <point x="238.592" y="1716.71"/>
      <point x="316.416" y="1809.89"/>
      <point x="436.224" y="1809.89" type="curve" smooth="yes" name=".dv03"/>
      <point x="547.84" y="1809.89"/>
      <point x="613.376" y="1740.26"/>
      <point x="613.376" y="1620.45" type="curve" smooth="yes" name=".ah01"/>
      <point x="613.376" y="1450.47"/>
      <point x="415.744" y="1232.02"/>
      <point x="96.256" y="1026.2" type="curve"/>
    </contour>
  </outline>
</glyph>
<glyph name="threesuperior" format="2">
  <advance width="859"/>
  <unicode hex="00B3"/>
  <outline>
    <contour>
      <point x="430.08" y="896.304" type="curve" smooth="yes" name=".dv01"/>
      <point x="633.856" y="896.304"/>
      <point x="764.928" y="1008.94"/>
      <point x="764.928" y="1186.1" type="curve" smooth="yes" name=".sh01"/>
      <point x="764.928" y="1321.43"/>
      <point x="687.967" y="1414"/>
      <point x="548.722" y="1443.81" type="curve" name=".iv01"/>
      <point x="552.449" y="1420.41" type="line"/>
      <point x="653.434" y="1462.53"/>
      <point x="709.632" y="1544.75"/>
      <point x="709.632" y="1649.97" type="curve" smooth="yes" name=".dh04"/>
      <point x="709.632" y="1796.4"/>
      <point x="592.896" y="1899.82"/>
      <point x="427.008" y="1899.82" type="curve" smooth="yes" name=".dv04"/>
      <point x="260.096" y="1899.82"/>
      <point x="143.36" y="1796.4"/>
      <point x="143.36" y="1648.94" type="curve" name=".ih02"/>
      <point x="234.496" y="1638.7" type="line" name=".sh02"/>
      <point x="234.496" y="1739.06"/>
      <point x="314.368" y="1809.71"/>
      <point x="428.032" y="1809.71" type="curve" smooth="yes" name=".dv03"/>
      <point x="534.528" y="1809.71"/>
      <point x="615.424" y="1734.96"/>
      <point x="615.424" y="1637.68" type="curve" smooth="yes" name=".dh03"/>
      <point x="615.424" y="1534.26"/>
      <point x="551.936" y="1472.82"/>
      <point x="443.392" y="1472.82" type="curve" smooth="yes"/>
      <point x="381.952" y="1472.82" type="line" name=".dv06"/>
      <point x="381.952" y="1381.68" type="line" name=".dv05"/>
      <point x="425.984" y="1381.68" type="line" smooth="yes"/>
      <point x="581.632" y="1381.68"/>
      <point x="671.744" y="1310"/>
      <point x="671.744" y="1187.12" type="curve" smooth="yes" name=".ih01"/>
      <point x="671.744" y="1069.36"/>
      <point x="570.368" y="983.344"/>
      <point x="431.104" y="983.344" type="curve" smooth="yes" name=".dv02"/>
      <point x="288.768" y="983.344"/>
      <point x="186.368" y="1069.36"/>
      <point x="186.368" y="1189.17" type="curve" name=".dh02"/>
      <point x="95.232" y="1179.95" type="line" name=".dh01"/>
      <point x="95.232" y="1005.87"/>
      <point x="224.256" y="896.304"/>
    </contour>
  </outline>
</glyph>
<glyph name="acute" format="2">
  <advance width="551"/>
  <unicode hex="00B4"/>
  <outline>
    <contour>
      <point x="219.112" y="1191.94" type="line"/>
      <point x="483.304" y="1485.82" type="line"/>
      <point x="304.104" y="1485.82" type="line"/>
      <point x="84.968" y="1191.94" type="line"/>
    </contour>
  </outline>
  <guideline angle="90" x="84.968" y="0"/>
  <guideline angle="90" x="471" y="0"/>
</glyph>
<glyph name="uni00B5" format="2">
  <advance width="1172"/>
  <unicode hex="00B5"/>
  <outline>
    <contour>
      <point x="281" y="-273" type="line" name=".av03"/>
      <point x="306" y="64" type="line" name=".iv01"/>
      <point x="277" y="51" type="line"/>
      <point x="349" y="2"/>
      <point x="428" y="-24"/>
      <point x="514" y="-24" type="curve" smooth="yes" name=".dv01"/>
      <point x="659" y="-24"/>
      <point x="798" y="65"/>
      <point x="858" y="199" type="curve" name=".iv02"/>
      <point x="858" y="0" type="line" name=".dh01"/>
      <point x="1000" y="0" type="line" name=".dh02"/>
      <point x="1000" y="1064" type="line" name=".av01"/>
      <point x="858" y="1064" type="line" name=".sh01"/>
      <point x="858" y="444" type="line" smooth="yes"/>
      <point x="858" y="268"/>
      <point x="708" y="102"/>
      <point x="529" y="102" type="curve" smooth="yes" name=".dv02"/>
      <point x="341" y="102"/>
      <point x="302" y="267"/>
      <point x="302" y="423" type="curve" smooth="yes"/>
      <point x="302" y="1064" type="line" name=".av02"/>
      <point x="159" y="1064" type="line" name=".dh03"/>
      <point x="159" y="-273" type="line"/>
    </contour>
  </outline>
</glyph>
<glyph name="paragraph" format="2">
  <advance width="1381"/>
  <unicode hex="00B6"/>
  <outline>
    <contour>
      <point x="729" y="-253" type="line"/>
      <point x="729" y="1448" type="line"/>
      <point x="598" y="1448" type="line" smooth="yes"/>
      <point x="367" y="1448"/>
      <point x="135" y="1299"/>
      <point x="135" y="1048" type="curve" smooth="yes"/>
      <point x="135" y="787"/>
      <point x="357" y="639"/>
      <point x="600" y="639" type="curve"/>
      <point x="600" y="-253" type="line"/>
    </contour>
    <contour>
      <point x="1110" y="-253" type="line"/>
      <point x="1110" y="1448" type="line"/>
      <point x="981" y="1448" type="line"/>
      <point x="981" y="-253" type="line"/>
    </contour>
  </outline>
</glyph>
<glyph name="periodcentered" format="2">
  <advance width="665"/>
  <unicode hex="00B7"/>
  <anchor x="331" y="848" name="_center"/>
  <outline>
    <contour>
      <point x="330.752" y="726.04" type="curve" smooth="yes"/>
      <point x="398.343" y="726.04"/>
      <point x="452.608" y="780.295"/>
      <point x="452.608" y="847.872" type="curve" smooth="yes"/>
      <point x="452.608" y="917.248"/>
      <point x="400.128" y="969.728"/>
      <point x="330.752" y="969.728" type="curve" smooth="yes"/>
      <point x="259.591" y="969.728"/>
      <point x="208.92" y="919.047"/>
      <point x="208.92" y="847.872" type="curve" smooth="yes"/>
      <point x="208.92" y="778.496"/>
      <point x="261.376" y="726.04"/>
    </contour>
  </outline>
  <guideline angle="90" x="331" y="0"/>
  <guideline angle="0" x="0" y="848"/>
</glyph>
<glyph name="cedilla" format="2">
  <advance width="594"/>
  <unicode hex="00B8"/>
  <outline>
    <contour>
      <point x="247.808" y="0" type="line"/>
      <point x="148.437" y="-189.102" type="line"/>
      <point x="237.57" y="-189.102" type="line" smooth="yes"/>
      <point x="326.211" y="-189.102"/>
      <point x="384" y="-238.99"/>
      <point x="384" y="-314.368" type="curve" smooth="yes"/>
      <point x="384" y="-372.957"/>
      <point x="344.997" y="-418.816"/>
      <point x="295.166" y="-418.816" type="curve" smooth="yes"/>
      <point x="235.736" y="-418.816"/>
      <point x="193.378" y="-387.042"/>
      <point x="182.2" y="-346.558" type="curve"/>
      <point x="91.136" y="-390.144" type="line"/>
      <point x="117.271" y="-461.513"/>
      <point x="194.12" y="-514.048"/>
      <point x="285.831" y="-514.048" type="curve" smooth="yes"/>
      <point x="404.249" y="-514.048"/>
      <point x="484.352" y="-430.172"/>
      <point x="484.352" y="-306.176" type="curve" smooth="yes"/>
      <point x="484.352" y="-190.464"/>
      <point x="403.456" y="-132.096"/>
      <point x="293.888" y="-126.976" type="curve"/>
      <point x="361.472" y="0" type="line"/>
    </contour>
  </outline>
</glyph>
<glyph name="onesuperior" format="2">
  <advance width="630"/>
  <unicode hex="00B9"/>
  <outline>
    <contour>
      <point x="430" y="932" type="line" name=".av01"/>
      <point x="430" y="1900" type="line" name=".av02"/>
      <point x="338" y="1900" type="line"/>
      <point x="338" y="1886" type="line" smooth="yes" name=".av03"/>
      <point x="338" y="1810"/>
      <point x="298" y="1760"/>
      <point x="214" y="1760" type="curve" smooth="yes"/>
      <point x="68" y="1760" type="line" name=".dv02"/>
      <point x="68" y="1679" type="line" name=".dv01"/>
      <point x="328" y="1679" type="line" name=".dh01"/>
      <point x="328" y="932" type="line"/>
    </contour>
  </outline>
</glyph>
<glyph name="ordmasculine" format="2">
  <advance width="780"/>
  <unicode hex="00BA"/>
  <anchor x="390" y="1540" name="top"/>
  <anchor x="822" y="1455" name="horn"/>
  <anchor x="465" y="742" name="ogonek"/>
  <outline>
    <contour>
      <point x="390" y="729" type="curve" smooth="yes" name=".dv01"/>
      <point x="601" y="729"/>
      <point x="726" y="870"/>
      <point x="726" y="1098" type="curve" smooth="yes" name=".sh01"/>
      <point x="726" y="1324"/>
      <point x="598" y="1468"/>
      <point x="390" y="1468" type="curve" smooth="yes" name=".dv04"/>
      <point x="183" y="1468"/>
      <point x="54" y="1324"/>
      <point x="54" y="1098" type="curve" smooth="yes" name=".sh02"/>
      <point x="54" y="873"/>
      <point x="183" y="729"/>
    </contour>
    <contour>
      <point x="390" y="824" type="curve" smooth="yes" name=".dv02"/>
      <point x="255" y="824"/>
      <point x="170" y="942"/>
      <point x="170" y="1098" type="curve" smooth="yes" name=".sh03"/>
      <point x="170" y="1258"/>
      <point x="253" y="1372"/>
      <point x="390" y="1372" type="curve" smooth="yes" name=".dv03"/>
      <point x="529" y="1372"/>
      <point x="610" y="1260"/>
      <point x="610" y="1098" type="curve" smooth="yes" name=".ah01"/>
      <point x="610" y="937"/>
      <point x="531" y="824"/>
    </contour>
  </outline>
</glyph>
<glyph name="guillemotright" format="2">
  <advance width="989"/>
  <unicode hex="00BB"/>
  <outline>
    <contour>
      <point x="173.056" y="198.656" type="line"/>
      <point x="535.552" y="523.264" type="line"/>
      <point x="173.056" y="846.848" type="line"/>
      <point x="173.056" y="695.296" type="line"/>
      <point x="375.808" y="523.264" type="line"/>
      <point x="173.056" y="349.184" type="line"/>
    </contour>
    <contour>
      <point x="544.768" y="198.656" type="line"/>
      <point x="910.336" y="523.264" type="line"/>
      <point x="544.768" y="846.848" type="line"/>
      <point x="544.768" y="695.296" type="line"/>
      <point x="746.496" y="523.264" type="line"/>
      <point x="544.768" y="349.184" type="line"/>
    </contour>
  </outline>
</glyph>
<glyph name="questiondown" format="2">
  <advance width="1051"/>
  <unicode hex="00BF"/>
  <outline>
    <contour>
      <point x="622" y="842" type="line"/>
      <point x="622" y="1022" type="line"/>
      <point x="438" y="1022" type="line"/>
      <point x="438" y="842" type="line"/>
    </contour>
    <contour>
      <point x="540" y="-445" type="curve" smooth="yes"/>
      <point x="765" y="-445"/>
      <point x="945" y="-304"/>
      <point x="945" y="-72" type="curve"/>
      <point x="815" y="-72" type="line"/>
      <point x="815" y="-232"/>
      <point x="689" y="-328"/>
      <point x="534" y="-328" type="curve" smooth="yes"/>
      <point x="382" y="-328"/>
      <point x="251" y="-253"/>
      <point x="251" y="-86" type="curve" smooth="yes"/>
      <point x="251" y="21"/>
      <point x="302" y="95"/>
      <point x="417" y="153" type="curve" smooth="yes"/>
      <point x="506" y="198"/>
      <point x="595" y="250"/>
      <point x="595" y="420" type="curve" smooth="yes"/>
      <point x="595" y="646" type="line"/>
      <point x="473" y="646" type="line"/>
      <point x="473" y="415" type="line" smooth="yes"/>
      <point x="473" y="339"/>
      <point x="451" y="292"/>
      <point x="355" y="239" type="curve" smooth="yes"/>
      <point x="182" y="143"/>
      <point x="123" y="61"/>
      <point x="123" y="-82" type="curve" smooth="yes"/>
      <point x="123" y="-325"/>
      <point x="316" y="-445"/>
    </contour>
  </outline>
</glyph>
<glyph name="AE" format="2">
  <advance width="1852"/>
  <unicode hex="00C6"/>
  <anchor x="1062" y="1617.92" name="top"/>
  <outline>
    <contour>
      <point x="1738.75" y="0" type="line" name=".dv01"/>
      <point x="1738.75" y="118.784" type="line" name=".dv02"/>
      <point x="971.776" y="118.784" type="line" name=".dh02"/>
      <point x="971.776" y="663.552" type="line" name=".dv07"/>
      <point x="1647.62" y="663.552" type="line"/>
      <point x="1647.62" y="782.336" type="line"/>
      <point x="971.776" y="782.336" type="line" name=".dv08"/>
      <point x="971.776" y="1335.3" type="line" name=".sv01"/>
      <point x="1738.75" y="1335.3" type="line"/>
      <point x="1738.75" y="1446.91" type="line" name=".av01"/>
      <point x="609.28" y="1446.91" type="line" name=".dv04"/>
      <point x="76.7999" y="0" type="line" name=".sv02"/>
      <point x="223.232" y="0" type="line"/>
      <point x="336.896" y="314.368" type="line" name=".dv05"/>
      <point x="831.488" y="314.368" type="line"/>
      <point x="831.488" y="0" type="line" name=".dh01"/>
    </contour>
    <contour>
      <point x="831.488" y="444.416" type="line" name=".sh01"/>
      <point x="379.904" y="444.416" type="line" name=".dv06"/>
      <point x="699.392" y="1335.3" type="line" name=".dv03"/>
      <point x="831.488" y="1335.3" type="line"/>
    </contour>
  </outline>
  <guideline angle="90" name="vertical" x="1062" y="0"/>
</glyph>
<glyph name="Ccedilla" format="2">
  <advance width="1453"/>
  <unicode hex="00C7"/>
  <anchor x="776" y="1620" name="top"/>
  <outline>
    <contour>
      <point x="531" y="-390" type="line"/>
      <point x="557" y="-461"/>
      <point x="634" y="-514"/>
      <point x="726" y="-514" type="curve" smooth="yes"/>
      <point x="844" y="-514"/>
      <point x="924" y="-430"/>
      <point x="924" y="-306" type="curve" smooth="yes"/>
      <point x="924" y="-190"/>
      <point x="844" y="-132"/>
      <point x="734" y="-127" type="curve"/>
      <point x="791" y="-20" type="line"/>
      <point x="1050" y="-15"/>
      <point x="1251" y="121"/>
      <point x="1355" y="358" type="curve"/>
      <point x="1227" y="416" type="line"/>
      <point x="1158" y="207"/>
      <point x="990" y="111"/>
      <point x="777" y="111" type="curve" smooth="yes"/>
      <point x="412" y="111"/>
      <point x="281" y="413"/>
      <point x="281" y="734" type="curve" smooth="yes"/>
      <point x="281" y="1048"/>
      <point x="420" y="1337"/>
      <point x="773" y="1337" type="curve" smooth="yes"/>
      <point x="981" y="1337"/>
      <point x="1164" y="1246"/>
      <point x="1226" y="1036" type="curve"/>
      <point x="1353" y="1093" type="line"/>
      <point x="1243" y="1339"/>
      <point x="1044" y="1468"/>
      <point x="775" y="1468" type="curve" smooth="yes"/>
      <point x="337" y="1468"/>
      <point x="137" y="1124"/>
      <point x="137" y="724" type="curve" smooth="yes"/>
      <point x="137" y="351"/>
      <point x="307" y="32"/>
      <point x="681" y="-14" type="curve"/>
      <point x="599" y="-168" type="line"/>
      <point x="617" y="-189" type="line"/>
      <point x="678" y="-189" type="line" smooth="yes"/>
      <point x="767" y="-189"/>
      <point x="824" y="-239"/>
      <point x="824" y="-314" type="curve" smooth="yes"/>
      <point x="824" y="-373"/>
      <point x="785" y="-419"/>
      <point x="735" y="-419" type="curve" smooth="yes"/>
      <point x="676" y="-419"/>
      <point x="633" y="-387"/>
      <point x="622" y="-347" type="curve"/>
    </contour>
  </outline>
</glyph>
<glyph name="Eth" format="2">
  <advance width="1459"/>
  <unicode hex="00D0"/>
  <outline>
    <component base="D" xOffset="17"/>
    <contour>
      <point x="87" y="780" type="line"/>
      <point x="87" y="679" type="line"/>
      <point x="741" y="679" type="line"/>
      <point x="741" y="780" type="line"/>
    </contour>
  </outline>
</glyph>
<glyph name="multiply" format="2">
  <advance width="1136"/>
  <unicode hex="00D7"/>
  <outline>
    <contour>
      <point x="237" y="238" type="line"/>
      <point x="569" y="569" type="line"/>
      <point x="908" y="228" type="line"/>
      <point x="978" y="300" type="line"/>
      <point x="639" y="640" type="line"/>
      <point x="971" y="971" type="line"/>
      <point x="899" y="1040" type="line"/>
      <point x="569" y="709" type="line"/>
      <point x="227" y="1050" type="line"/>
      <point x="158" y="978" type="line"/>
      <point x="498" y="640" type="line"/>
      <point x="166" y="307" type="line"/>
    </contour>
  </outline>
</glyph>
<glyph name="Oslash" format="2">
  <advance width="1551"/>
  <unicode hex="00D8"/>
  <anchor x="777.216" y="1617.92" name="top"/>
  <outline>
    <contour>
      <point x="774.144" y="-20.48" type="curve" smooth="yes"/>
      <point x="1209.34" y="-20.48"/>
      <point x="1415.17" y="324.608"/>
      <point x="1415.17" y="723.968" type="curve" smooth="yes"/>
      <point x="1415.17" y="947.2"/>
      <point x="1346.56" y="1183.74"/>
      <point x="1173.5" y="1334.27" type="curve"/>
      <point x="1235.97" y="1446.91" type="line"/>
      <point x="1120.26" y="1446.91" type="line"/>
      <point x="1088.51" y="1392.64" type="line"/>
      <point x="991.232" y="1445.89"/>
      <point x="883.712" y="1468.42"/>
      <point x="774.144" y="1468.42" type="curve" smooth="yes"/>
      <point x="340.992" y="1468.42"/>
      <point x="136.192" y="1120.26"/>
      <point x="136.192" y="723.968" type="curve" smooth="yes"/>
      <point x="136.192" y="502.784"/>
      <point x="199.68" y="262.144"/>
      <point x="374.784" y="114.688" type="curve"/>
      <point x="310.272" y="0" type="line"/>
      <point x="425.984" y="0" type="line"/>
      <point x="457.728" y="56.32" type="line"/>
      <point x="555.008" y="2.048"/>
      <point x="663.552" y="-20.48"/>
    </contour>
    <contour>
      <point x="441.344" y="234.496" type="line"/>
      <point x="312.32" y="363.52"/>
      <point x="268.288" y="546.816"/>
      <point x="268.288" y="723.968" type="curve" smooth="yes"/>
      <point x="268.288" y="1041.41"/>
      <point x="418.816" y="1337.34"/>
      <point x="774.144" y="1337.34" type="curve" smooth="yes"/>
      <point x="861.184" y="1337.34"/>
      <point x="947.2" y="1318.91"/>
      <point x="1025.02" y="1276.93" type="curve"/>
    </contour>
    <contour>
      <point x="774.144" y="109.568" type="curve" smooth="yes"/>
      <point x="687.104" y="109.568"/>
      <point x="600.064" y="126.976"/>
      <point x="523.264" y="172.032" type="curve"/>
      <point x="1107.97" y="1215.49" type="line"/>
      <point x="1239.04" y="1090.56"/>
      <point x="1284.1" y="899.072"/>
      <point x="1284.1" y="723.968" type="curve" smooth="yes"/>
      <point x="1284.1" y="401.408"/>
      <point x="1132.54" y="109.568"/>
    </contour>
  </outline>
  <guideline angle="90" name="vertical" x="777.216" y="0"/>
</glyph>
<glyph name="Thorn" format="2">
  <advance width="1179"/>
  <unicode hex="00DE"/>
  <outline>
    <contour>
      <point x="367" y="0" type="line"/>
      <point x="367" y="452" type="line"/>
      <point x="624" y="452" type="line" smooth="yes"/>
      <point x="866" y="452"/>
      <point x="1077" y="570"/>
      <point x="1077" y="840" type="curve" smooth="yes"/>
      <point x="1077" y="1107"/>
      <point x="877" y="1240"/>
      <point x="627" y="1240" type="curve" smooth="yes"/>
      <point x="367" y="1240" type="line"/>
      <point x="367" y="1447" type="line"/>
      <point x="226" y="1447" type="line"/>
      <point x="226" y="0" type="line"/>
    </contour>
    <contour>
      <point x="624" y="582" type="curve" smooth="yes"/>
      <point x="367" y="582" type="line"/>
      <point x="367" y="1099" type="line"/>
      <point x="624" y="1099" type="line" smooth="yes"/>
      <point x="793" y="1099"/>
      <point x="937" y="1026"/>
      <point x="937" y="838" type="curve" smooth="yes"/>
      <point x="937" y="648"/>
      <point x="793" y="582"/>
    </contour>
  </outline>
</glyph>
<glyph name="germandbls" format="2">
  <advance width="1223"/>
  <unicode hex="00DF"/>
  <outline>
    <contour>
      <point x="188.416" y="0" type="line"/>
      <point x="318.464" y="0" type="line"/>
      <point x="318.464" y="1007.02" type="line" smooth="yes"/>
      <point x="318.464" y="1204.65"/>
      <point x="392.459" y="1345.54"/>
      <point x="637.195" y="1345.54" type="curve" smooth="yes"/>
      <point x="786.014" y="1345.54"/>
      <point x="871.424" y="1281.75"/>
      <point x="871.424" y="1170.6" type="curve" smooth="yes"/>
      <point x="871.424" y="1084.58"/>
      <point x="816.128" y="1012.74"/>
      <point x="752.64" y="967.68" type="curve" smooth="yes"/>
      <point x="692.224" y="924.672"/>
      <point x="649.955" y="868.585"/>
      <point x="649.955" y="791.552" type="curve" smooth="yes"/>
      <point x="649.955" y="676.864"/>
      <point x="708.608" y="599.04"/>
      <point x="799.744" y="540.672" type="curve" smooth="yes"/>
      <point x="899.072" y="478.208"/>
      <point x="966.656" y="406.528"/>
      <point x="966.656" y="293.888" type="curve" smooth="yes"/>
      <point x="966.656" y="191.488"/>
      <point x="847.872" y="116.736"/>
      <point x="754.688" y="116.736" type="curve" smooth="yes"/>
      <point x="672.768" y="116.736"/>
      <point x="595.968" y="141.312"/>
      <point x="525.312" y="181.248" type="curve"/>
      <point x="465.92" y="54.272" type="line"/>
      <point x="559.104" y="10.24"/>
      <point x="651.264" y="-18.432"/>
      <point x="753.664" y="-18.432" type="curve" smooth="yes"/>
      <point x="944.128" y="-18.432"/>
      <point x="1100.8" y="115.712"/>
      <point x="1100.8" y="311.296" type="curve" smooth="yes"/>
      <point x="1100.8" y="463.872"/>
      <point x="1001.47" y="547.84"/>
      <point x="907.264" y="611.328" type="curve" smooth="yes"/>
      <point x="832.512" y="661.504"/>
      <point x="778.352" y="714.752"/>
      <point x="778.352" y="789.504" type="curve" smooth="yes"/>
      <point x="778.352" y="862.208"/>
      <point x="824.32" y="897.024"/>
      <point x="880.64" y="933.888" type="curve" smooth="yes"/>
      <point x="944.128" y="975.872"/>
      <point x="1011.71" y="1050.79"/>
      <point x="1011.71" y="1157.29" type="curve" smooth="yes"/>
      <point x="1011.71" y="1345.59"/>
      <point x="862.245" y="1468.42"/>
      <point x="633.099" y="1468.42" type="curve" smooth="yes"/>
      <point x="313.62" y="1468.42"/>
      <point x="188.416" y="1274.28"/>
      <point x="188.416" y="987.562" type="curve" smooth="yes"/>
    </contour>
  </outline>
</glyph>
<glyph name="ae" format="2">
  <advance width="1752"/>
  <unicode hex="00E6"/>
  <anchor x="875.52" y="1191.94" name="top"/>
  <outline>
    <contour>
      <point x="417.792" y="-20.48" type="curve" smooth="yes"/>
      <point x="649.405" y="-20.48"/>
      <point x="814.492" y="105.562"/>
      <point x="868.771" y="323.838" type="curve"/>
      <point x="829.66" y="324.139" type="line"/>
      <point x="880.999" y="103.823"/>
      <point x="1024.76" y="-12.288"/>
      <point x="1246.21" y="-12.288" type="curve" smooth="yes"/>
      <point x="1414.15" y="-12.288"/>
      <point x="1532.07" y="33.9627"/>
      <point x="1640.45" y="142.336" type="curve"/>
      <point x="1553.41" y="216.064" type="line"/>
      <point x="1479.02" y="137.246"/>
      <point x="1386.16" y="103.424"/>
      <point x="1244.16" y="103.424" type="curve" smooth="yes"/>
      <point x="1044.97" y="103.424"/>
      <point x="923.648" y="249.55"/>
      <point x="923.648" y="489.472" type="curve"/>
      <point x="1660.93" y="489.472" type="line"/>
      <point x="1663.3" y="498.944"/>
      <point x="1664" y="507.392"/>
      <point x="1664" y="526.336" type="curve" smooth="yes"/>
      <point x="1664" y="900.088"/>
      <point x="1523.39" y="1084.25"/>
      <point x="1226.75" y="1084.25" type="curve" smooth="yes"/>
      <point x="1079.96" y="1084.25"/>
      <point x="961.56" y="1012.5"/>
      <point x="875.52" y="871.424" type="curve"/>
      <point x="826.603" y="998.772"/>
      <point x="689.121" y="1084.34"/>
      <point x="530.432" y="1084.34" type="curve" smooth="yes"/>
      <point x="356.506" y="1084.34"/>
      <point x="231.765" y="1020.72"/>
      <point x="130.048" y="886.784" type="curve"/>
      <point x="233.472" y="817.152" type="line"/>
      <point x="298.866" y="913.686"/>
      <point x="410.102" y="976.824"/>
      <point x="523.264" y="976.824" type="curve" smooth="yes"/>
      <point x="708.461" y="976.824"/>
      <point x="805.888" y="846.946"/>
      <point x="805.888" y="600.064" type="curve"/>
      <point x="465.92" y="600.064" type="line" smooth="yes"/>
      <point x="220.517" y="600.064"/>
      <point x="89.088" y="490.421"/>
      <point x="89.088" y="285.696" type="curve" smooth="yes"/>
      <point x="89.088" y="112.496"/>
      <point x="231.849" y="-20.48"/>
    </contour>
    <contour>
      <point x="923.648" y="602.112" type="line"/>
      <point x="923.648" y="818.18"/>
      <point x="1050.87" y="981.464"/>
      <point x="1226.75" y="981.464" type="curve" smooth="yes"/>
      <point x="1417.42" y="981.464"/>
      <point x="1539.07" y="829.43"/>
      <point x="1539.07" y="602.112" type="curve"/>
    </contour>
    <contour>
      <point x="456.704" y="92.16" type="curve" smooth="yes"/>
      <point x="337.329" y="92.16"/>
      <point x="227.328" y="181.536"/>
      <point x="227.328" y="278.528" type="curve" smooth="yes"/>
      <point x="227.328" y="407.881"/>
      <point x="318.424" y="489.472"/>
      <point x="462.848" y="489.472" type="curve" smooth="yes"/>
      <point x="808.96" y="489.472" type="line"/>
      <point x="768.985" y="222.05"/>
      <point x="653.824" y="92.16"/>
    </contour>
  </outline>
  <guideline angle="90" name="vertical" x="875.52" y="0"/>
</glyph>
<glyph name="eth" format="2">
  <advance width="1208"/>
  <unicode hex="00F0"/>
  <outline>
    <contour>
      <point x="595.968" y="-16.384" type="curve" smooth="yes"/>
      <point x="901.12" y="-16.384"/>
      <point x="1089.54" y="239.616"/>
      <point x="1089.54" y="529.408" type="curve" smooth="yes"/>
      <point x="1089.54" y="907.264"/>
      <point x="992.256" y="1208.32"/>
      <point x="665.6" y="1426.43" type="curve"/>
      <point x="730.112" y="1511.42" type="line"/>
      <point x="634.88" y="1563.65" type="line"/>
      <point x="569.344" y="1476.61" type="line"/>
      <point x="507.904" y="1506.3"/>
      <point x="446.464" y="1529.86"/>
      <point x="384" y="1553.41" type="curve"/>
      <point x="312.32" y="1460.22" type="line"/>
      <point x="374.784" y="1436.67"/>
      <point x="435.2" y="1409.02"/>
      <point x="496.64" y="1380.35" type="curve"/>
      <point x="399.36" y="1251.33" type="line"/>
      <point x="490.496" y="1198.08" type="line"/>
      <point x="589.824" y="1328.13" type="line"/>
      <point x="717.824" y="1246.21"/>
      <point x="839.68" y="1136.64"/>
      <point x="872.448" y="983.04" type="curve"/>
      <point x="800.768" y="1056.77"/>
      <point x="675.84" y="1085.44"/>
      <point x="577.536" y="1085.44" type="curve" smooth="yes"/>
      <point x="274.432" y="1085.44"/>
      <point x="102.4" y="832.512"/>
      <point x="102.4" y="548.864" type="curve" smooth="yes"/>
      <point x="102.4" y="254.976"/>
      <point x="277.504" y="-16.384"/>
    </contour>
    <contour>
      <point x="602.112" y="109.568" type="curve" smooth="yes"/>
      <point x="352.256" y="109.568"/>
      <point x="252.928" y="330.752"/>
      <point x="252.928" y="548.864" type="curve" smooth="yes"/>
      <point x="252.928" y="759.808"/>
      <point x="350.208" y="977.92"/>
      <point x="591.872" y="977.92" type="curve" smooth="yes"/>
      <point x="837.632" y="977.92"/>
      <point x="940.032" y="766.976"/>
      <point x="940.032" y="549.888" type="curve" smooth="yes"/>
      <point x="940.032" y="340.992"/>
      <point x="842.752" y="109.568"/>
    </contour>
  </outline>
</glyph>
<glyph name="divide" format="2">
  <advance width="919"/>
  <unicode hex="00F7"/>
  <outline>
    <contour>
      <point x="545.792" y="940.032" type="line"/>
      <point x="545.792" y="1121.28" type="line"/>
      <point x="362.496" y="1121.28" type="line"/>
      <point x="362.496" y="940.032" type="line"/>
    </contour>
    <contour>
      <point x="770.048" y="592.896" type="line"/>
      <point x="770.048" y="692.224" type="line"/>
      <point x="138.24" y="692.224" type="line"/>
      <point x="138.24" y="592.896" type="line"/>
    </contour>
    <contour>
      <point x="545.792" y="145.408" type="line"/>
      <point x="545.792" y="325.632" type="line"/>
      <point x="362.496" y="325.632" type="line"/>
      <point x="362.496" y="145.408" type="line"/>
    </contour>
  </outline>
</glyph>
<glyph name="oslash" format="2">
  <advance width="1171"/>
  <unicode hex="00F8"/>
  <anchor x="588.8" y="1191.94" name="top"/>
  <outline>
    <contour>
      <point x="586.752" y="-20.48" type="curve" smooth="yes"/>
      <point x="888.832" y="-20.48"/>
      <point x="1080.32" y="246.784"/>
      <point x="1080.32" y="530.432" type="curve" smooth="yes"/>
      <point x="1080.32" y="701.44"/>
      <point x="1015.81" y="872.448"/>
      <point x="880.64" y="980.992" type="curve"/>
      <point x="927.744" y="1062.91" type="line"/>
      <point x="842.752" y="1062.91" type="line"/>
      <point x="817.152" y="1020.93" type="line"/>
      <point x="747.52" y="1058.82"/>
      <point x="669.696" y="1077.25"/>
      <point x="590.848" y="1077.25" type="curve" smooth="yes"/>
      <point x="287.744" y="1077.25"/>
      <point x="99.328" y="809.984"/>
      <point x="99.328" y="525.312" type="curve" smooth="yes"/>
      <point x="99.328" y="353.28"/>
      <point x="160.768" y="190.464"/>
      <point x="292.864" y="76.8" type="curve"/>
      <point x="248.832" y="1.024" type="line"/>
      <point x="332.8" y="1.024" type="line"/>
      <point x="354.304" y="36.864" type="line"/>
      <point x="427.008" y="-3.072"/>
      <point x="504.832" y="-20.48"/>
    </contour>
    <contour>
      <point x="358.4" y="194.56" type="line"/>
      <point x="268.288" y="284.672"/>
      <point x="242.688" y="405.504"/>
      <point x="242.688" y="528.384" type="curve" smooth="yes"/>
      <point x="242.688" y="742.4"/>
      <point x="348.16" y="956.416"/>
      <point x="588.8" y="956.416" type="curve" smooth="yes"/>
      <point x="647.168" y="956.416"/>
      <point x="705.536" y="943.104"/>
      <point x="757.76" y="914.432" type="curve"/>
    </contour>
    <contour>
      <point x="588.8" y="99.328" type="curve" smooth="yes"/>
      <point x="527.36" y="99.328"/>
      <point x="468.992" y="113.664"/>
      <point x="416.768" y="146.432" type="curve"/>
      <point x="817.152" y="868.352" type="line"/>
      <point x="906.24" y="773.12"/>
      <point x="935.936" y="655.36"/>
      <point x="935.936" y="528.384" type="curve" smooth="yes"/>
      <point x="935.936" y="313.344"/>
      <point x="831.488" y="99.328"/>
    </contour>
  </outline>
  <guideline angle="90" name="vertical" x="588.8" y="0"/>
</glyph>
<glyph name="thorn" format="2">
  <advance width="1191"/>
  <unicode hex="00FE"/>
  <outline>
    <contour>
      <point x="335" y="-450" type="line"/>
      <point x="335" y="162" type="line"/>
      <point x="413" y="39"/>
      <point x="524" y="-20"/>
      <point x="679" y="-20" type="curve" smooth="yes"/>
      <point x="923" y="-20"/>
      <point x="1092" y="205"/>
      <point x="1092" y="531" type="curve" smooth="yes"/>
      <point x="1092" y="857"/>
      <point x="923" y="1085"/>
      <point x="683" y="1085" type="curve" smooth="yes"/>
      <point x="524" y="1085"/>
      <point x="413" y="1027"/>
      <point x="335" y="902" type="curve"/>
      <point x="335" y="1448" type="line"/>
      <point x="190" y="1448" type="line"/>
      <point x="190" y="-450" type="line"/>
    </contour>
    <contour>
      <point x="638" y="102" type="curve" smooth="yes"/>
      <point x="446" y="102"/>
      <point x="319" y="273"/>
      <point x="319" y="532" type="curve" smooth="yes"/>
      <point x="319" y="786"/>
      <point x="447" y="961"/>
      <point x="633" y="961" type="curve" smooth="yes"/>
      <point x="827" y="961"/>
      <point x="952" y="792"/>
      <point x="952" y="532" type="curve" smooth="yes"/>
      <point x="952" y="270"/>
      <point x="830" y="102"/>
    </contour>
  </outline>
</glyph>
<glyph name="dcaron" format="2">
  <advance width="1247"/>
  <unicode hex="010F"/>
  <outline>
    <component base="d"/>
    <contour>
      <point x="1221.63" y="1096.7" type="line"/>
      <point x="1437.7" y="1446.91" type="line"/>
      <point x="1224.7" y="1446.91" type="line"/>
      <point x="1118.21" y="1096.7" type="line"/>
    </contour>
  </outline>
</glyph>
<glyph name="dcroat" format="2">
  <advance width="1182"/>
  <unicode hex="0111"/>
  <outline>
    <component base="d"/>
    <contour>
      <point x="541.696" y="1319.94" type="line"/>
      <point x="541.696" y="1212.42" type="line"/>
      <point x="1210.37" y="1212.42" type="line"/>
      <point x="1210.37" y="1319.94" type="line"/>
    </contour>
  </outline>
</glyph>
<glyph name="uni0123" format="2">
  <advance width="1067"/>
  <unicode hex="0123"/>
  <outline>
    <component base="g"/>
    <contour>
      <point x="649" y="1192" type="line"/>
      <point x="775" y="1463" type="line"/>
      <point x="673" y="1463" type="line"/>
      <point x="435" y="1192" type="line"/>
    </contour>
  </outline>
</glyph>
<glyph name="Hbar" format="2">
  <advance width="1485"/>
  <unicode hex="0126"/>
  <outline>
    <contour>
      <point x="1260.54" y="0" type="line"/>
      <point x="1260.54" y="1103.87" type="line"/>
      <point x="1377.28" y="1103.87" type="line"/>
      <point x="1377.28" y="1181.7" type="line"/>
      <point x="1260.54" y="1181.7" type="line"/>
      <point x="1260.54" y="1446.91" type="line"/>
      <point x="1120.26" y="1446.91" type="line"/>
      <point x="1120.26" y="1181.7" type="line"/>
      <point x="364.544" y="1181.7" type="line"/>
      <point x="364.544" y="1446.91" type="line"/>
      <point x="225.28" y="1446.91" type="line"/>
      <point x="225.28" y="1181.7" type="line"/>
      <point x="104.448" y="1181.7" type="line"/>
      <point x="104.448" y="1103.87" type="line"/>
      <point x="225.28" y="1103.87" type="line"/>
      <point x="225.28" y="0" type="line"/>
      <point x="364.544" y="0" type="line"/>
      <point x="364.544" y="667.648" type="line"/>
      <point x="1120.26" y="667.648" type="line"/>
      <point x="1120.26" y="0" type="line"/>
    </contour>
    <contour>
      <point x="1120.26" y="780.288" type="line"/>
      <point x="364.544" y="780.288" type="line"/>
      <point x="364.544" y="1103.87" type="line"/>
      <point x="1120.26" y="1103.87" type="line"/>
    </contour>
  </outline>
</glyph>
<glyph name="hbar" format="2">
  <advance width="1174"/>
  <unicode hex="0127"/>
  <outline>
    <component base="h"/>
    <contour>
      <point x="-12" y="1292" type="line"/>
      <point x="-12" y="1186" type="line"/>
      <point x="655" y="1186" type="line"/>
      <point x="655" y="1292" type="line"/>
    </contour>
  </outline>
</glyph>
<glyph name="dotlessi" format="2">
  <advance width="500"/>
  <unicode hex="0131"/>
  <anchor x="250" y="1192" name="top"/>
  <anchor x="320" y="0" name="ogonek"/>
  <outline>
    <contour>
      <point x="180" y="0" type="line"/>
      <point x="320" y="0" type="line"/>
      <point x="320" y="1064" type="line"/>
      <point x="180" y="1064" type="line"/>
    </contour>
  </outline>
</glyph>
<glyph name="kgreenlandic" format="2">
  <advance width="1086"/>
  <unicode hex="0138"/>
  <outline>
    <contour>
      <point x="1049" y="0" type="line"/>
      <point x="642" y="673" type="line"/>
      <point x="979" y="1064" type="line"/>
      <point x="812" y="1064" type="line"/>
      <point x="318" y="488" type="line"/>
      <point x="318" y="1064" type="line"/>
      <point x="187" y="1064" type="line"/>
      <point x="187" y="0" type="line"/>
      <point x="318" y="0" type="line"/>
      <point x="318" y="310" type="line"/>
      <point x="556" y="569" type="line"/>
      <point x="887" y="0" type="line"/>
    </contour>
  </outline>
</glyph>
<glyph name="Lcaron" format="2">
  <advance width="1067"/>
  <unicode hex="013D"/>
  <outline>
    <contour>
      <point x="703" y="1056" type="line"/>
      <point x="911" y="1447" type="line"/>
      <point x="707" y="1447" type="line"/>
      <point x="604" y="1056" type="line"/>
    </contour>
    <contour>
      <point x="985" y="0" type="line"/>
      <point x="985" y="126" type="line"/>
      <point x="366" y="126" type="line"/>
      <point x="366" y="1448" type="line"/>
      <point x="225" y="1448" type="line"/>
      <point x="225" y="0" type="line"/>
    </contour>
  </outline>
</glyph>
<glyph name="lcaron" format="2">
  <advance width="696"/>
  <unicode hex="013E"/>
  <outline>
    <contour>
      <point x="556.032" y="1055.74" type="line"/>
      <point x="773.12" y="1446.91" type="line"/>
      <point x="560.128" y="1446.91" type="line"/>
      <point x="452.608" y="1055.74" type="line"/>
    </contour>
    <contour>
      <point x="353" y="-20" type="curve" smooth="yes"/>
      <point x="397" y="-20"/>
      <point x="439.96" y="-12.976"/>
      <point x="482" y="-1" type="curve"/>
      <point x="482" y="104" type="line"/>
      <point x="449" y="98"/>
      <point x="413.432" y="92.902"/>
      <point x="377" y="93" type="curve" smooth="yes"/>
      <point x="345" y="93.086"/>
      <point x="325" y="114.542"/>
      <point x="325" y="147" type="curve" smooth="yes"/>
      <point x="325" y="1448" type="line"/>
      <point x="185" y="1448" type="line"/>
      <point x="185" y="159" type="line" smooth="yes"/>
      <point x="185" y="36"/>
      <point x="245" y="-20"/>
    </contour>
  </outline>
</glyph>
<glyph name="ldot" format="2">
  <advance width="633"/>
  <unicode hex="0140"/>
  <outline>
    <component base="l"/>
    <contour>
      <point x="518.144" y="591.872" type="curve" smooth="yes"/>
      <point x="584.704" y="591.872"/>
      <point x="640" y="647.168"/>
      <point x="640" y="713.728" type="curve" smooth="yes"/>
      <point x="640" y="782.336"/>
      <point x="585.728" y="834.56"/>
      <point x="518.144" y="834.56" type="curve" smooth="yes"/>
      <point x="444.416" y="834.56"/>
      <point x="397.312" y="787.456"/>
      <point x="397.312" y="713.728" type="curve" smooth="yes"/>
      <point x="397.312" y="648.192"/>
      <point x="452.608" y="591.872"/>
    </contour>
  </outline>
</glyph>
<glyph name="Lslash" format="2">
  <advance width="1079"/>
  <unicode hex="0141"/>
  <outline>
    <contour>
      <point x="55" y="600" type="line"/>
      <point x="55" y="440" type="line"/>
      <point x="726" y="889" type="line"/>
      <point x="726" y="1049" type="line"/>
    </contour>
    <contour>
      <point x="1001" y="-1" type="line"/>
      <point x="1001" y="125" type="line"/>
      <point x="382" y="125" type="line"/>
      <point x="382" y="1447" type="line"/>
      <point x="241" y="1447" type="line"/>
      <point x="241" y="-1" type="line"/>
    </contour>
  </outline>
</glyph>
<glyph name="lslash" format="2">
  <advance width="549"/>
  <unicode hex="0142"/>
  <outline>
    <contour>
      <point x="55.168" y="599.871" type="line"/>
      <point x="55.168" y="459.95" type="line"/>
      <point x="533" y="779.437" type="line"/>
      <point x="533" y="919.854" type="line"/>
    </contour>
    <contour>
      <point x="353" y="-20" type="curve" smooth="yes"/>
      <point x="397" y="-20"/>
      <point x="439.96" y="-12.976"/>
      <point x="482" y="-1" type="curve"/>
      <point x="482" y="104" type="line"/>
      <point x="449" y="98"/>
      <point x="413.432" y="92.902"/>
      <point x="377" y="93" type="curve" smooth="yes"/>
      <point x="345" y="93.086"/>
      <point x="325" y="114.542"/>
      <point x="325" y="147" type="curve" smooth="yes"/>
      <point x="325" y="1448" type="line"/>
      <point x="185" y="1448" type="line"/>
      <point x="185" y="159" type="line" smooth="yes"/>
      <point x="185" y="36"/>
      <point x="245" y="-20"/>
    </contour>
  </outline>
  <guideline angle="213.788" x="726" y="1049"/>
  <guideline angle="33.7885" x="55" y="460"/>
  <guideline angle="90" x="533" y="0"/>
</glyph>
<glyph name="Eng" format="2">
  <advance width="1447"/>
  <unicode hex="014A"/>
  <outline>
    <contour>
      <point x="1024" y="-379" type="line" smooth="yes"/>
      <point x="1156" y="-379"/>
      <point x="1223" y="-301"/>
      <point x="1223" y="-195" type="curve" smooth="yes"/>
      <point x="1223" y="1447" type="line"/>
      <point x="1082" y="1447" type="line"/>
      <point x="1082" y="133" type="line"/>
      <point x="444" y="1447" type="line"/>
      <point x="225" y="1447" type="line"/>
      <point x="225" y="0" type="line"/>
      <point x="366" y="0" type="line"/>
      <point x="366" y="1314" type="line"/>
      <point x="1070" y="-121" type="line" smooth="yes"/>
      <point x="1076" y="-133"/>
      <point x="1082" y="-157"/>
      <point x="1082" y="-170" type="curve" smooth="yes"/>
      <point x="1082" y="-239"/>
      <point x="1070" y="-266"/>
      <point x="1011" y="-266" type="curve" smooth="yes"/>
      <point x="937" y="-266" type="line"/>
      <point x="937" y="-379" type="line"/>
    </contour>
  </outline>
</glyph>
<glyph name="eng" format="2">
  <advance width="1162"/>
  <unicode hex="014B"/>
  <outline>
    <contour>
      <point x="732" y="-379" type="line" smooth="yes"/>
      <point x="928" y="-379"/>
      <point x="1014" y="-288"/>
      <point x="1014" y="-83" type="curve" smooth="yes"/>
      <point x="1014" y="655" type="line" smooth="yes"/>
      <point x="1014" y="887"/>
      <point x="914" y="1084"/>
      <point x="657" y="1084" type="curve" smooth="yes"/>
      <point x="519" y="1084"/>
      <point x="391" y="1010"/>
      <point x="319" y="892" type="curve"/>
      <point x="319" y="1064" type="line"/>
      <point x="186" y="1064" type="line"/>
      <point x="186" y="9" type="line"/>
      <point x="319" y="9" type="line"/>
      <point x="319" y="619" type="line" smooth="yes"/>
      <point x="319" y="796"/>
      <point x="469" y="953"/>
      <point x="646" y="953" type="curve" smooth="yes"/>
      <point x="833" y="953"/>
      <point x="881" y="806"/>
      <point x="881" y="646" type="curve" smooth="yes"/>
      <point x="881" y="-109" type="line" smooth="yes"/>
      <point x="881" y="-210"/>
      <point x="837" y="-264"/>
      <point x="755" y="-264" type="curve" smooth="yes"/>
      <point x="666" y="-264" type="line"/>
      <point x="666" y="-379" type="line"/>
    </contour>
  </outline>
</glyph>
<glyph name="OE" format="2">
  <advance width="2300"/>
  <unicode hex="0152"/>
  <outline>
    <contour>
      <point x="774.144" y="-20.48" type="curve" smooth="yes"/>
      <point x="1010.69" y="-20.48"/>
      <point x="1184.77" y="65.536"/>
      <point x="1274.88" y="292.864" type="curve"/>
      <point x="1274.88" y="0" type="line"/>
      <point x="2186.24" y="0" type="line"/>
      <point x="2186.24" y="125.952" type="line"/>
      <point x="1415.17" y="125.952" type="line"/>
      <point x="1415.17" y="667.648" type="line"/>
      <point x="2093.06" y="667.648" type="line"/>
      <point x="2093.06" y="780.288" type="line"/>
      <point x="1415.17" y="780.288" type="line"/>
      <point x="1415.17" y="1329.15" type="line"/>
      <point x="2186.24" y="1329.15" type="line"/>
      <point x="2186.24" y="1446.91" type="line"/>
      <point x="1274.88" y="1446.91" type="line"/>
      <point x="1274.88" y="1155.07" type="line"/>
      <point x="1179.65" y="1379.33"/>
      <point x="1012.74" y="1468.42"/>
      <point x="774.144" y="1468.42" type="curve" smooth="yes"/>
      <point x="338.944" y="1468.42"/>
      <point x="136.192" y="1122.3"/>
      <point x="136.192" y="723.968" type="curve" smooth="yes"/>
      <point x="136.192" y="325.632"/>
      <point x="337.92" y="-20.48"/>
    </contour>
    <contour>
      <point x="774.144" y="103.424" type="curve" smooth="yes"/>
      <point x="415.744" y="103.424"/>
      <point x="276.48" y="407.552"/>
      <point x="276.48" y="723.968" type="curve" smooth="yes"/>
      <point x="276.48" y="1039.36"/>
      <point x="417.792" y="1342.46"/>
      <point x="774.144" y="1342.46" type="curve" smooth="yes"/>
      <point x="1132.54" y="1342.46"/>
      <point x="1274.88" y="1042.43"/>
      <point x="1274.88" y="723.968" type="curve" smooth="yes"/>
      <point x="1274.88" y="405.504"/>
      <point x="1133.57" y="103.424"/>
    </contour>
  </outline>
</glyph>
<glyph name="oe" format="2">
  <advance width="1894"/>
  <unicode hex="0153"/>
  <outline>
    <contour>
      <point x="575" y="-20" type="curve" smooth="yes"/>
      <point x="781" y="-20"/>
      <point x="906" y="75"/>
      <point x="1007" y="260" type="curve"/>
      <point x="975" y="260" type="line"/>
      <point x="1050" y="74"/>
      <point x="1191" y="-12"/>
      <point x="1384" y="-12" type="curve" smooth="yes"/>
      <point x="1542" y="-12"/>
      <point x="1664" y="29"/>
      <point x="1776" y="141" type="curve"/>
      <point x="1689" y="214" type="line"/>
      <point x="1604" y="124"/>
      <point x="1503" y="100"/>
      <point x="1383" y="100" type="curve" smooth="yes"/>
      <point x="1158" y="100"/>
      <point x="1060" y="286"/>
      <point x="1060" y="488" type="curve"/>
      <point x="1798" y="488" type="line"/>
      <point x="1800" y="496"/>
      <point x="1801" y="505"/>
      <point x="1801" y="512" type="curve" smooth="yes"/>
      <point x="1801" y="900"/>
      <point x="1665" y="1077"/>
      <point x="1365" y="1077" type="curve" smooth="yes"/>
      <point x="1174" y="1077"/>
      <point x="1047" y="979"/>
      <point x="975" y="798" type="curve"/>
      <point x="1005" y="800" type="line"/>
      <point x="909" y="977"/>
      <point x="779" y="1077"/>
      <point x="580" y="1077" type="curve" smooth="yes"/>
      <point x="277" y="1077"/>
      <point x="90" y="811"/>
      <point x="90" y="527" type="curve" smooth="yes"/>
      <point x="90" y="245"/>
      <point x="274" y="-20"/>
    </contour>
    <contour>
      <point x="574" y="102" type="curve" smooth="yes"/>
      <point x="338" y="102"/>
      <point x="233" y="318"/>
      <point x="233" y="527" type="curve" smooth="yes"/>
      <point x="233" y="739"/>
      <point x="341" y="954"/>
      <point x="579" y="954" type="curve" smooth="yes"/>
      <point x="825" y="954"/>
      <point x="926" y="745"/>
      <point x="926" y="527" type="curve" smooth="yes"/>
      <point x="926" y="303"/>
      <point x="824" y="102"/>
    </contour>
    <contour>
      <point x="1677" y="601" type="curve"/>
      <point x="1060" y="601" type="line"/>
      <point x="1071" y="787"/>
      <point x="1157" y="961"/>
      <point x="1366" y="961" type="curve" smooth="yes"/>
      <point x="1580" y="961"/>
      <point x="1677" y="801"/>
    </contour>
  </outline>
</glyph>
<glyph name="Scedilla" format="2">
  <advance width="1134"/>
  <unicode hex="015E"/>
  <anchor x="560" y="1618" name="top"/>
  <outline>
    <contour>
      <point x="94" y="360" type="line"/>
      <point x="131" y="134"/>
      <point x="309" y="7"/>
      <point x="522" y="-13" type="curve"/>
      <point x="440" y="-168" type="line"/>
      <point x="458" y="-189" type="line"/>
      <point x="519" y="-189" type="line" smooth="yes"/>
      <point x="608" y="-189"/>
      <point x="665" y="-239"/>
      <point x="665" y="-314" type="curve" smooth="yes"/>
      <point x="665" y="-373"/>
      <point x="626" y="-419"/>
      <point x="576" y="-419" type="curve" smooth="yes"/>
      <point x="517" y="-419"/>
      <point x="474" y="-387"/>
      <point x="463" y="-347" type="curve"/>
      <point x="372" y="-390" type="line"/>
      <point x="398" y="-461"/>
      <point x="475" y="-514"/>
      <point x="567" y="-514" type="curve" smooth="yes"/>
      <point x="685" y="-514"/>
      <point x="765" y="-430"/>
      <point x="765" y="-306" type="curve" smooth="yes"/>
      <point x="765" y="-190"/>
      <point x="685" y="-132"/>
      <point x="575" y="-127" type="curve"/>
      <point x="635" y="-14" type="line"/>
      <point x="855" y="6"/>
      <point x="1023" y="157"/>
      <point x="1023" y="394" type="curve" smooth="yes"/>
      <point x="1023" y="636"/>
      <point x="823" y="729"/>
      <point x="638" y="816" type="curve" smooth="yes"/>
      <point x="476" y="892"/>
      <point x="325" y="962"/>
      <point x="325" y="1123" type="curve" smooth="yes"/>
      <point x="325" y="1260"/>
      <point x="438" y="1350"/>
      <point x="569" y="1350" type="curve" smooth="yes"/>
      <point x="695" y="1350"/>
      <point x="801" y="1292"/>
      <point x="862" y="1181" type="curve"/>
      <point x="963" y="1250" type="line"/>
      <point x="874" y="1396"/>
      <point x="741" y="1468"/>
      <point x="570" y="1468" type="curve" smooth="yes"/>
      <point x="362" y="1468"/>
      <point x="190" y="1323"/>
      <point x="190" y="1109" type="curve" smooth="yes"/>
      <point x="190" y="888"/>
      <point x="379" y="799"/>
      <point x="560" y="714" type="curve" smooth="yes"/>
      <point x="727" y="635"/>
      <point x="888" y="559"/>
      <point x="888" y="384" type="curve" smooth="yes"/>
      <point x="888" y="193"/>
      <point x="763" y="108"/>
      <point x="583" y="108" type="curve" smooth="yes"/>
      <point x="402" y="108"/>
      <point x="244" y="211"/>
      <point x="222" y="400" type="curve"/>
    </contour>
  </outline>
</glyph>
<glyph name="scedilla" format="2">
  <advance width="901"/>
  <unicode hex="015F"/>
  <anchor x="434" y="1192" name="top"/>
  <outline>
    <contour>
      <point x="86" y="228" type="line"/>
      <point x="129" y="102"/>
      <point x="251" y="12"/>
      <point x="405" y="-13" type="curve"/>
      <point x="323" y="-168" type="line"/>
      <point x="341" y="-189" type="line"/>
      <point x="402" y="-189" type="line" smooth="yes"/>
      <point x="491" y="-189"/>
      <point x="548" y="-239"/>
      <point x="548" y="-314" type="curve" smooth="yes"/>
      <point x="548" y="-373"/>
      <point x="509" y="-419"/>
      <point x="459" y="-419" type="curve" smooth="yes"/>
      <point x="400" y="-419"/>
      <point x="357" y="-387"/>
      <point x="346" y="-347" type="curve"/>
      <point x="255" y="-390" type="line"/>
      <point x="281" y="-461"/>
      <point x="358" y="-514"/>
      <point x="450" y="-514" type="curve" smooth="yes"/>
      <point x="568" y="-514"/>
      <point x="648" y="-430"/>
      <point x="648" y="-306" type="curve" smooth="yes"/>
      <point x="648" y="-190"/>
      <point x="568" y="-132"/>
      <point x="458" y="-127" type="curve"/>
      <point x="515" y="-19" type="line"/>
      <point x="688" y="-8"/>
      <point x="815" y="121"/>
      <point x="815" y="282" type="curve" smooth="yes"/>
      <point x="815" y="416"/>
      <point x="736" y="511"/>
      <point x="579" y="564" type="curve" smooth="yes"/>
      <point x="468" y="602" type="line" smooth="yes"/>
      <point x="310" y="656"/>
      <point x="253" y="703"/>
      <point x="253" y="797" type="curve" smooth="yes"/>
      <point x="253" y="893"/>
      <point x="315" y="960"/>
      <point x="436" y="960" type="curve" smooth="yes"/>
      <point x="544" y="960"/>
      <point x="625" y="913"/>
      <point x="671" y="822" type="curve"/>
      <point x="777" y="886" type="line"/>
      <point x="705" y="1019"/>
      <point x="590" y="1084"/>
      <point x="428" y="1084" type="curve" smooth="yes"/>
      <point x="251" y="1084"/>
      <point x="121" y="959"/>
      <point x="121" y="795" type="curve" smooth="yes"/>
      <point x="121" y="640"/>
      <point x="208" y="552"/>
      <point x="424" y="480" type="curve" smooth="yes"/>
      <point x="535" y="443" type="line" smooth="yes"/>
      <point x="629" y="411"/>
      <point x="683" y="349"/>
      <point x="683" y="272" type="curve" smooth="yes"/>
      <point x="683" y="174"/>
      <point x="586" y="96"/>
      <point x="482" y="96" type="curve" smooth="yes"/>
      <point x="345" y="96"/>
      <point x="233" y="183"/>
      <point x="197" y="297" type="curve"/>
    </contour>
  </outline>
</glyph>
<glyph name="tcedilla" format="2">
  <advance width="689"/>
  <unicode hex="0163"/>
  <anchor x="415" y="0" name="cedilla"/>
  <outline>
    <contour>
      <point x="219" y="-390" type="line"/>
      <point x="245" y="-461"/>
      <point x="322" y="-514"/>
      <point x="414" y="-514" type="curve" smooth="yes"/>
      <point x="532" y="-514"/>
      <point x="612" y="-430"/>
      <point x="612" y="-306" type="curve" smooth="yes"/>
      <point x="612" y="-190"/>
      <point x="532" y="-132"/>
      <point x="422" y="-127" type="curve"/>
      <point x="479" y="-20" type="line"/>
      <point x="517" y="-19"/>
      <point x="555" y="-16"/>
      <point x="591" y="-3" type="curve"/>
      <point x="591" y="106" type="line"/>
      <point x="559" y="91"/>
      <point x="528" y="83"/>
      <point x="494" y="83" type="curve" smooth="yes"/>
      <point x="388" y="83"/>
      <point x="352" y="174"/>
      <point x="352" y="266" type="curve" smooth="yes"/>
      <point x="352" y="958" type="line"/>
      <point x="624" y="958" type="line"/>
      <point x="624" y="1064" type="line"/>
      <point x="352" y="1064" type="line"/>
      <point x="352" y="1382" type="line"/>
      <point x="219" y="1265" type="line"/>
      <point x="219" y="1064" type="line"/>
      <point x="52" y="1064" type="line"/>
      <point x="52" y="958" type="line"/>
      <point x="219" y="958" type="line"/>
      <point x="219" y="281" type="line" smooth="yes"/>
      <point x="219" y="143"/>
      <point x="253" y="28"/>
      <point x="372" y="-8" type="curve"/>
      <point x="287" y="-168" type="line"/>
      <point x="305" y="-189" type="line"/>
      <point x="366" y="-189" type="line" smooth="yes"/>
      <point x="455" y="-189"/>
      <point x="512" y="-239"/>
      <point x="512" y="-314" type="curve" smooth="yes"/>
      <point x="512" y="-373"/>
      <point x="473" y="-419"/>
      <point x="423" y="-419" type="curve" smooth="yes"/>
      <point x="364" y="-419"/>
      <point x="321" y="-387"/>
      <point x="310" y="-347" type="curve"/>
    </contour>
  </outline>
</glyph>
<glyph name="tcaron" format="2">
  <advance width="698"/>
  <unicode hex="0165"/>
  <outline>
    <component base="t"/>
    <contour>
      <point x="585" y="1136" type="line"/>
      <point x="810" y="1480" type="line"/>
      <point x="605" y="1480" type="line"/>
      <point x="489" y="1136" type="line"/>
    </contour>
  </outline>
</glyph>
<glyph name="Tbar" format="2">
  <advance width="1277"/>
  <unicode hex="0166"/>
  <outline>
    <contour>
      <point x="710" y="0" type="line"/>
      <point x="710" y="669" type="line"/>
      <point x="968" y="669" type="line"/>
      <point x="968" y="775" type="line"/>
      <point x="710" y="775" type="line"/>
      <point x="710" y="1336" type="line"/>
      <point x="1206" y="1336" type="line"/>
      <point x="1206" y="1447" type="line"/>
      <point x="71" y="1447" type="line"/>
      <point x="71" y="1336" type="line"/>
      <point x="567" y="1336" type="line"/>
      <point x="567" y="775" type="line"/>
      <point x="319" y="775" type="line"/>
      <point x="319" y="669" type="line"/>
      <point x="567" y="669" type="line"/>
      <point x="567" y="0" type="line"/>
    </contour>
  </outline>
</glyph>
<glyph name="tbar" format="2">
  <advance width="694"/>
  <unicode hex="0167"/>
  <outline>
    <component base="t"/>
    <contour>
      <point x="-5.12" y="584.704" type="line"/>
      <point x="-5.12" y="478.208" type="line"/>
      <point x="663.552" y="478.208" type="line"/>
      <point x="663.552" y="584.704" type="line"/>
    </contour>
  </outline>
</glyph>
<glyph name="longs" format="2">
  <advance width="713"/>
  <unicode hex="017F"/>
  <outline>
    <contour>
      <point x="232" y="0" type="line"/>
      <point x="360" y="0" type="line" name=".av01"/>
      <point x="360" y="1198" type="line" smooth="yes" name=".dh01"/>
      <point x="360" y="1297"/>
      <point x="410" y="1361"/>
      <point x="513" y="1361" type="curve" smooth="yes" name=".dv01"/>
      <point x="558" y="1361"/>
      <point x="603" y="1348"/>
      <point x="645" y="1332" type="curve"/>
      <point x="674" y="1431" type="line"/>
      <point x="621" y="1455"/>
      <point x="564" y="1468"/>
      <point x="506" y="1468" type="curve" smooth="yes" name=".dv02"/>
      <point x="355" y="1468"/>
      <point x="232" y="1390"/>
      <point x="232" y="1228" type="curve" smooth="yes" name=".sh01"/>
      <point x="232" y="1062" type="line"/>
      <point x="38" y="1062" type="line" name=".dv04"/>
      <point x="38" y="958" type="line" name=".dv03"/>
      <point x="232" y="958" type="line" name=".sh02"/>
    </contour>
  </outline>
</glyph>
<glyph name="florin" format="2">
  <advance width="986"/>
  <unicode hex="0192"/>
  <outline>
    <contour>
      <point x="134.144" y="-348.16" type="curve"/>
      <point x="134.144" y="-468.992" type="line"/>
      <point x="430.08" y="-468.992"/>
      <point x="616.448" y="-301.056"/>
      <point x="616.448" y="0" type="curve" smooth="yes"/>
      <point x="616.448" y="946.176" type="line"/>
      <point x="885.392" y="946.176" type="line"/>
      <point x="885.392" y="1063.94" type="line"/>
      <point x="616.448" y="1063.94" type="line"/>
      <point x="616.448" y="1216.51" type="line" smooth="yes"/>
      <point x="616.448" y="1307.65"/>
      <point x="679.936" y="1363.97"/>
      <point x="766.976" y="1363.97" type="curve" smooth="yes"/>
      <point x="806.912" y="1363.97"/>
      <point x="889.332" y="1347.88"/>
      <point x="927.077" y="1327.1" type="curve"/>
      <point x="970.675" y="1431" type="line"/>
      <point x="910.166" y="1468"/>
      <point x="839.68" y="1484.8"/>
      <point x="769.024" y="1484.8" type="curve" smooth="yes"/>
      <point x="618.496" y="1484.8"/>
      <point x="495.616" y="1375.23"/>
      <point x="495.616" y="1222.66" type="curve" smooth="yes"/>
      <point x="495.616" y="1063.94" type="line"/>
      <point x="306.176" y="1063.94" type="line"/>
      <point x="306.176" y="946.176" type="line"/>
      <point x="495.616" y="946.176" type="line"/>
      <point x="495.616" y="-6.144" type="line" smooth="yes"/>
      <point x="495.616" y="-249.856"/>
      <point x="368.64" y="-348.16"/>
    </contour>
  </outline>
  <guideline angle="66.9745" x="883.55" y="1226"/>
  <guideline angle="0" x="0" y="1327"/>
  <guideline angle="0" x="0" y="1431"/>
</glyph>
<glyph name="Ohorn" format="2">
  <advance width="1563"/>
  <unicode hex="01A0"/>
  <anchor x="787.216" y="1617.92" name="top"/>
  <outline>
    <component base="O" xScale="1" yScale="1" xOffset="4.74974e-07"/>
    <contour>
      <point x="1232.66" y="1051.65" type="line"/>
      <point x="1266.45" y="1051.65" type="line" smooth="yes"/>
      <point x="1430.29" y="1051.65"/>
      <point x="1519.38" y="1160.19"/>
      <point x="1519.38" y="1315.84" type="curve" smooth="yes"/>
      <point x="1519.38" y="1468.42" type="line" name=".sv01"/>
      <point x="1419.02" y="1468.42" type="line" name=".sh01"/>
      <point x="1419.02" y="1353.73" type="line" smooth="yes"/>
      <point x="1419.02" y="1217.54"/>
      <point x="1377.04" y="1147.9"/>
      <point x="1260.3" y="1147.9" type="curve" smooth="yes"/>
      <point x="1232.66" y="1147.9" type="line"/>
    </contour>
  </outline>
  <guideline angle="90" name="vertical" x="787.216" y="0"/>
</glyph>
<glyph name="uni01C3" format="2">
  <advance width="674"/>
  <unicode hex="01C3"/>
  <outline>
    <contour>
      <point x="385.024" y="378.88" type="line"/>
      <point x="414.72" y="1469.44" type="line"/>
      <point x="259.072" y="1469.44" type="line"/>
      <point x="288.768" y="378.88" type="line"/>
    </contour>
    <contour>
      <point x="427.008" y="0" type="line"/>
      <point x="427.008" y="179.2" type="line"/>
      <point x="246.784" y="179.2" type="line"/>
      <point x="246.784" y="0" type="line"/>
    </contour>
  </outline>
</glyph>
<glyph name="uni01DD" format="2">
  <advance width="1074"/>
  <unicode hex="01DD"/>
  <outline>
    <contour>
      <point x="534" y="-12" type="curve" smooth="yes"/>
      <point x="800" y="-12"/>
      <point x="981" y="211"/>
      <point x="981" y="539" type="curve" smooth="yes"/>
      <point x="981" y="858"/>
      <point x="793" y="1077"/>
      <point x="519" y="1077" type="curve" smooth="yes"/>
      <point x="345" y="1077"/>
      <point x="222" y="1029"/>
      <point x="123" y="919" type="curve"/>
      <point x="210" y="848" type="line"/>
      <point x="286" y="930"/>
      <point x="380" y="966"/>
      <point x="519" y="966" type="curve" smooth="yes"/>
      <point x="715" y="966"/>
      <point x="844" y="811"/>
      <point x="844" y="575" type="curve"/>
      <point x="102" y="575" type="line"/>
      <point x="101" y="557"/>
      <point x="100" y="535"/>
      <point x="100" y="522" type="curve" smooth="yes"/>
      <point x="100" y="181"/>
      <point x="258" y="-12"/>
    </contour>
    <contour>
      <point x="534" y="104" type="curve" smooth="yes"/>
      <point x="337" y="104"/>
      <point x="221" y="237"/>
      <point x="221" y="463" type="curve"/>
      <point x="844" y="463" type="line"/>
      <point x="844" y="246"/>
      <point x="721" y="104"/>
    </contour>
  </outline>
</glyph>
<glyph name="uni0237" format="2">
  <advance width="511"/>
  <unicode hex="0237"/>
  <outline>
    <contour>
      <point x="-59.392" y="-305.152" type="curve"/>
      <point x="-88.064" y="-418.816" type="line"/>
      <point x="-49.152" y="-435.2"/>
      <point x="23.552" y="-449.536"/>
      <point x="64.512" y="-449.536" type="curve" smooth="yes"/>
      <point x="243.712" y="-449.536"/>
      <point x="326.656" y="-331.776"/>
      <point x="326.656" y="-161.792" type="curve" smooth="yes"/>
      <point x="326.656" y="1063.94" type="line"/>
      <point x="188.416" y="1063.94" type="line"/>
      <point x="188.416" y="-144.384" type="line" smooth="yes"/>
      <point x="188.416" y="-230.4"/>
      <point x="173.056" y="-322.56"/>
      <point x="66.56" y="-322.56" type="curve" smooth="yes"/>
      <point x="22.528" y="-322.56"/>
      <point x="-18.432" y="-317.44"/>
    </contour>
  </outline>
</glyph>
<glyph name="aturned" format="2">
  <advance width="1066"/>
  <unicode hex="0250"/>
  <anchor x="513" y="1192" name="top"/>
  <anchor x="916" y="0" name="ogonek"/>
  <anchor x="513" y="1372" name="center"/>
  <anchor x="513" y="-150" name="bottom"/>
  <outline>
    <contour>
      <point x="644" y="1084" type="curve" smooth="yes" name=".dv01"/>
      <point x="469" y="1084"/>
      <point x="336" y="1002"/>
      <point x="261" y="843" type="curve" name=".sh01"/>
      <point x="241" y="1064" type="line"/>
      <point x="124" y="1064" type="line"/>
      <point x="138" y="986"/>
      <point x="150" y="857"/>
      <point x="150" y="783" type="curve" smooth="yes"/>
      <point x="150" y="410" type="line" smooth="yes" name=".dh03"/>
      <point x="150" y="153"/>
      <point x="289" y="-20"/>
      <point x="553" y="-20" type="curve" smooth="yes" name=".dv06"/>
      <point x="714" y="-20"/>
      <point x="846" y="43"/>
      <point x="940" y="175" type="curve"/>
      <point x="847" y="253" type="line"/>
      <point x="776" y="148"/>
      <point x="669" y="92"/>
      <point x="542" y="92" type="curve" smooth="yes" name=".dv05"/>
      <point x="319" y="92"/>
      <point x="266" y="276"/>
      <point x="266" y="464" type="curve" name=".av01"/>
      <point x="505" y="464" type="line" smooth="yes" name=".dv04"/>
      <point x="717" y="464"/>
      <point x="979" y="510"/>
      <point x="979" y="776" type="curve" smooth="yes" name=".dh01"/>
      <point x="979" y="976"/>
      <point x="834" y="1084"/>
    </contour>
    <contour>
      <point x="632" y="976" type="curve" smooth="yes" name=".dv02"/>
      <point x="758" y="976"/>
      <point x="844" y="910"/>
      <point x="844" y="779" type="curve" smooth="yes" name=".dh02"/>
      <point x="844" y="574"/>
      <point x="627" y="564"/>
      <point x="474" y="564" type="curve" smooth="yes" name=".dv03"/>
      <point x="266" y="564" type="line" name=".sh02"/>
      <point x="266" y="769"/>
      <point x="415" y="976"/>
    </contour>
  </outline>
</glyph>
<glyph name="uni0250" format="2">
  <advance width="1066"/>
  <unicode hex="0250"/>
  <outline>
    <contour>
      <point x="548.864" y="-18.432" type="curve" smooth="yes"/>
      <point x="715.776" y="-18.432"/>
      <point x="842.752" y="40.96"/>
      <point x="941.056" y="177.152" type="curve"/>
      <point x="846.848" y="253.952" type="line"/>
      <point x="774.144" y="152.576"/>
      <point x="672.768" y="95.232"/>
      <point x="546.816" y="95.232" type="curve" smooth="yes"/>
      <point x="317.44" y="95.232"/>
      <point x="265.216" y="266.24"/>
      <point x="265.216" y="462.848" type="curve"/>
      <point x="546.816" y="462.848" type="line" smooth="yes"/>
      <point x="756.736" y="462.848"/>
      <point x="978.944" y="521.216"/>
      <point x="978.944" y="775.168" type="curve" smooth="yes"/>
      <point x="978.944" y="965.632"/>
      <point x="833.536" y="1083.39"/>
      <point x="649.216" y="1083.39" type="curve" smooth="yes"/>
      <point x="470.016" y="1083.39"/>
      <point x="348.16" y="1005.57"/>
      <point x="262.144" y="849.92" type="curve"/>
      <point x="254.976" y="1062.91" type="line"/>
      <point x="149.504" y="1062.91" type="line"/>
      <point x="149.504" y="407.552" type="line" smooth="yes"/>
      <point x="149.504" y="156.672"/>
      <point x="287.744" y="-18.432"/>
    </contour>
    <contour>
      <point x="471.04" y="568.32" type="curve" smooth="yes"/>
      <point x="265.216" y="568.32" type="line"/>
      <point x="265.216" y="766.976"/>
      <point x="417.792" y="969.728"/>
      <point x="626.688" y="969.728" type="curve" smooth="yes"/>
      <point x="751.616" y="969.728"/>
      <point x="843.776" y="911.36"/>
      <point x="843.776" y="777.216" type="curve" smooth="yes"/>
      <point x="843.776" y="570.368"/>
      <point x="622.592" y="568.32"/>
    </contour>
  </outline>
</glyph>
<glyph name="oopen" format="2">
  <advance width="1013"/>
  <unicode hex="0254"/>
  <outline>
    <contour>
      <point x="65" y="248" type="line"/>
      <point x="135" y="72"/>
      <point x="271" y="-20"/>
      <point x="460" y="-20" type="curve" smooth="yes"/>
      <point x="768" y="-20"/>
      <point x="907" y="254"/>
      <point x="907" y="529" type="curve" smooth="yes"/>
      <point x="907" y="803"/>
      <point x="767" y="1081"/>
      <point x="460" y="1081" type="curve" smooth="yes"/>
      <point x="273" y="1081"/>
      <point x="136" y="985"/>
      <point x="66" y="812" type="curve"/>
      <point x="186" y="757" type="line"/>
      <point x="221" y="879"/>
      <point x="336" y="964"/>
      <point x="463" y="964" type="curve" smooth="yes"/>
      <point x="699" y="964"/>
      <point x="773" y="727"/>
      <point x="773" y="530" type="curve" smooth="yes"/>
      <point x="773" y="333"/>
      <point x="699" y="95"/>
      <point x="463" y="95" type="curve" smooth="yes"/>
      <point x="337" y="95"/>
      <point x="219" y="179"/>
      <point x="186" y="303" type="curve"/>
    </contour>
  </outline>
</glyph>
<glyph name="uni0254" format="2">
  <advance width="1012"/>
  <unicode hex="0254"/>
  <outline>
    <contour>
      <point x="64" y="248" type="line"/>
      <point x="134" y="72"/>
      <point x="270" y="-20"/>
      <point x="459" y="-20" type="curve" smooth="yes"/>
      <point x="767" y="-20"/>
      <point x="906" y="254"/>
      <point x="906" y="529" type="curve" smooth="yes"/>
      <point x="906" y="803"/>
      <point x="766" y="1081"/>
      <point x="459" y="1081" type="curve" smooth="yes"/>
      <point x="272" y="1081"/>
      <point x="135" y="985"/>
      <point x="65" y="812" type="curve"/>
      <point x="185" y="757" type="line"/>
      <point x="220" y="879"/>
      <point x="335" y="964"/>
      <point x="462" y="964" type="curve" smooth="yes"/>
      <point x="698" y="964"/>
      <point x="772" y="727"/>
      <point x="772" y="530" type="curve" smooth="yes"/>
      <point x="772" y="333"/>
      <point x="698" y="95"/>
      <point x="462" y="95" type="curve" smooth="yes"/>
      <point x="336" y="95"/>
      <point x="218" y="179"/>
      <point x="185" y="303" type="curve"/>
    </contour>
  </outline>
</glyph>
<glyph name="uni0258" format="2">
  <advance width="1081"/>
  <unicode hex="0258"/>
  <outline>
    <contour>
      <point x="509.976" y="-12.288" type="curve" smooth="yes"/>
      <point x="823.32" y="-12.288"/>
      <point x="974.872" y="236.544"/>
      <point x="974.872" y="525.312" type="curve" smooth="yes"/>
      <point x="974.872" y="792.576"/>
      <point x="838.68" y="1077.25"/>
      <point x="534.552" y="1077.25" type="curve" smooth="yes"/>
      <point x="190.488" y="1077.25"/>
      <point x="93.208" y="842.752"/>
      <point x="93.208" y="536.576" type="curve" smooth="yes"/>
      <point x="93.208" y="520.192"/>
      <point x="94.232" y="504.832"/>
      <point x="97.304" y="488.448" type="curve"/>
      <point x="835.608" y="488.448" type="line"/>
      <point x="835.608" y="287.744"/>
      <point x="738.328" y="101.376"/>
      <point x="514.072" y="101.376" type="curve" smooth="yes"/>
      <point x="395.288" y="101.376"/>
      <point x="288.792" y="124.928"/>
      <point x="205.848" y="216.064" type="curve"/>
      <point x="117.784" y="142.336" type="line"/>
      <point x="234.52" y="25.6"/>
      <point x="346.136" y="-12.288"/>
    </contour>
    <contour>
      <point x="835.608" y="602.112" type="curve"/>
      <point x="214.04" y="602.112" type="line"/>
      <point x="214.04" y="802.816"/>
      <point x="313.368" y="958.464"/>
      <point x="529.432" y="958.464" type="curve" smooth="yes"/>
      <point x="735.256" y="958.464"/>
      <point x="835.608" y="787.456"/>
    </contour>
  </outline>
</glyph>
<glyph name="uni02BC" format="2">
  <advance width="571"/>
  <unicode hex="02BC"/>
  <outline>
    <contour>
      <point x="233.472" y="966.632" type="line" name=".sv01"/>
      <point x="454.656" y="1447.91" type="line" name=".av01"/>
      <point x="275.456" y="1447.91" type="line"/>
      <point x="155.648" y="966.632" type="line"/>
    </contour>
  </outline>
</glyph>
<glyph name="circumflex" format="2">
  <advance width="776"/>
  <unicode hex="02C6"/>
  <outline>
    <contour>
      <point x="51" y="1192" type="line"/>
      <point x="209" y="1192" type="line"/>
      <point x="388" y="1392" type="line"/>
      <point x="570" y="1192" type="line"/>
      <point x="725" y="1192" type="line"/>
      <point x="388" y="1553" type="line"/>
    </contour>
  </outline>
</glyph>
<glyph name="caron" format="2">
  <advance width="787"/>
  <unicode hex="02C7"/>
  <outline>
    <contour>
      <point x="393.216" y="1181.7" type="line"/>
      <point x="729.088" y="1518.59" type="line"/>
      <point x="574.464" y="1518.59" type="line"/>
      <point x="393.216" y="1323.01" type="line"/>
      <point x="212.992" y="1518.59" type="line"/>
      <point x="56.32" y="1518.59" type="line"/>
    </contour>
  </outline>
</glyph>
<glyph name="colontriangularmod" format="2">
  <advance width="530"/>
  <unicode hex="02D0"/>
  <outline>
    <contour>
      <point x="265" y="633" type="line"/>
      <point x="470" y="1022" type="line"/>
      <point x="60" y="1022" type="line"/>
    </contour>
    <contour>
      <point x="60" y="0" type="line"/>
      <point x="470" y="0" type="line"/>
      <point x="265" y="389" type="line"/>
    </contour>
  </outline>
</glyph>
<glyph name="uni02D0" format="2">
  <advance width="530"/>
  <unicode hex="02D0"/>
  <outline>
    <contour>
      <point x="265" y="633" type="line"/>
      <point x="470" y="1022" type="line"/>
      <point x="60" y="1022" type="line"/>
    </contour>
    <contour>
      <point x="60" y="0" type="line"/>
      <point x="470" y="0" type="line"/>
      <point x="265" y="389" type="line"/>
    </contour>
  </outline>
  <guideline angle="90" x="265" y="0"/>
</glyph>
<glyph name="colontriangularhalfmod" format="2">
  <advance width="530"/>
  <unicode hex="02D1"/>
  <outline>
    <contour>
      <point x="265" y="285" type="line"/>
      <point x="470" y="674" type="line"/>
      <point x="60" y="674" type="line"/>
    </contour>
  </outline>
</glyph>
<glyph name="uni02D1" format="2">
  <advance width="530"/>
  <unicode hex="02D1"/>
  <outline>
    <contour>
      <point x="265" y="285" type="line"/>
      <point x="470" y="674" type="line"/>
      <point x="60" y="674" type="line"/>
    </contour>
  </outline>
</glyph>
<glyph name="breve" format="2">
  <advance width="746"/>
  <unicode hex="02D8"/>
  <outline>
    <contour>
      <point x="372.736" y="1192.15" type="curve" smooth="yes"/>
      <point x="543.744" y="1192.15"/>
      <point x="684.032" y="1282.26"/>
      <point x="684.032" y="1466.58" type="curve"/>
      <point x="553.984" y="1466.58" type="line"/>
      <point x="553.984" y="1364.18"/>
      <point x="471.04" y="1299.67"/>
      <point x="372.736" y="1299.67" type="curve" smooth="yes"/>
      <point x="276.48" y="1299.67"/>
      <point x="190.464" y="1365.21"/>
      <point x="190.464" y="1466.58" type="curve"/>
      <point x="61.44" y="1466.58" type="line"/>
      <point x="61.44" y="1284.31"/>
      <point x="202.752" y="1192.15"/>
    </contour>
  </outline>
</glyph>
<glyph name="dotaccent" format="2">
  <advance width="519"/>
  <unicode hex="02D9"/>
  <outline>
    <contour>
      <point x="180" y="1240" type="line"/>
      <point x="339" y="1240" type="line"/>
      <point x="339" y="1427" type="line"/>
      <point x="180" y="1427" type="line"/>
    </contour>
  </outline>
</glyph>
<glyph name="ring" format="2">
  <advance width="522"/>
  <unicode hex="02DA"/>
  <anchor x="261" y="1108" name="_top"/>
  <anchor x="261" y="1264" name="_center"/>
  <outline>
    <contour>
      <point x="261.144" y="1064" type="curve" smooth="yes"/>
      <point x="378.904" y="1064"/>
      <point x="461.896" y="1145.97"/>
      <point x="461.896" y="1263.73" type="curve" smooth="yes"/>
      <point x="461.896" y="1381.49"/>
      <point x="378.904" y="1464.46"/>
      <point x="261.144" y="1464.46" type="curve" smooth="yes"/>
      <point x="143.384" y="1464.46"/>
      <point x="60.44" y="1381.49"/>
      <point x="60.44" y="1263.73" type="curve" smooth="yes"/>
      <point x="60.44" y="1145.97"/>
      <point x="143.384" y="1064"/>
    </contour>
    <contour>
      <point x="261.144" y="1162.28" type="curve" smooth="yes"/>
      <point x="202.776" y="1162.28"/>
      <point x="158.744" y="1205.36"/>
      <point x="158.744" y="1263.73" type="curve" smooth="yes"/>
      <point x="158.744" y="1322.1"/>
      <point x="202.776" y="1366.18"/>
      <point x="261.144" y="1366.18" type="curve" smooth="yes"/>
      <point x="319.512" y="1366.18"/>
      <point x="363.544" y="1322.1"/>
      <point x="363.544" y="1263.73" type="curve" smooth="yes"/>
      <point x="363.544" y="1205.36"/>
      <point x="319.512" y="1162.28"/>
    </contour>
  </outline>
  <guideline angle="90" x="261.144" y="0"/>
  <guideline angle="90" x="261" y="0"/>
  <guideline angle="0" x="0" y="1264"/>
</glyph>
<glyph name="ogonek" format="2">
  <advance width="609"/>
  <unicode hex="02DB"/>
  <outline>
    <contour>
      <point x="337" y="0" type="line"/>
      <point x="191" y="-63"/>
      <point x="115" y="-159"/>
      <point x="115" y="-279" type="curve" smooth="yes"/>
      <point x="115" y="-380"/>
      <point x="188" y="-463"/>
      <point x="301" y="-463" type="curve" smooth="yes"/>
      <point x="411" y="-463"/>
      <point x="476" y="-426"/>
      <point x="526" y="-351" type="curve"/>
      <point x="439" y="-291" type="line"/>
      <point x="407" y="-335"/>
      <point x="363" y="-356"/>
      <point x="310" y="-356" type="curve" smooth="yes"/>
      <point x="245" y="-356"/>
      <point x="216" y="-298"/>
      <point x="216" y="-241" type="curve" smooth="yes"/>
      <point x="216" y="-128"/>
      <point x="358" y="-33"/>
      <point x="452" y="0" type="curve"/>
    </contour>
  </outline>
</glyph>
